<?xml version="1.0" encoding="UTF-8" standalone="no"?>
<!-- Created with Inkscape (http://www.inkscape.org/) -->

<svg
   width="400"
   height="300"
   viewBox="0 0 105.83333 79.375"
   version="1.1"
   id="svg1"
   inkscape:version="1.3.2 (091e20e, 2023-11-25, custom)"
   sodipodi:docname="Mou_OR_our.svg"
   xmlns:inkscape="http://www.inkscape.org/namespaces/inkscape"
   xmlns:sodipodi="http://sodipodi.sourceforge.net/DTD/sodipodi-0.dtd"
   xmlns="http://www.w3.org/2000/svg"
   xmlns:svg="http://www.w3.org/2000/svg">
  <sodipodi:namedview
     id="namedview1"
     pagecolor="#ffffff"
     bordercolor="#000000"
     borderopacity="0.25"
     inkscape:showpageshadow="2"
     inkscape:pageopacity="0.0"
     inkscape:pagecheckerboard="0"
     inkscape:deskcolor="#d1d1d1"
     inkscape:document-units="mm"
     inkscape:zoom="7.2063788"
     inkscape:cx="202.18199"
     inkscape:cy="157.01367"
     inkscape:window-width="1536"
     inkscape:window-height="953"
     inkscape:window-x="-8"
     inkscape:window-y="-8"
     inkscape:window-maximized="1"
     inkscape:current-layer="g3" />
  <defs
     id="defs1">
    <rect
       x="503.93228"
       y="352.21072"
       width="93.659676"
       height="32.47094"
       id="rect2-7-77-5-8-3" />
    <rect
       x="503.93228"
       y="352.21072"
       width="93.659676"
       height="32.47094"
       id="rect2-7-7-0-7-9-0-8" />
    <rect
       x="503.93228"
       y="352.21072"
       width="93.659676"
       height="32.47094"
       id="rect2-7-7-0-7-9-0-8-3" />
    <rect
       x="503.93228"
       y="352.21072"
       width="93.659676"
       height="32.47094"
       id="rect2-7-7-0-7-9-0-8-3-0" />
    <rect
       x="503.93228"
       y="352.21072"
       width="93.659676"
       height="32.47094"
       id="rect2-7-7-0-7-9-0-8-9" />
    <rect
       x="503.93228"
       y="352.21072"
       width="120.85421"
       height="37.807226"
       id="rect2-7-7-0-7-9-0-8-3-0-3" />
  </defs>
  <g
     inkscape:label="Layer 1"
     inkscape:groupmode="layer"
     id="layer1">
    <g
       id="g43"
       transform="matrix(0.94047631,0,0,0.94047631,-180.78112,-64.721903)">
      <g
         id="g3"
         transform="translate(-0.60117365,-2.6458334)">
        <path
           d="m 518.94147,368.87149 q 0,1.74772 -0.50119,3.19987 -0.50118,1.4393 -1.41359,2.44167 -0.84816,0.95096 -2.00474,1.47785 -1.14373,0.51403 -2.42882,0.51403 -1.11802,0 -2.03044,-0.24416 -0.89956,-0.24417 -1.83767,-0.75821 v 6.01422 h -2.41597 v -19.649 h 2.41597 v 1.50356 q 0.96381,-0.80961 2.15895,-1.34935 1.20798,-0.55258 2.57017,-0.55258 2.59588,0 4.03518,1.96618 1.45215,1.95333 1.45215,5.43592 z m -2.49307,0.0643 q 0,-2.59588 -0.88671,-3.88097 -0.88671,-1.28509 -2.72439,-1.28509 -1.04092,0 -2.09469,0.44978 -1.05378,0.44978 -2.01759,1.18228 v 8.13461 q 1.02807,0.46263 1.76057,0.62969 0.74535,0.16706 1.68346,0.16706 2.01759,0 3.14847,-1.36219 1.13088,-1.36219 1.13088,-4.03517 z m 18.49241,0.11565 q 0,3.50829 -1.79912,5.53873 -1.79912,2.03044 -4.81908,2.03044 -3.04566,0 -4.84478,-2.03044 -1.78627,-2.03044 -1.78627,-5.53873 0,-3.50829 1.78627,-5.53873 1.79912,-2.04328 4.84478,-2.04328 3.01996,0 4.81908,2.04328 1.79912,2.03044 1.79912,5.53873 z m -2.49307,0 q 0,-2.78864 -1.09232,-4.13798 -1.09233,-1.36219 -3.03281,-1.36219 -1.96618,0 -3.05851,1.36219 -1.07947,1.34934 -1.07947,4.13798 0,2.69869 1.09232,4.09943 1.09233,1.3879 3.04566,1.3879 1.92763,0 3.01996,-1.37505 1.10517,-1.38789 1.10517,-4.11228 z m 18.13259,7.17079 h -2.41596 v -1.59351 q -1.22084,0.96382 -2.33886,1.47786 -1.11803,0.51403 -2.46737,0.51403 -2.26176,0 -3.52114,-1.37504 -1.25939,-1.3879 -1.25939,-4.06088 v -9.31689 h 2.41597 v 8.17316 q 0,1.09233 0.1028,1.87623 0.10281,0.77105 0.43693,1.32364 0.34698,0.56544 0.89956,0.82246 0.55259,0.25701 1.60636,0.25701 0.93812,0 2.04329,-0.48833 1.11803,-0.48833 2.08185,-1.24653 v -10.71764 h 2.41596 z m 13.71189,-11.72 h -0.12851 q -0.53974,-0.12851 -1.05377,-0.17991 -0.50119,-0.0642 -1.19513,-0.0642 -1.11803,0 -2.15895,0.50118 -1.04092,0.48833 -2.00474,1.27224 v 10.19074 h -2.41596 v -14.35443 h 2.41596 v 2.1204 q 1.4393,-1.15658 2.53163,-1.63206 1.10517,-0.48834 2.2489,-0.48834 0.62969,0 0.91241,0.0386 0.28272,0.0257 0.84816,0.11566 z"
           id="text2-6-3-9-6-8-4-8"
           style="font-size:26.3186px;white-space:pre;fill:#0f0f0f;stroke:#000000;stroke-width:0"
           transform="matrix(0.38041863,0,0,0.38041863,46.307118,-25.168217)"
           aria-label="pour" />
        <rect
           style="fill:#000000;fill-opacity:1;stroke:#ea75b3;stroke-width:0"
           id="rect1"
           width="16.325851"
           height="0.76900715"
           x="243.65289"
           y="-119.76043"
           ry="0.38450357"
           transform="scale(1,-1)" />
      </g>
    </g>
    <g
       id="g8"
       transform="translate(-0.001167)">
      <path
         style="fill:#ef615b;fill-opacity:1;stroke-width:0.461993"
         d="m 82.813987,-54.42903 c -0.287384,-2.540522 0.587906,-10.184026 5.171263,-14.422943 2.65693,-2.457274 9.964557,-7.480482 14.75437,-7.41182 4.7898,0.06867 5.07721,1.647908 7.28052,1.647908 2.20331,0 6.03517,-1.785233 9.10065,-1.785233 3.06549,0 11.41288,3.78084 14.46523,7.690231 2.47062,3.164343 3.73607,10.024765 3.83185,14.625171 0.0957,4.600406 -1.15567,11.872439 -7.84741,17.301766 -5.8624,4.756441 -11.50342,5.837589 -20.50827,6.180903 -9.00487,0.343314 -16.39139,-4.547792 -18.967677,-6.660289 -7.453864,-6.111998 -7.280526,-17.165694 -7.280526,-17.165694 z"
         id="path68-9-7"
         sodipodi:nodetypes="csssssssssc"
         clip-path="none"
         transform="matrix(0.81759777,0,0,0.71599848,-37.094588,54.703084)" />
      <path
         style="display:block;fill:#755946;fill-opacity:1;stroke-width:0.424169"
         d="m 38.795251,14.380204 c 4.47034,-3.445164 7.264354,-3.295309 8.739349,-3.295309 1.474995,0 3.518839,1.211483 6.462456,1.155069 2.919481,-0.05595 5.767936,-0.947683 5.767936,-0.947683 0,0 3.70289,-0.844639 5.946062,0.953768 l 2.572356,2.062322 c 0,0 -4.616424,5.330778 -15.008425,5.277137 -8.851432,-0.04569 -14.479734,-5.205304 -14.479734,-5.205304 z"
         id="path2"
         sodipodi:nodetypes="csscscsc" />
    </g>
  </g>
</svg>
