<?xml version="1.0" encoding="UTF-8" standalone="no"?>
<!-- Created with Inkscape (http://www.inkscape.org/) -->

<svg
   width="400"
   height="300"
   viewBox="0 0 105.83333 79.375"
   version="1.1"
   id="svg1"
   inkscape:version="1.3.2 (091e20e, 2023-11-25, custom)"
   sodipodi:docname="Mou_U_o.svg"
   xmlns:inkscape="http://www.inkscape.org/namespaces/inkscape"
   xmlns:sodipodi="http://sodipodi.sourceforge.net/DTD/sodipodi-0.dtd"
   xmlns="http://www.w3.org/2000/svg"
   xmlns:svg="http://www.w3.org/2000/svg">
  <sodipodi:namedview
     id="namedview1"
     pagecolor="#ffffff"
     bordercolor="#000000"
     borderopacity="0.25"
     inkscape:showpageshadow="2"
     inkscape:pageopacity="0.0"
     inkscape:pagecheckerboard="0"
     inkscape:deskcolor="#d1d1d1"
     inkscape:document-units="mm"
     inkscape:zoom="2.5478397"
     inkscape:cx="200.16958"
     inkscape:cy="109.30829"
     inkscape:window-width="1536"
     inkscape:window-height="953"
     inkscape:window-x="-8"
     inkscape:window-y="-8"
     inkscape:window-maximized="1"
     inkscape:current-layer="layer1" />
  <defs
     id="defs1">
    <rect
       x="503.93228"
       y="352.21072"
       width="93.659676"
       height="32.47094"
       id="rect2-7-77-5-8-3" />
    <rect
       x="503.93228"
       y="352.21072"
       width="93.659676"
       height="32.47094"
       id="rect2-7-7-0-7-9-0-8" />
    <rect
       x="503.93228"
       y="352.21072"
       width="93.659676"
       height="32.47094"
       id="rect2-7-7-0-7-9-0-8-3" />
    <rect
       x="503.93228"
       y="352.21072"
       width="93.659676"
       height="32.47094"
       id="rect2-7-7-0-7-9-0-8-3-0" />
    <rect
       x="503.93228"
       y="352.21072"
       width="93.659676"
       height="32.47094"
       id="rect2-7-7-0-7-9-0-8-9" />
    <rect
       x="503.93228"
       y="352.21072"
       width="120.85421"
       height="37.807226"
       id="rect2-7-7-0-7-9-0-8-3-0-3" />
    <clipPath
       clipPathUnits="userSpaceOnUse"
       id="clipPath1">
      <path
         style="display:block;fill:#755946;fill-opacity:1;stroke-width:0.554387"
         d="m 87.892501,-53.926875 c 9.020297,-8.611809 13.304949,-12.335835 15.109009,-12.335835 1.80406,0 2.92657,2.219859 6.53973,2.094764 3.89286,-0.134776 7.6667,-2.11968 7.6667,-2.11968 0,0 4.58391,1.23386 6.65877,3.564895 l 8.45077,9.49411 c 0,0 -10.14783,12.801341 -20.97219,13.034092 -10.82437,0.232751 -23.452789,-13.732346 -23.452789,-13.732346 z"
         id="path1"
         sodipodi:nodetypes="csscscsc" />
    </clipPath>
    <inkscape:path-effect
       effect="powerclip"
       id="path-effect1"
       is_visible="true"
       lpeversion="1"
       inverse="true"
       flatten="false"
       hide_clip="false"
       message="Use fill-rule evenodd on &lt;b&gt;fill and stroke&lt;/b&gt; dialog if no flatten result after convert clip to paths." />
    <rect
       x="503.93228"
       y="352.21072"
       width="120.85421"
       height="37.807224"
       id="rect2-7-7-0-7-9-0-8-3-0-3-7" />
  </defs>
  <g
     inkscape:label="Layer 1"
     inkscape:groupmode="layer"
     id="layer1">
    <path
       d="m 516.56405,372.08421 q 0,1.96619 -1.63206,3.22557 -1.61921,1.25939 -4.43355,1.25939 -1.59351,0 -2.93,-0.37268 -1.32364,-0.38552 -2.2232,-0.8353 v -2.71154 h 0.12851 q 1.14372,0.86101 2.54447,1.37504 1.40075,0.50119 2.68583,0.50119 1.59351,0 2.49307,-0.51404 0.89957,-0.51403 0.89957,-1.61921 0,-0.84816 -0.48834,-1.28509 -0.48833,-0.43693 -1.87623,-0.74535 -0.51403,-0.11565 -1.34934,-0.26987 -0.82245,-0.15421 -1.50355,-0.33412 -1.88908,-0.50118 -2.68583,-1.465 -0.78391,-0.97667 -0.78391,-2.39026 0,-0.88671 0.35983,-1.67062 0.37267,-0.7839 1.11802,-1.40074 0.71965,-0.60399 1.82483,-0.95097 1.11802,-0.35982 2.49307,-0.35982 1.28509,0 2.59588,0.32127 1.32364,0.30842 2.1975,0.7582 v 2.58303 h -0.12851 q -0.92527,-0.6811 -2.24891,-1.14373 -1.32364,-0.47548 -2.59587,-0.47548 -1.32364,0 -2.23606,0.51403 -0.91241,0.50119 -0.91241,1.50356 0,0.88671 0.55259,1.33649 0.53974,0.44978 1.74772,0.7325 0.66824,0.15421 1.4907,0.30842 0.83531,0.15421 1.38789,0.28272 1.68347,0.38552 2.59588,1.32364 0.91241,0.95096 0.91241,2.51877 z m 15.69093,-3.03281 q 0,3.50829 -1.79913,5.53873 -1.79912,2.03044 -4.81908,2.03044 -3.04565,0 -4.84478,-2.03044 -1.78627,-2.03044 -1.78627,-5.53873 0,-3.50829 1.78627,-5.53873 1.79913,-2.04328 4.84478,-2.04328 3.01996,0 4.81908,2.04328 1.79913,2.03044 1.79913,5.53873 z m -2.49307,0 q 0,-2.78864 -1.09233,-4.13798 -1.09232,-1.36219 -3.03281,-1.36219 -1.96618,0 -3.0585,1.36219 -1.07948,1.34934 -1.07948,4.13798 0,2.69869 1.09233,4.09943 1.09232,1.3879 3.04565,1.3879 1.92764,0 3.01996,-1.37505 1.10518,-1.38789 1.10518,-4.11228 z m 18.23539,7.17079 h -2.41596 v -8.17315 q 0,-0.98952 -0.11566,-1.85053 -0.11566,-0.87386 -0.42408,-1.36219 -0.32127,-0.53974 -0.92526,-0.79676 -0.60399,-0.26987 -1.56781,-0.26987 -0.98952,0 -2.06899,0.48834 -1.07947,0.48833 -2.06899,1.24653 v 10.71763 h -2.41597 v -14.35443 h 2.41597 v 1.59351 q 1.13088,-0.93811 2.33886,-1.465 1.20798,-0.52688 2.48022,-0.52688 2.32601,0 3.54684,1.40074 1.22083,1.40075 1.22083,4.03518 z"
       id="text2-6-3-9-6-8-4-8"
       style="font-size:26.3186px;white-space:pre;fill:#0f0f0f;stroke:#000000;stroke-width:0"
       transform="matrix(0.35777471,0,0,0.35777471,-135.51299,-81.884528)"
       aria-label="son" />
    <rect
       style="fill:#000000;fill-opacity:1;stroke:#ea75b3;stroke-width:0"
       id="rect1"
       width="4.8661389"
       height="0.72323298"
       x="50.049438"
       y="-54.41745"
       ry="0.36161649"
       transform="scale(1,-1)" />
    <path
       id="path45-6"
       d="M 76.823124,13.506363 C 73.699469,10.698113 72.825522,6.2673783 69.317995,4.9561225 63.724476,2.8637787 58.124138,2.7296986 52.407851,2.7296986 c -2.15224,0 -4.234355,0.4834028 -6.338858,0.63718 -0.919753,0.067639 -2.297429,-0.5695412 -3.367212,-0.5695412 l 0.236753,-0.067639 C 40.710282,2.488606 38.080626,4.352163 35.920568,5.0914412 c -1.873604,0.6408552 -2.68714,4.5832528 -4.519827,5.3704938 -2.704687,1.163652 -5.614958,5.687876 -7.231333,11.213365 -0.744375,2.542567 3.001852,2.50565 4.635775,5.660807 3.29707,6.368084 7.650284,11.126008 12.832637,12.721426 7.715569,2.375266 15.530522,2.249796 23.187626,-0.09227 1.715774,-0.525233 3.599108,-0.977893 5.076167,-2.521652 1.01328,-1.059076 1.713811,-2.708608 2.601412,-4.002645 1.192551,-1.739325 4.746834,-4.238844 5.715306,-6.320121 1.56962,-3.367942 2.457206,-3.285541 3.679979,-6.887185 0.760924,-2.242425 -3.224984,-5.065458 -5.075186,-6.727296"
       style="display:inline;fill:#755946;fill-opacity:1;fill-rule:nonzero;stroke:none;stroke-width:0.0109474" />
    <path
       id="path46-0"
       d="m 75.426935,10.302026 c 0,0 -1.934996,-2.8353181 -2.378297,-2.9743122 C 72.605318,7.187481 53.015836,3.968381 53.015836,3.968381 c 0,0 -19.589498,3.2191 -20.032816,3.3593328 -0.443302,0.1389941 -2.21656,5.2991592 -2.21656,5.2991592 0,0 -3.21522,3.096086 -2.438693,3.936245 0.775545,0.840138 2.237018,0.396067 10.418311,-0.350582 9.975957,-0.909016 19.286479,-1.188243 28.375831,-0.279227 8.177385,0.818004 9.805454,1.469947 10.581981,0.629809 0.775561,-0.840159 -2.276955,-6.261092 -2.276955,-6.261092"
       style="display:inline;fill:#ffffff;fill-opacity:1;fill-rule:nonzero;stroke:none;stroke-width:0.0109474" />
    <path
       id="path47-5"
       d="m 75.426935,10.302026 c 0,0 -1.934996,-3.3765525 -2.378297,-3.4724981 C 72.605318,6.7335824 53.015836,4.528053 53.015836,4.528053 c 0,0 -19.589498,2.2055294 -20.032816,2.3014749 -0.443302,0.095946 -1.962258,2.8316427 -1.962258,2.8316427 0,0 -3.469522,2.9214144 -2.692995,3.4958704 0.775545,0.575673 1.826832,0.296446 9.919455,-1.281752 10.142586,-1.9767218 20.620326,-1.9767218 29.871402,0 8.075092,1.725802 8.808739,1.857425 9.585266,1.281752 0.775561,-0.574456 -2.276955,-2.855015 -2.276955,-2.855015"
       style="display:inline;fill:#dbdbdb;fill-opacity:1;fill-rule:nonzero;stroke:none;stroke-width:0.0109474" />
    <path
       id="path48-9"
       d="M 81.983071,21.986508 C 79.393351,17.167077 72.290623,8.8050316 67.814641,7.0989063 62.277624,4.9868862 43.057394,5.8393294 37.872115,7.8996913 33.390278,9.6796082 26.386932,17.561926 23.881009,22.407186 c 0,0 -0.9217,-1.949654 -0.80186,-2.190767 2.963863,-5.922794 8.423902,-13.449616 13.143458,-16.8027961 6.498651,-4.6164735 27.185227,-4.4331921 33.368201,-0.1599093 4.785805,3.307654 12.027867,13.4299404 13.265244,16.7302234 0.03508,0.09349 -0.872981,2.002571 -0.872981,2.002571"
       style="display:inline;fill:#ef615b;fill-opacity:1;fill-rule:nonzero;stroke:none;stroke-width:0.0109474" />
    <path
       id="path50-8"
       d="m 73.524107,31.340658 c 0,0 0.294238,-0.46129 -5.025502,-0.321057 -4.513989,0.118079 -26.58699,0.0984 -30.370243,0 -5.32072,-0.140233 -6.473319,0 -6.473319,0 l 3.299104,3.524525 18.002243,9.257168 v 0.005 l 0.02243,-0.0025 1.194497,0.107032 -0.0058,-0.230025 16.628117,-8.54919 2.72852,-3.790931"
       style="display:inline;fill:#ffffff;fill-opacity:1;fill-rule:nonzero;stroke:none;stroke-width:0.0109474"
       sodipodi:nodetypes="cccccccccccc" />
    <path
       id="path51-3"
       d="M 82.142847,18.687443 C 79.567747,23.51918 71.799568,31.95256 67.328459,33.682058 61.798262,35.819927 43.374052,35.721525 38.181954,33.685758 33.695243,31.926756 26.347961,23.663113 23.827417,18.82892 c 0,0 -1.08733,1.773764 -0.966509,2.013617 2.982359,5.909292 7.862688,15.244317 12.591991,18.574125 6.512291,4.58573 17.330076,5.094983 17.330076,5.094983 v -0.07873 c 1.081476,-0.05781 11.083746,-0.7036 17.254063,-5.006408 4.775093,-3.331047 11.716098,-15.989727 12.943728,-19.296183 0.03507,-0.09349 -0.837919,-1.442879 -0.837919,-1.442879"
       style="display:inline;fill:#ef615b;fill-opacity:1;fill-rule:nonzero;stroke:none;stroke-width:0.0109474" />
  </g>
</svg>
