<?xml version="1.0" encoding="UTF-8" standalone="no"?>
<!-- Created with Inkscape (http://www.inkscape.org/) -->

<svg
   width="400"
   height="300"
   viewBox="0 0 105.83333 79.375"
   version="1.1"
   id="svg1"
   inkscape:version="1.3.2 (091e20e, 2023-11-25, custom)"
   sodipodi:docname="Mou_V_v.svg"
   xmlns:inkscape="http://www.inkscape.org/namespaces/inkscape"
   xmlns:sodipodi="http://sodipodi.sourceforge.net/DTD/sodipodi-0.dtd"
   xmlns="http://www.w3.org/2000/svg"
   xmlns:svg="http://www.w3.org/2000/svg">
  <sodipodi:namedview
     id="namedview1"
     pagecolor="#ffffff"
     bordercolor="#000000"
     borderopacity="0.25"
     inkscape:showpageshadow="2"
     inkscape:pageopacity="0.0"
     inkscape:pagecheckerboard="0"
     inkscape:deskcolor="#d1d1d1"
     inkscape:document-units="mm"
     inkscape:zoom="1.8015947"
     inkscape:cx="164.29889"
     inkscape:cy="126.27701"
     inkscape:window-width="1536"
     inkscape:window-height="953"
     inkscape:window-x="-8"
     inkscape:window-y="-8"
     inkscape:window-maximized="1"
     inkscape:current-layer="layer1" />
  <defs
     id="defs1">
    <rect
       x="503.93228"
       y="352.21072"
       width="93.659676"
       height="32.47094"
       id="rect2-7-77-5-8-3" />
    <rect
       x="503.93228"
       y="352.21072"
       width="93.659676"
       height="32.47094"
       id="rect2-7-7-0-7-9-0-8" />
    <rect
       x="503.93228"
       y="352.21072"
       width="93.659676"
       height="32.47094"
       id="rect2-7-7-0-7-9-0-8-3" />
    <rect
       x="503.93228"
       y="352.21072"
       width="93.659676"
       height="32.47094"
       id="rect2-7-7-0-7-9-0-8-3-0" />
    <rect
       x="503.93228"
       y="352.21072"
       width="93.659676"
       height="32.47094"
       id="rect2-7-7-0-7-9-0-8-9" />
    <rect
       x="503.93228"
       y="352.21072"
       width="93.659676"
       height="32.47094"
       id="rect2-7-7-0-7-9-0-8-3-0-3" />
    <rect
       x="503.93228"
       y="352.21072"
       width="93.659676"
       height="32.47094"
       id="rect2-7-7-0-7-9-0-8-3-0-3-3" />
    <rect
       x="503.93228"
       y="352.21072"
       width="93.659676"
       height="32.47094"
       id="rect2-7-7-0-7-9-0-8-3-0-3-9" />
    <rect
       x="503.93228"
       y="352.21072"
       width="93.659676"
       height="32.47094"
       id="rect2-7-7-0-7-9-0-8-3-0-3-4" />
    <rect
       x="503.93228"
       y="352.21072"
       width="93.659676"
       height="32.47094"
       id="rect2-7-7-0-7-9-0-8-3-0-3-6" />
    <rect
       x="503.93228"
       y="352.21072"
       width="93.659676"
       height="32.47094"
       id="rect2-7-7-0-7-9-0-8-3-0-3-2" />
    <rect
       x="503.93228"
       y="352.21072"
       width="93.659676"
       height="32.47094"
       id="rect2-7-7-0-7-9-0-8-3-0-3-0" />
    <rect
       x="503.93228"
       y="352.21072"
       width="93.659676"
       height="32.47094"
       id="rect2-7-7-0-7-9-0-8-3-0-3-8" />
    <rect
       x="503.93228"
       y="352.21072"
       width="93.659676"
       height="32.47094"
       id="rect2-7-7-0-7-9-0-8-3-0-3-5" />
    <rect
       x="503.93228"
       y="352.21072"
       width="118.69917"
       height="34.933841"
       id="rect2-7-7-0-7-9-0-8-3-0-3-98" />
    <rect
       x="503.93228"
       y="352.21072"
       width="93.659676"
       height="32.47094"
       id="rect2-7-7-0-7-9-0-8-3-0-3-24" />
    <rect
       x="503.93228"
       y="352.21072"
       width="93.659676"
       height="32.47094"
       id="rect2-7-7-0-7-9-0-8-3-0-3-24-0" />
    <rect
       x="503.93228"
       y="352.21072"
       width="93.659676"
       height="32.47094"
       id="rect2-7-7-0-7-9-0-8-3-0-3-24-7" />
    <rect
       x="503.93228"
       y="352.21072"
       width="93.659676"
       height="32.47094"
       id="rect2-7-7-0-7-9-0-8-3-0-3-24-8" />
    <rect
       x="503.93228"
       y="352.21072"
       width="93.659676"
       height="32.47094"
       id="rect2-7-7-0-7-9-0-8-3-0-3-24-9" />
  </defs>
  <g
     inkscape:label="Layer 1"
     inkscape:groupmode="layer"
     id="layer1">
    <g
       id="g61"
       transform="matrix(0.19626597,0,0,0.19626597,16.947562,-105.57186)">
      <path
         id="path40-2"
         d="m 278.54948,557.02159 c -35.4602,-8.95443 -72.6602,-13.1427 -110.6525,-13.1427 -41.835,0 -84.379,11.6771 -119.3924,35.29942 -23.0504,15.55557 -53.0713,53.48234 -53.0713,53.48234 1.1081,21.24519 75.1148,11.45072 89.0201,11.46263 69.7945,0.0774 141.3347,2.27585 211.302,0 18.88,-0.61364 58.4392,4.84958 72.684,-5.55854 13.5896,-9.9315 -58.4808,-73.60748 -89.8899,-81.54315"
         style="display:inline;fill:#755946;fill-opacity:1;fill-rule:nonzero;stroke:none;stroke-width:0.0595771" />
      <path
         id="path41-3"
         d="m 378.80588,638.46346 c 1.1498,9.00805 -33.0415,13.42867 -87.8286,11.31964 -71.2125,-2.74054 -125.9936,-4.92702 -208.7104,-0.54811 -53.0772,2.81204 -92.8628,-2.25797 -94.5548,-11.17666 -1.6979,-8.91273 388.9013,-16.75903 391.0938,0.40513"
         style="display:inline;fill:#ef615b;fill-opacity:1;fill-rule:nonzero;stroke:none;stroke-width:0.0595771" />
      <path
         id="path42-0"
         d="m 331.16798,601.01926 c 0,0 -22.8061,-20.31578 -25.6777,-21.03666 -2.8716,-0.71493 -123.7773,-18.79061 -123.7773,-18.79061 0,0 -126.2141,19.80342 -129.0857,20.5243 -2.8716,0.71493 -20.4588,19.15403 -20.4588,19.15403 0,0 -8.7399,25.64198 -3.7176,29.9494 5.0224,4.30742 7.7867,3.82485 60.7686,0 64.5995,-4.66489 122.2522,-5.85643 181.1144,-1.19154 52.9521,4.19422 58.7251,3.11588 63.7474,-1.19154 5.0224,-4.30743 -2.9133,-27.41738 -2.9133,-27.41738"
         style="display:inline;fill:#ffffff;fill-opacity:1;fill-rule:nonzero;stroke:none;stroke-width:0.0595771" />
      <path
         id="path43-4"
         d="m 329.31518,592.55932 c 0,0 -23.2649,-12.18351 -26.1365,-12.67205 -2.8716,-0.49449 -120.4887,-16.74711 -120.4887,-16.74711 0,0 -115.2518,12.03457 -117.7898,13.45846 -9.0438,5.07001 -30.7895,16.09177 -30.7895,16.09177 0,0 -8.6386,23.23506 -5.9577,24.4266 0,0 6.488,-8.19781 58.9039,-16.28837 65.6778,-10.14598 133.5301,-10.14598 193.4408,0 52.2908,8.84719 53.8696,11.2124 53.8696,11.2124 l -5.0521,-19.4817"
         style="display:inline;fill:#dbdbdb;fill-opacity:1;fill-rule:nonzero;stroke:none;stroke-width:0.0595771" />
      <path
         id="path44-4"
         d="m 371.61488,642.73514 c -16.7769,-24.71854 -64.2539,-53.89343 -93.2381,-62.65126 -35.8595,-10.83112 -161.9782,-8.92465 -195.5558,1.64433 -29.02,9.13316 -70.2652,30.43793 -86.494,55.29348 0,0 -8.9962,2.44862 -8.6149,1.03664 9.1272,-33.95893 54.6918,-64.60538 85.2489,-81.80528 42.0852,-23.67594 176.0502,-24.3849 216.0979,-2.46054 30.9861,16.9616 83.9203,60.11923 89.7648,84.58754 0.1251,0.51832 -7.2088,4.35509 -7.2088,4.35509"
         style="display:inline;fill:#ef615b;fill-opacity:1;fill-rule:nonzero;stroke:none;stroke-width:0.0595771" />
    </g>
    <g
       id="g43"
       transform="matrix(0.94047631,0,0,0.94047631,-180.78112,-75.305243)">
      <g
         id="g3"
         transform="translate(-0.60117365,-2.6458334)">
        <g
           id="g4"
           transform="translate(25.491911)">
          <g
             id="g5"
             transform="translate(-2.5191349)">
            <g
               id="g6"
               transform="translate(10.996074)">
              <g
                 id="g7"
                 transform="translate(-0.55361053)">
                <g
                   id="g60"
                   transform="translate(6.5118517)">
                  <g
                     id="g59"
                     transform="translate(-10.478233)">
                    <path
                       d="m 518.723,361.86776 -5.8086,14.35443 h -2.42881 l -5.77005,-14.35443 h 2.62158 l 4.44641,11.42443 4.40785,-11.42443 z m 13.80185,14.35443 h -2.40312 v -1.52925 q -0.32127,0.21846 -0.87386,0.61684 -0.53974,0.38553 -1.05377,0.61684 -0.60399,0.29557 -1.3879,0.48834 -0.7839,0.20561 -1.83767,0.20561 -1.94048,0 -3.28983,-1.28509 -1.34934,-1.28508 -1.34934,-3.27697 0,-1.63206 0.69395,-2.63443 0.7068,-1.01522 2.00474,-1.59351 1.31079,-0.57829 3.14846,-0.7839 1.83768,-0.20562 3.94522,-0.30842 v -0.37268 q 0,-0.82246 -0.29557,-1.36219 -0.28272,-0.53974 -0.82246,-0.84816 -0.51403,-0.29557 -1.23368,-0.39838 -0.71965,-0.10281 -1.50355,-0.10281 -0.95097,0 -2.1204,0.25702 -1.16943,0.24417 -2.41596,0.71965 h -0.12851 v -2.45452 q 0.7068,-0.19276 2.04329,-0.42408 1.33649,-0.23131 2.63443,-0.23131 1.5164,0 2.63443,0.25702 1.13088,0.24416 1.95333,0.84815 0.80961,0.59114 1.23369,1.52926 0.42408,0.93811 0.42408,2.32601 z m -2.40312,-3.53399 v -3.99662 q -1.10517,0.0643 -2.60873,0.19276 -1.4907,0.12851 -2.36456,0.37268 -1.04092,0.29557 -1.68346,0.92526 -0.64255,0.61684 -0.64255,1.70917 0,1.23368 0.74535,1.86338 0.74535,0.61684 2.27461,0.61684 1.27224,0 2.32601,-0.48834 1.05377,-0.50118 1.95333,-1.19513 z m 17.31013,-0.60399 q 0,1.96619 -1.63206,3.22557 -1.61921,1.25939 -4.43355,1.25939 -1.59351,0 -2.93,-0.37268 -1.32364,-0.38552 -2.2232,-0.8353 v -2.71154 h 0.12851 q 1.14372,0.86101 2.54447,1.37504 1.40075,0.50119 2.68583,0.50119 1.59351,0 2.49307,-0.51404 0.89957,-0.51403 0.89957,-1.61921 0,-0.84816 -0.48834,-1.28509 -0.48833,-0.43693 -1.87623,-0.74535 -0.51403,-0.11565 -1.34934,-0.26987 -0.82246,-0.15421 -1.50355,-0.33412 -1.88908,-0.50118 -2.68584,-1.465 -0.7839,-0.97667 -0.7839,-2.39026 0,-0.88671 0.35983,-1.67062 0.37267,-0.7839 1.11802,-1.40074 0.71965,-0.60399 1.82483,-0.95097 1.11802,-0.35982 2.49307,-0.35982 1.28509,0 2.59587,0.32127 1.32365,0.30842 2.19751,0.7582 v 2.58303 h -0.12851 q -0.92527,-0.6811 -2.24891,-1.14373 -1.32364,-0.47548 -2.59588,-0.47548 -1.32364,0 -2.23605,0.51403 -0.91241,0.50119 -0.91241,1.50356 0,0.88671 0.55259,1.33649 0.53973,0.44978 1.74772,0.7325 0.66824,0.15421 1.4907,0.30842 0.83531,0.15421 1.38789,0.28272 1.68347,0.38552 2.59588,1.32364 0.91241,0.95096 0.91241,2.51877 z m 10.9104,4.00948 q -0.6811,0.17991 -1.4907,0.29557 -0.79676,0.11565 -1.42645,0.11565 -2.1975,0 -3.34123,-1.18228 -1.14373,-1.18228 -1.14373,-3.79101 v -7.63342 h -1.63206 v -2.03044 h 1.63206 v -4.12513 h 2.41597 v 4.12513 h 4.98614 v 2.03044 h -4.98614 v 6.5411 q 0,1.13088 0.0514,1.77342 0.0514,0.62969 0.35983,1.18228 0.28272,0.51404 0.77105,0.7582 0.50118,0.23132 1.5164,0.23132 0.59114,0 1.23369,-0.16706 0.64254,-0.17992 0.92526,-0.29557 h 0.12851 z"
                       id="text2-6-3-9-6-8-4-8"
                       style="font-size:26.3186px;white-space:pre;fill:#0f0f0f;stroke:#000000;stroke-width:0"
                       transform="matrix(0.38041863,0,0,0.38041863,15.68008,-20.104295)"
                       aria-label="vast" />
                    <path
                       id="rect1"
                       style="stroke:#ea75b3;stroke-width:0"
                       d="m 207.67119,124.05537 h 4.7821 c 0.21302,0 0.38451,0.17149 0.38451,0.3845 0,0.21302 -0.17149,0.3845 -0.38451,0.3845 h -4.7821 c -0.21302,0 -0.38451,-0.17148 -0.38451,-0.3845 0,-0.21301 0.17149,-0.3845 0.38451,-0.3845 z" />
                  </g>
                </g>
              </g>
            </g>
          </g>
        </g>
      </g>
    </g>
  </g>
</svg>
