<?xml version="1.0" encoding="UTF-8" standalone="no"?>
<!-- Created with Inkscape (http://www.inkscape.org/) -->

<svg
   width="400"
   height="300"
   viewBox="0 0 105.83333 79.375"
   version="1.1"
   id="svg1"
   inkscape:version="1.3.2 (091e20e, 2023-11-25, custom)"
   sodipodi:docname="Mou_OR_a.svg"
   xmlns:inkscape="http://www.inkscape.org/namespaces/inkscape"
   xmlns:sodipodi="http://sodipodi.sourceforge.net/DTD/sodipodi-0.dtd"
   xmlns="http://www.w3.org/2000/svg"
   xmlns:svg="http://www.w3.org/2000/svg">
  <sodipodi:namedview
     id="namedview1"
     pagecolor="#ffffff"
     bordercolor="#000000"
     borderopacity="0.25"
     inkscape:showpageshadow="2"
     inkscape:pageopacity="0.0"
     inkscape:pagecheckerboard="0"
     inkscape:deskcolor="#d1d1d1"
     inkscape:document-units="mm"
     inkscape:zoom="7.2063788"
     inkscape:cx="198.01901"
     inkscape:cy="157.01367"
     inkscape:window-width="1536"
     inkscape:window-height="953"
     inkscape:window-x="-8"
     inkscape:window-y="-8"
     inkscape:window-maximized="1"
     inkscape:current-layer="g3" />
  <defs
     id="defs1">
    <rect
       x="503.93228"
       y="352.21072"
       width="93.659676"
       height="32.47094"
       id="rect2-7-77-5-8-3" />
    <rect
       x="503.93228"
       y="352.21072"
       width="93.659676"
       height="32.47094"
       id="rect2-7-7-0-7-9-0-8" />
    <rect
       x="503.93228"
       y="352.21072"
       width="93.659676"
       height="32.47094"
       id="rect2-7-7-0-7-9-0-8-3" />
    <rect
       x="503.93228"
       y="352.21072"
       width="93.659676"
       height="32.47094"
       id="rect2-7-7-0-7-9-0-8-3-0" />
    <rect
       x="503.93228"
       y="352.21072"
       width="93.659676"
       height="32.47094"
       id="rect2-7-7-0-7-9-0-8-9" />
    <rect
       x="503.93228"
       y="352.21072"
       width="93.659676"
       height="32.47094"
       id="rect2-7-7-0-7-9-0-8-3-0-3" />
  </defs>
  <g
     inkscape:label="Layer 1"
     inkscape:groupmode="layer"
     id="layer1">
    <g
       id="g43"
       transform="matrix(0.94047631,0,0,0.94047631,-180.78112,-64.721903)">
      <g
         id="g3"
         transform="translate(-0.60117365,-2.6458334)">
        <path
           d="m 524.36454,361.86776 -3.73961,14.35443 h -2.23605 l -3.6882,-11.0646 -3.6625,11.0646 h -2.22321 l -3.77815,-14.35443 h 2.51877 l 2.63443,11.11601 3.58539,-11.11601 h 1.99189 l 3.67535,11.11601 2.49307,-11.11601 z m 14.38013,14.35443 h -2.40311 v -1.52925 q -0.32127,0.21846 -0.87386,0.61684 -0.53974,0.38553 -1.05377,0.61684 -0.604,0.29557 -1.3879,0.48834 -0.7839,0.20561 -1.83768,0.20561 -1.94048,0 -3.28982,-1.28509 -1.34934,-1.28508 -1.34934,-3.27697 0,-1.63206 0.69394,-2.63443 0.7068,-1.01522 2.00474,-1.59351 1.31079,-0.57829 3.14847,-0.7839 1.83767,-0.20562 3.94522,-0.30842 v -0.37268 q 0,-0.82246 -0.29557,-1.36219 -0.28272,-0.53974 -0.82246,-0.84816 -0.51403,-0.29557 -1.23368,-0.39838 -0.71965,-0.10281 -1.50356,-0.10281 -0.95096,0 -2.12039,0.25702 -1.16943,0.24417 -2.41597,0.71965 h -0.12851 v -2.45452 q 0.7068,-0.19276 2.04329,-0.42408 1.3365,-0.23131 2.63443,-0.23131 1.51641,0 2.63443,0.25702 1.13088,0.24416 1.95334,0.84815 0.8096,0.59114 1.23368,1.52926 0.42408,0.93811 0.42408,2.32601 z m -2.40311,-3.53399 v -3.99662 q -1.10518,0.0643 -2.60873,0.19276 -1.4907,0.12851 -2.36456,0.37268 -1.04092,0.29557 -1.68347,0.92526 -0.64254,0.61684 -0.64254,1.70917 0,1.23368 0.74535,1.86338 0.74535,0.61684 2.2746,0.61684 1.27224,0 2.32601,-0.48834 1.05378,-0.50118 1.95334,-1.19513 z m 14.50864,3.40549 q -0.6811,0.17991 -1.4907,0.29557 -0.79676,0.11565 -1.42645,0.11565 -2.1975,0 -3.34123,-1.18228 -1.14373,-1.18228 -1.14373,-3.79101 v -7.63342 h -1.63206 v -2.03044 h 1.63206 v -4.12513 h 2.41597 v 4.12513 h 4.98614 v 2.03044 h -4.98614 v 6.5411 q 0,1.13088 0.0514,1.77342 0.0514,0.62969 0.35983,1.18228 0.28271,0.51404 0.77105,0.7582 0.50118,0.23132 1.5164,0.23132 0.59114,0 1.23369,-0.16706 0.64254,-0.17992 0.92526,-0.29557 h 0.12851 z m 14.93272,-6.79812 h -10.57627 q 0,1.32364 0.39837,2.31316 0.39838,0.97667 1.09233,1.60636 0.66824,0.61684 1.58066,0.92526 0.92526,0.30842 2.03043,0.30842 1.465,0 2.94286,-0.57829 1.4907,-0.59114 2.12039,-1.15658 h 0.12851 v 2.63443 q -1.22083,0.51404 -2.49307,0.86101 -1.27224,0.34698 -2.67298,0.34698 -3.57255,0 -5.57729,-1.92764 -2.00473,-1.94048 -2.00473,-5.50017 0,-3.52114 1.91478,-5.59013 1.92763,-2.06899 5.06324,-2.06899 2.9043,0 4.47211,1.69631 1.58066,1.69632 1.58066,4.81908 z m -2.35171,-1.85053 q -0.0128,-1.90193 -0.96382,-2.94285 -0.93811,-1.04092 -2.86574,-1.04092 -1.94049,0 -3.09707,1.14373 -1.14372,1.14373 -1.29793,2.84004 z m 14.97127,-2.94285 h -0.12851 q -0.53973,-0.12851 -1.05377,-0.17991 -0.50118,-0.0642 -1.19513,-0.0642 -1.11803,0 -2.15895,0.50118 -1.04092,0.48833 -2.00473,1.27224 v 10.19074 h -2.41597 v -14.35443 h 2.41597 v 2.1204 q 1.43929,-1.15658 2.53162,-1.63206 1.10517,-0.48834 2.2489,-0.48834 0.6297,0 0.91242,0.0386 0.28271,0.0257 0.84815,0.11566 z"
           id="text2-6-3-9-6-8-4-8"
           style="font-size:26.3186px;white-space:pre;fill:#0f0f0f;stroke:#000000;stroke-width:0"
           transform="matrix(0.38041863,0,0,0.38041863,43.009681,-25.168217)"
           aria-label="water" />
        <rect
           style="fill:#000000;fill-opacity:1;stroke:#ea75b3;stroke-width:0"
           id="rect1"
           width="5.1216884"
           height="0.76900715"
           x="243.10635"
           y="-119.76043"
           ry="0.38450357"
           transform="scale(1,-1)" />
      </g>
    </g>
    <g
       id="g8"
       transform="translate(-0.001167)">
      <path
         style="fill:#ef615b;fill-opacity:1;stroke-width:0.461993"
         d="m 82.813987,-54.42903 c -0.287384,-2.540522 0.587906,-10.184026 5.171263,-14.422943 2.65693,-2.457274 9.964557,-7.480482 14.75437,-7.41182 4.7898,0.06867 5.07721,1.647908 7.28052,1.647908 2.20331,0 6.03517,-1.785233 9.10065,-1.785233 3.06549,0 11.41288,3.78084 14.46523,7.690231 2.47062,3.164343 3.73607,10.024765 3.83185,14.625171 0.0957,4.600406 -1.15567,11.872439 -7.84741,17.301766 -5.8624,4.756441 -11.50342,5.837589 -20.50827,6.180903 -9.00487,0.343314 -16.39139,-4.547792 -18.967677,-6.660289 -7.453864,-6.111998 -7.280526,-17.165694 -7.280526,-17.165694 z"
         id="path68-9-7"
         sodipodi:nodetypes="csssssssssc"
         clip-path="none"
         transform="matrix(0.81759777,0,0,0.71599848,-37.094588,54.703084)" />
      <path
         style="display:block;fill:#755946;fill-opacity:1;stroke-width:0.424169"
         d="m 38.795251,14.380204 c 4.47034,-3.445164 7.264354,-3.295309 8.739349,-3.295309 1.474995,0 3.518839,1.211483 6.462456,1.155069 2.919481,-0.05595 5.767936,-0.947683 5.767936,-0.947683 0,0 3.70289,-0.844639 5.946062,0.953768 l 2.572356,2.062322 c 0,0 -4.616424,5.330778 -15.008425,5.277137 -8.851432,-0.04569 -14.479734,-5.205304 -14.479734,-5.205304 z"
         id="path2"
         sodipodi:nodetypes="csscscsc" />
    </g>
  </g>
</svg>
