<?xml version="1.0" encoding="UTF-8" standalone="no"?>
<!-- Created with Inkscape (http://www.inkscape.org/) -->

<svg
   width="400"
   height="300"
   viewBox="0 0 105.83333 79.375"
   version="1.1"
   id="svg1"
   inkscape:version="1.3.2 (091e20e, 2023-11-25, custom)"
   sodipodi:docname="Mou_oos_oul.svg"
   xmlns:inkscape="http://www.inkscape.org/namespaces/inkscape"
   xmlns:sodipodi="http://sodipodi.sourceforge.net/DTD/sodipodi-0.dtd"
   xmlns="http://www.w3.org/2000/svg"
   xmlns:svg="http://www.w3.org/2000/svg">
  <sodipodi:namedview
     id="namedview1"
     pagecolor="#ffffff"
     bordercolor="#000000"
     borderopacity="0.25"
     inkscape:showpageshadow="2"
     inkscape:pageopacity="0.0"
     inkscape:pagecheckerboard="0"
     inkscape:deskcolor="#d1d1d1"
     inkscape:document-units="mm"
     inkscape:zoom="7.2063788"
     inkscape:cx="192.53776"
     inkscape:cy="157.01367"
     inkscape:window-width="1536"
     inkscape:window-height="953"
     inkscape:window-x="-8"
     inkscape:window-y="-8"
     inkscape:window-maximized="1"
     inkscape:current-layer="g3" />
  <defs
     id="defs1">
    <rect
       x="503.93228"
       y="352.21072"
       width="93.659676"
       height="32.47094"
       id="rect2-7-77-5-8-3" />
    <rect
       x="503.93228"
       y="352.21072"
       width="93.659676"
       height="32.47094"
       id="rect2-7-7-0-7-9-0-8" />
    <rect
       x="503.93228"
       y="352.21072"
       width="93.659676"
       height="32.47094"
       id="rect2-7-7-0-7-9-0-8-3" />
    <rect
       x="503.93228"
       y="352.21072"
       width="93.659676"
       height="32.47094"
       id="rect2-7-7-0-7-9-0-8-3-0" />
    <rect
       x="503.93228"
       y="352.21072"
       width="93.659676"
       height="32.47094"
       id="rect2-7-7-0-7-9-0-8-9" />
    <rect
       x="503.93228"
       y="352.21072"
       width="93.659676"
       height="32.47094"
       id="rect2-7-7-0-7-9-0-8-3-0-3" />
  </defs>
  <g
     inkscape:label="Layer 1"
     inkscape:groupmode="layer"
     id="layer1">
    <g
       id="g43"
       transform="matrix(0.94047631,0,0,0.94047631,-180.78112,-64.721903)">
      <g
         id="g3"
         transform="translate(-0.60117365,-2.6458334)">
        <path
           d="m 516.92388,375.32263 q -1.20798,0.57829 -2.30031,0.89956 -1.07947,0.32128 -2.30031,0.32128 -1.55495,0 -2.85289,-0.44978 -1.29794,-0.46264 -2.2232,-1.3879 -0.93812,-0.92526 -1.45215,-2.33886 -0.51404,-1.4136 -0.51404,-3.30268 0,-3.52114 1.92763,-5.52587 1.94049,-2.00474 5.11465,-2.00474 1.23369,0 2.41597,0.34697 1.19513,0.34698 2.18465,0.84816 v 2.68583 h -0.12851 q -1.10518,-0.861 -2.28746,-1.32364 -1.16943,-0.46263 -2.28745,-0.46263 -2.05614,0 -3.25127,1.3879 -1.18229,1.37504 -1.18229,4.04802 0,2.59588 1.15658,3.99663 1.16943,1.38789 3.27698,1.38789 0.7325,0 1.4907,-0.19276 0.7582,-0.19276 1.36219,-0.50118 0.52689,-0.26987 0.98952,-0.56544 0.46263,-0.30842 0.7325,-0.52689 h 0.12851 z m 15.3311,-6.27123 q 0,3.50829 -1.79913,5.53873 -1.79912,2.03044 -4.81908,2.03044 -3.04565,0 -4.84478,-2.03044 -1.78627,-2.03044 -1.78627,-5.53873 0,-3.50829 1.78627,-5.53873 1.79913,-2.04328 4.84478,-2.04328 3.01996,0 4.81908,2.04328 1.79913,2.03044 1.79913,5.53873 z m -2.49307,0 q 0,-2.78864 -1.09233,-4.13798 -1.09232,-1.36219 -3.03281,-1.36219 -1.96618,0 -3.0585,1.36219 -1.07948,1.34934 -1.07948,4.13798 0,2.69869 1.09233,4.09943 1.09232,1.3879 3.04565,1.3879 1.92764,0 3.01996,-1.37505 1.10518,-1.38789 1.10518,-4.11228 z m 18.13259,7.17079 h -2.41597 v -1.59351 q -1.22083,0.96382 -2.33886,1.47786 -1.11802,0.51403 -2.46737,0.51403 -2.26175,0 -3.52114,-1.37504 -1.25938,-1.3879 -1.25938,-4.06088 v -9.31689 h 2.41596 v 8.17316 q 0,1.09233 0.10281,1.87623 0.10281,0.77105 0.43693,1.32364 0.34697,0.56544 0.89956,0.82246 0.55259,0.25701 1.60636,0.25701 0.93811,0 2.04329,-0.48833 1.11803,-0.48833 2.08184,-1.24653 v -10.71764 h 2.41597 z m 7.19649,0 h -2.41596 v -19.99596 h 2.41596 z m 16.42342,0 h -2.41596 v -1.50355 q -1.04093,0.89956 -2.1718,1.40075 -1.13088,0.50118 -2.45452,0.50118 -2.57018,0 -4.08658,-1.97903 -1.50355,-1.97904 -1.50355,-5.48733 0,-1.82482 0.51403,-3.25127 0.52689,-1.42645 1.4136,-2.42882 0.87386,-0.97666 2.03044,-1.4907 1.16943,-0.51403 2.41596,-0.51403 1.13088,0 2.00474,0.24416 0.87386,0.23132 1.83768,0.7325 v -6.21982 h 2.41596 z m -2.41596,-3.53399 v -8.23741 q -0.97667,-0.43693 -1.74772,-0.60399 -0.77106,-0.16706 -1.68347,-0.16706 -2.03044,0 -3.16131,1.41359 -1.13088,1.4136 -1.13088,4.00948 0,2.55732 0.87386,3.89381 0.87386,1.32364 2.80149,1.32364 1.02807,0 2.08184,-0.44978 1.05377,-0.46263 1.96619,-1.18228 z"
           id="text2-6-3-9-6-8-4-8"
           style="font-size:26.3186px;white-space:pre;fill:#0f0f0f;stroke:#000000;stroke-width:0"
           transform="matrix(0.38041863,0,0,0.38041863,44.273414,-25.168217)"
           aria-label="could" />
        <rect
           style="fill:#000000;fill-opacity:1;stroke:#ea75b3;stroke-width:0"
           id="rect1"
           width="14.608141"
           height="0.76900715"
           x="241.82489"
           y="-119.76043"
           ry="0.38450357"
           transform="scale(1,-1)" />
      </g>
    </g>
    <g
       id="g8"
       transform="translate(-0.001167)">
      <path
         style="fill:#ef615b;fill-opacity:1;stroke-width:0.461993"
         d="m 82.813987,-54.42903 c -0.287384,-2.540522 0.587906,-10.184026 5.171263,-14.422943 2.65693,-2.457274 9.964557,-7.480482 14.75437,-7.41182 4.7898,0.06867 5.07721,1.647908 7.28052,1.647908 2.20331,0 6.03517,-1.785233 9.10065,-1.785233 3.06549,0 11.41288,3.78084 14.46523,7.690231 2.47062,3.164343 3.73607,10.024765 3.83185,14.625171 0.0957,4.600406 -1.15567,11.872439 -7.84741,17.301766 -5.8624,4.756441 -11.50342,5.837589 -20.50827,6.180903 -9.00487,0.343314 -16.39139,-4.547792 -18.967677,-6.660289 -7.453864,-6.111998 -7.280526,-17.165694 -7.280526,-17.165694 z"
         id="path68-9-7"
         sodipodi:nodetypes="csssssssssc"
         clip-path="none"
         transform="matrix(0.81759777,0,0,0.71599848,-37.094588,54.703084)" />
      <path
         style="display:block;fill:#755946;fill-opacity:1;stroke-width:0.424169"
         d="m 38.795251,14.380204 c 4.47034,-3.445164 7.264354,-3.295309 8.739349,-3.295309 1.474995,0 3.518839,1.211483 6.462456,1.155069 2.919481,-0.05595 5.767936,-0.947683 5.767936,-0.947683 0,0 3.70289,-0.844639 5.946062,0.953768 l 2.572356,2.062322 c 0,0 -4.616424,5.330778 -15.008425,5.277137 -8.851432,-0.04569 -14.479734,-5.205304 -14.479734,-5.205304 z"
         id="path2"
         sodipodi:nodetypes="csscscsc" />
    </g>
  </g>
</svg>
