<?xml version="1.0" encoding="UTF-8" standalone="no"?>
<!-- Created with Inkscape (http://www.inkscape.org/) -->

<svg
   width="400"
   height="300"
   viewBox="0 0 105.83333 79.375"
   version="1.1"
   id="svg1"
   inkscape:version="1.3.2 (091e20e, 2023-11-25, custom)"
   sodipodi:docname="Mou_O_o.svg"
   xmlns:inkscape="http://www.inkscape.org/namespaces/inkscape"
   xmlns:sodipodi="http://sodipodi.sourceforge.net/DTD/sodipodi-0.dtd"
   xmlns="http://www.w3.org/2000/svg"
   xmlns:svg="http://www.w3.org/2000/svg">
  <sodipodi:namedview
     id="namedview1"
     pagecolor="#ffffff"
     bordercolor="#000000"
     borderopacity="0.25"
     inkscape:showpageshadow="2"
     inkscape:pageopacity="0.0"
     inkscape:pagecheckerboard="0"
     inkscape:deskcolor="#d1d1d1"
     inkscape:document-units="mm"
     inkscape:zoom="7.2063788"
     inkscape:cx="204.95731"
     inkscape:cy="188.92984"
     inkscape:window-width="1536"
     inkscape:window-height="953"
     inkscape:window-x="-8"
     inkscape:window-y="-8"
     inkscape:window-maximized="1"
     inkscape:current-layer="layer1" />
  <defs
     id="defs1">
    <rect
       x="503.93228"
       y="352.21072"
       width="93.659676"
       height="32.47094"
       id="rect2-7-77-5-8-3" />
    <rect
       x="503.93228"
       y="352.21072"
       width="93.659676"
       height="32.47094"
       id="rect2-7-7-0-7-9-0-8" />
    <rect
       x="503.93228"
       y="352.21072"
       width="93.659676"
       height="32.47094"
       id="rect2-7-7-0-7-9-0-8-3" />
    <rect
       x="503.93228"
       y="352.21072"
       width="93.659676"
       height="32.47094"
       id="rect2-7-7-0-7-9-0-8-3-0" />
    <rect
       x="503.93228"
       y="352.21072"
       width="93.659676"
       height="32.47094"
       id="rect2-7-7-0-7-9-0-8-9" />
    <rect
       x="503.93228"
       y="352.21072"
       width="120.85421"
       height="37.807226"
       id="rect2-7-7-0-7-9-0-8-3-0-3" />
    <clipPath
       clipPathUnits="userSpaceOnUse"
       id="clipPath1">
      <path
         style="display:none;fill:#755946;fill-opacity:1;stroke-width:0.554387"
         d="m 87.892501,-53.926875 c 9.020297,-8.611809 13.304949,-12.335835 15.109009,-12.335835 1.80406,0 2.92657,2.219859 6.53973,2.094764 3.89286,-0.134776 7.6667,-2.11968 7.6667,-2.11968 0,0 4.58391,1.23386 6.65877,3.564895 l 8.45077,9.49411 c 0,0 -10.14783,12.801341 -20.97219,13.034092 -10.82437,0.232751 -23.452789,-13.732346 -23.452789,-13.732346 z"
         id="path1"
         sodipodi:nodetypes="csscscsc" />
      <path
         id="lpe_path-effect1"
         style="fill:#755946;fill-opacity:1;stroke-width:0.554387"
         class="powerclip"
         d="m 77.764743,-81.401118 h 64.655197 v 55.814889 H 77.764743 Z m 10.127758,27.474243 c 0,0 12.628419,13.965097 23.452789,13.732346 10.82436,-0.232751 20.97219,-13.034092 20.97219,-13.034092 l -8.45077,-9.49411 c -2.07486,-2.331035 -6.65877,-3.564895 -6.65877,-3.564895 0,0 -3.77384,1.984904 -7.6667,2.11968 -3.61316,0.125095 -4.73567,-2.094764 -6.53973,-2.094764 -1.80406,0 -6.088712,3.724026 -15.109009,12.335835 z" />
    </clipPath>
    <inkscape:path-effect
       effect="powerclip"
       id="path-effect1"
       is_visible="true"
       lpeversion="1"
       inverse="true"
       flatten="false"
       hide_clip="false"
       message="Use fill-rule evenodd on &lt;b&gt;fill and stroke&lt;/b&gt; dialog if no flatten result after convert clip to paths." />
    <rect
       x="503.93228"
       y="352.21072"
       width="120.85421"
       height="37.807224"
       id="rect2-7-7-0-7-9-0-8-3-0-3-7" />
  </defs>
  <g
     inkscape:label="Layer 1"
     inkscape:groupmode="layer"
     id="layer1">
    <g
       id="g2"
       transform="matrix(0.88148586,0,0,0.88148586,6.271374,5.492336)">
      <path
         style="fill:#755946;fill-opacity:1;stroke-width:0.637913"
         d="M 28.936326,18.989362 C 38.67453,8.4277501 43.300183,3.8605624 45.247824,3.8605624 c 1.947642,0 3.159501,2.7224597 7.060219,2.5690408 4.20269,-0.1652889 8.27688,-2.5995946 8.27688,-2.5995946 0,0 4.94874,1.5132186 7.18874,4.3720231 l 9.12335,11.6436763 c 0,0 -10.95548,15.699697 -22.64133,15.985148 C 42.569809,36.116304 28.936326,18.989362 28.936326,18.989362 Z"
         id="path67-71"
         sodipodi:nodetypes="csscscsc" />
      <path
         id="path36-2-2"
         d="m 70.31218,29.759292 c 0,0 -3.296694,0.73219 -6.736751,0.877894 -2.918967,0.125079 -17.191381,0.104433 -19.637435,0 -3.440056,-0.145704 -6.737353,-0.292631 -6.737353,-0.292631 l 7.030024,12.30757 9.295246,1.349044 v 0.0037 l 0.01427,-0.0024 0.772723,0.112913 -0.0036,-0.240415 9.250624,-1.534796 6.752218,-12.580799"
         style="display:inline;fill:#ffffff;fill-opacity:1;fill-rule:nonzero;stroke:none;stroke-width:0.00849881" />
      <path
         style="fill:#ef615b;fill-opacity:1;stroke-width:0.461993"
         d="m 82.813987,-54.42903 c -0.287384,-2.540522 0.587906,-10.184026 5.171263,-14.422943 2.65693,-2.457274 9.964557,-7.480482 14.75437,-7.41182 4.7898,0.06867 5.07721,1.647908 7.28052,1.647908 2.20331,0 6.03517,-1.785233 9.10065,-1.785233 3.06549,0 11.41288,3.78084 14.46523,7.690231 2.47062,3.164343 3.73607,10.024765 3.83185,14.625171 0.0957,4.600406 -3.13154,14.227409 -7.84741,17.301766 -6.36599,4.150089 -11.50342,5.837589 -20.50827,6.180903 -9.00487,0.343314 -16.290534,-4.660791 -18.967677,-6.660289 -4.579871,-3.420603 -7.280526,-17.165694 -7.280526,-17.165694 z"
         id="path68-9-7"
         sodipodi:nodetypes="csssssssssc"
         clip-path="url(#clipPath1)"
         inkscape:path-effect="#path-effect1"
         inkscape:original-d="m 82.813987,-54.42903 c -0.287384,-2.540522 0.587906,-10.184026 5.171263,-14.422943 2.65693,-2.457274 9.964557,-7.480482 14.75437,-7.41182 4.7898,0.06867 5.07721,1.647908 7.28052,1.647908 2.20331,0 6.03517,-1.785233 9.10065,-1.785233 3.06549,0 11.41288,3.78084 14.46523,7.690231 2.47062,3.164343 3.73607,10.024765 3.83185,14.625171 0.0957,4.600406 -3.13154,14.227409 -7.84741,17.301766 -6.36599,4.150089 -11.50342,5.837589 -20.50827,6.180903 -9.00487,0.343314 -16.290534,-4.660791 -18.967677,-6.660289 -4.579871,-3.420603 -7.280526,-17.165694 -7.280526,-17.165694 z"
         transform="matrix(0.93903388,0,0,1.1359988,-50.463774,80.560808)" />
    </g>
    <path
       d="m 517.95195,376.22219 h -2.41597 v -1.50355 q -1.04092,0.89956 -2.17179,1.40075 -1.13088,0.50118 -2.45452,0.50118 -2.57018,0 -4.08658,-1.97903 -1.50355,-1.97904 -1.50355,-5.48733 0,-1.82482 0.51403,-3.25127 0.52689,-1.42645 1.4136,-2.42882 0.87386,-0.97666 2.03044,-1.4907 1.16943,-0.51403 2.41596,-0.51403 1.13088,0 2.00474,0.24416 0.87386,0.23132 1.83767,0.7325 v -6.21982 h 2.41597 z m -2.41597,-3.53399 v -8.23741 q -0.97666,-0.43693 -1.74772,-0.60399 -0.77105,-0.16706 -1.68346,-0.16706 -2.03044,0 -3.16132,1.41359 -1.13087,1.4136 -1.13087,4.00948 0,2.55732 0.87386,3.89381 0.87386,1.32364 2.80149,1.32364 1.02807,0 2.08184,-0.44978 1.05377,-0.46263 1.96618,-1.18228 z m 19.40483,-3.6368 q 0,3.50829 -1.79912,5.53873 -1.79912,2.03044 -4.81908,2.03044 -3.04566,0 -4.84478,-2.03044 -1.78627,-2.03044 -1.78627,-5.53873 0,-3.50829 1.78627,-5.53873 1.79912,-2.04328 4.84478,-2.04328 3.01996,0 4.81908,2.04328 1.79912,2.03044 1.79912,5.53873 z m -2.49307,0 q 0,-2.78864 -1.09232,-4.13798 -1.09233,-1.36219 -3.03281,-1.36219 -1.96618,0 -3.05851,1.36219 -1.07947,1.34934 -1.07947,4.13798 0,2.69869 1.09232,4.09943 1.09233,1.3879 3.04566,1.3879 1.92763,0 3.01996,-1.37505 1.10517,-1.38789 1.10517,-4.11228 z m 13.68619,7.04229 q -0.6811,0.17991 -1.4907,0.29557 -0.79676,0.11565 -1.42645,0.11565 -2.1975,0 -3.34123,-1.18228 -1.14373,-1.18228 -1.14373,-3.79101 v -7.63342 h -1.63206 v -2.03044 h 1.63206 v -4.12513 h 2.41597 v 4.12513 h 4.98614 v 2.03044 h -4.98614 v 6.5411 q 0,1.13088 0.0514,1.77342 0.0514,0.62969 0.35982,1.18228 0.28272,0.51404 0.77106,0.7582 0.50118,0.23132 1.5164,0.23132 0.59114,0 1.23369,-0.16706 0.64254,-0.17992 0.92526,-0.29557 h 0.12851 z"
       id="text2-6-3-9-6-8-4-8"
       style="font-size:26.3186px;white-space:pre;fill:#0f0f0f;stroke:#000000;stroke-width:0"
       transform="matrix(0.35777471,0,0,0.35777471,-135.17506,-79.238693)"
       aria-label="dot" />
    <rect
       style="fill:#000000;fill-opacity:1;stroke:#ea75b3;stroke-width:0"
       id="rect1"
       width="4.3762436"
       height="0.72323298"
       x="51.806938"
       y="-57.063286"
       ry="0.36161649"
       transform="scale(1,-1)" />
  </g>
</svg>
