<?xml version="1.0" encoding="UTF-8" standalone="no"?>
<!-- Created with Inkscape (http://www.inkscape.org/) -->

<svg
   width="400"
   height="300"
   viewBox="0 0 105.83333 79.375"
   version="1.1"
   id="svg1"
   inkscape:version="1.3.2 (091e20e, 2023-11-25, custom)"
   sodipodi:docname="Mou_ER_ur.svg"
   xmlns:inkscape="http://www.inkscape.org/namespaces/inkscape"
   xmlns:sodipodi="http://sodipodi.sourceforge.net/DTD/sodipodi-0.dtd"
   xmlns="http://www.w3.org/2000/svg"
   xmlns:svg="http://www.w3.org/2000/svg">
  <sodipodi:namedview
     id="namedview1"
     pagecolor="#ffffff"
     bordercolor="#000000"
     borderopacity="0.25"
     inkscape:showpageshadow="2"
     inkscape:pageopacity="0.0"
     inkscape:pagecheckerboard="0"
     inkscape:deskcolor="#d1d1d1"
     inkscape:document-units="mm"
     inkscape:zoom="7.2063788"
     inkscape:cx="208.70399"
     inkscape:cy="147.30006"
     inkscape:window-width="1536"
     inkscape:window-height="953"
     inkscape:window-x="-8"
     inkscape:window-y="-8"
     inkscape:window-maximized="1"
     inkscape:current-layer="layer1" />
  <defs
     id="defs1">
    <inkscape:path-effect
       effect="powerclip"
       id="path-effect3"
       is_visible="true"
       lpeversion="1"
       inverse="true"
       flatten="false"
       hide_clip="false"
       message="Use fill-rule evenodd on &lt;b&gt;fill and stroke&lt;/b&gt; dialog if no flatten result after convert clip to paths." />
    <rect
       x="503.93228"
       y="352.21072"
       width="93.659676"
       height="32.47094"
       id="rect2-7-77-5-8-3" />
    <rect
       x="503.93228"
       y="352.21072"
       width="93.659676"
       height="32.47094"
       id="rect2-7-7-0-7-9-0-8" />
    <rect
       x="503.93228"
       y="352.21072"
       width="93.659676"
       height="32.47094"
       id="rect2-7-7-0-7-9-0-8-3" />
    <rect
       x="503.93228"
       y="352.21072"
       width="93.659676"
       height="32.47094"
       id="rect2-7-7-0-7-9-0-8-3-0" />
    <rect
       x="503.93228"
       y="352.21072"
       width="93.659676"
       height="32.47094"
       id="rect2-7-7-0-7-9-0-8-9" />
    <rect
       x="503.93228"
       y="352.21072"
       width="120.85421"
       height="37.807226"
       id="rect2-7-7-0-7-9-0-8-3-0-3" />
    <clipPath
       clipPathUnits="userSpaceOnUse"
       id="clipPath1">
      <path
         style="display:block;fill:#755946;fill-opacity:1;stroke-width:0.554387"
         d="m 87.892501,-53.926875 c 9.020297,-8.611809 13.304949,-12.335835 15.109009,-12.335835 1.80406,0 2.92657,2.219859 6.53973,2.094764 3.89286,-0.134776 7.6667,-2.11968 7.6667,-2.11968 0,0 4.58391,1.23386 6.65877,3.564895 l 8.45077,9.49411 c 0,0 -10.14783,12.801341 -20.97219,13.034092 -10.82437,0.232751 -23.452789,-13.732346 -23.452789,-13.732346 z"
         id="path1"
         sodipodi:nodetypes="csscscsc" />
    </clipPath>
    <inkscape:path-effect
       effect="powerclip"
       id="path-effect1"
       is_visible="true"
       lpeversion="1"
       inverse="true"
       flatten="false"
       hide_clip="false"
       message="Use fill-rule evenodd on &lt;b&gt;fill and stroke&lt;/b&gt; dialog if no flatten result after convert clip to paths." />
    <rect
       x="503.93228"
       y="352.21072"
       width="120.85421"
       height="37.807224"
       id="rect2-7-7-0-7-9-0-8-3-0-3-7" />
    <rect
       x="503.93228"
       y="352.21072"
       width="93.659676"
       height="32.47094"
       id="rect2-7-7-0-7-9-0-8-3-0-3-5" />
    <filter
       id="mask-powermask-path-effect3_inverse"
       inkscape:label="filtermask-powermask-path-effect3"
       style="color-interpolation-filters:sRGB"
       height="100"
       width="100"
       x="-50"
       y="-50">
      <feColorMatrix
         id="mask-powermask-path-effect3_primitive1"
         values="1"
         type="saturate"
         result="fbSourceGraphic" />
      <feColorMatrix
         id="mask-powermask-path-effect3_primitive2"
         values="-1 0 0 0 1 0 -1 0 0 1 0 0 -1 0 1 0 0 0 1 0 "
         in="fbSourceGraphic" />
    </filter>
    <clipPath
       clipPathUnits="userSpaceOnUse"
       id="clipPath3">
      <path
         style="display:none;fill:#755946;fill-opacity:1;stroke-width:0.513252"
         d="m -21.34837,-5.368372 c 4.47034,-5.044221 7.264354,-4.824811 8.739349,-4.824811 1.474995,0 3.5188391,1.7737871 6.4624562,1.6911889 2.9194808,-0.08192 5.76793592,-1.3875459 5.76793592,-1.3875459 0,0 3.70288988,-1.236675 5.94606198,1.396455 l 2.5723559,3.019539 c 0,0 -4.616424,7.805035 -15.008425,7.726497 -8.851432,-0.0669 -14.479734,-7.621323 -14.479734,-7.621323 z"
         id="path3"
         sodipodi:nodetypes="csscscsc" />
      <path
         id="lpe_path-effect3"
         style="display:block;fill:#755946;fill-opacity:1;stroke-width:0.513252"
         class="powerclip"
         d="m -37.30144,-26.278524 h 61.3943 v 42.590968 h -61.3943 z m 15.95307,20.910152 c 0,0 5.628302,7.554423 14.479734,7.621323 C 3.523365,2.331489 8.139789,-5.473546 8.139789,-5.473546 L 5.5674331,-8.493085 c -2.2431721,-2.63313 -5.94606198,-1.396455 -5.94606198,-1.396455 0,0 -2.84845512,1.3056259 -5.76793592,1.3875459 -2.9436171,0.082598 -4.9874612,-1.6911889 -6.4624562,-1.6911889 -1.474995,0 -4.269009,-0.21941 -8.739349,4.824811 z" />
    </clipPath>
  </defs>
  <g
     inkscape:label="Layer 1"
     inkscape:groupmode="layer"
     id="layer1">
    <path
       style="display:block;fill:#755946;fill-opacity:1;stroke-width:0.513252"
       d="m 38.172587,15.910152 c 4.47034,-5.044221 7.264354,-4.824811 8.739349,-4.824811 1.474995,0 3.518839,1.773787 6.462456,1.691189 2.919481,-0.08192 5.767936,-1.387546 5.767936,-1.387546 0,0 3.70289,-1.236675 5.946062,1.396455 l 2.572356,3.019539 c 0,0 -4.616424,7.805035 -15.008425,7.726497 -8.851432,-0.0669 -14.479734,-7.621323 -14.479734,-7.621323 z"
       id="path2"
       sodipodi:nodetypes="csscscsc" />
    <path
       id="path15"
       d="m 75.940702,9.8480231 c 0,0 -3.74681,-1.60787 -4.1412,-1.725606 -0.39438,-0.11871 -17.820101,-2.8354641 -17.820101,-2.8354641 0,0 -17.425719,2.7167541 -17.820102,2.8354641 -0.394384,0.117736 -4.141118,1.725606 -4.141118,1.725606 0,0 -0.69017,5.3621009 0,6.0704909 0.690176,0.70935 1.698369,-0.253823 8.9724,-0.944837 8.085039,-0.767258 12.98882,-0.649523 12.98882,-0.649523 0,0 4.903784,-0.117735 12.988821,0.649523 7.27411,0.691014 8.28223,1.654187 8.97248,0.944837 0.69017,-0.70839 0,-6.0704909 0,-6.0704909"
       style="fill:#ffffff;fill-opacity:1;fill-rule:nonzero;stroke:none;stroke-width:0.0088171" />
    <path
       id="path16"
       d="m 68.532597,9.4140168 c 0,0 -2.663476,-1.102148 -2.943834,-1.18225 -0.280351,-0.08106 -12.667684,-1.942761 -12.667684,-1.942761 0,0 -12.387332,1.861699 -12.667685,1.942761 -0.280354,0.0801 -2.943776,1.18225 -2.943776,1.18225 0,0 -0.490617,3.6731672 0,4.1595852 0.490622,0.485444 1.155146,0.248998 6.273033,-1.082838 6.413209,-1.669635 13.038744,-1.669635 18.889183,0 5.105922,1.456344 5.570088,1.568282 6.060763,1.082838 0.490617,-0.486418 0,-4.1595852 0,-4.1595852"
       style="fill:#dbdbdb;fill-opacity:1;fill-rule:nonzero;stroke:none;stroke-width:0.00743394" />
    <path
       id="path18"
       d="m 70.318195,16.987061 c 0,0 -3.117036,2.494793 -6.117442,3.132719 -3.000399,0.637938 -10.651008,0.876313 -10.651008,0.876313 0,0 -7.606287,-0.124496 -10.124592,-0.617661 -3.016858,-0.590641 -6.166805,-3.036203 -6.166805,-3.036203 l 6.565353,10.478106 9.638853,1.08959 -5.9e-5,0.0031 0.01524,-0.0018 0.80092,0.09073 -0.0038,-0.193032 9.593013,-1.240144 6.450295,-10.58138"
       style="fill:#ffffff;fill-opacity:1;fill-rule:nonzero;stroke:none;stroke-width:0.00765495" />
    <path
       d="m 518.94147,368.93575 q 0,1.79912 -0.51404,3.23842 -0.50118,1.4393 -1.36219,2.41596 -0.91241,1.01522 -2.00474,1.52926 -1.09232,0.50118 -2.40311,0.50118 -1.22084,0 -2.13325,-0.29557 -0.91241,-0.28272 -1.79912,-0.77105 l -0.15421,0.66824 h -2.26176 v -19.99596 h 2.41597 v 7.14509 q 1.01522,-0.83531 2.15895,-1.3622 1.14372,-0.53973 2.57017,-0.53973 2.54448,0 4.00948,1.95333 1.47785,1.95333 1.47785,5.51303 z M 516.4484,369 q 0,-2.57018 -0.84816,-3.89382 -0.84816,-1.33649 -2.73724,-1.33649 -1.05377,0 -2.13324,0.46263 -1.07948,0.44978 -2.00474,1.16943 v 8.22457 q 1.02807,0.46263 1.76057,0.64254 0.74535,0.17991 1.68346,0.17991 2.00474,0 3.13562,-1.31079 1.14373,-1.32364 1.14373,-4.13798 z m 18.15829,7.22219 h -2.41597 v -1.59351 q -1.22083,0.96382 -2.33886,1.47786 -1.11802,0.51403 -2.46736,0.51403 -2.26176,0 -3.52115,-1.37504 -1.25938,-1.3879 -1.25938,-4.06088 v -9.31689 h 2.41596 v 8.17316 q 0,1.09233 0.10281,1.87623 0.10281,0.77105 0.43693,1.32364 0.34697,0.56544 0.89956,0.82246 0.55259,0.25701 1.60636,0.25701 0.93812,0 2.04329,-0.48833 1.11803,-0.48833 2.08184,-1.24653 v -10.71764 h 2.41597 z m 13.71189,-11.72 h -0.12851 q -0.53974,-0.12851 -1.05378,-0.17991 -0.50118,-0.0642 -1.19513,-0.0642 -1.11802,0 -2.15894,0.50118 -1.04093,0.48833 -2.00474,1.27224 v 10.19074 h -2.41597 v -14.35443 h 2.41597 v 2.1204 q 1.4393,-1.15658 2.53162,-1.63206 1.10518,-0.48834 2.24891,-0.48834 0.62969,0 0.91241,0.0386 0.28272,0.0257 0.84816,0.11566 z m 14.27732,11.72 h -2.41596 v -8.17315 q 0,-0.98952 -0.11566,-1.85053 -0.11566,-0.87386 -0.42408,-1.36219 -0.32127,-0.53974 -0.92526,-0.79676 -0.60399,-0.26987 -1.56781,-0.26987 -0.98952,0 -2.06899,0.48834 -1.07947,0.48833 -2.06899,1.24653 v 10.71763 h -2.41597 v -14.35443 h 2.41597 v 1.59351 q 1.13088,-0.93811 2.33886,-1.465 1.20798,-0.52688 2.48022,-0.52688 2.32601,0 3.54684,1.40074 1.22083,1.40075 1.22083,4.03518 z"
       id="text2-6-3-9-6-8-4-8"
       style="font-size:26.3186px;white-space:pre;fill:#0f0f0f;stroke:#000000;stroke-width:0"
       transform="matrix(0.35777471,0,0,0.35777471,-138.29691,-92.467863)"
       aria-label="burn" />
    <rect
       style="font-variation-settings:normal;opacity:1;vector-effect:none;fill:#000000;fill-opacity:1;stroke:#ea75b3;stroke-width:0;stroke-linecap:butt;stroke-linejoin:miter;stroke-miterlimit:4;stroke-dasharray:none;stroke-dashoffset:0;stroke-opacity:1;-inkscape-stroke:none;stop-color:#000000;stop-opacity:1"
       id="rect1"
       width="9.6318083"
       height="0.72323298"
       x="48.229263"
       y="42.96402"
       ry="0.36161649" />
    <path
       style="fill:#ef615b;fill-opacity:1;stroke-width:0.353477"
       d="m -32.30144,-6.890791 c 1.601689,-1.953272 2.66144,-2.203286 5.889551,-4.82296 2.170609,-1.76149 9.704693,-9.613705 13.620833,-9.564543 3.9161301,0.04917 5.0857311,1.076053 6.8871521,1.076053 1.801421,0 4.93434201,-1.070532 7.440671,-1.070532 2.506338,0 9.6402999,7.298819 12.5536629,9.66004 2.539204,2.057973 4.961404,4.139294 5.002143,5.227371 0.0445,1.188433 -5.098719,9.38334 -10.5698709,13.27073 -4.793085,3.405604 -9.40122599,4.473883 -16.767516,4.425517 -10.0104381,-0.06573 -16.2054101,-6.423519 -17.9483151,-8.351449 -5.03144,-5.565573 -6.108311,-9.850227 -6.108311,-9.850227 z"
       id="path68-9-7-3"
       sodipodi:nodetypes="csssssssssc"
       clip-path="url(#clipPath3)"
       inkscape:path-effect="#path-effect3"
       inkscape:original-d="m -32.30144,-6.890791 c 1.601689,-1.953272 2.66144,-2.203286 5.889551,-4.82296 2.170609,-1.76149 9.704693,-9.613705 13.620833,-9.564543 3.9161301,0.04917 5.0857311,1.076053 6.8871521,1.076053 1.801421,0 4.93434201,-1.070532 7.440671,-1.070532 2.506338,0 9.6402999,7.298819 12.5536629,9.66004 2.539204,2.057973 4.961404,4.139294 5.002143,5.227371 0.0445,1.188433 -5.098719,9.38334 -10.5698709,13.27073 -4.793085,3.405604 -9.40122599,4.473883 -16.767516,4.425517 -10.0104381,-0.06573 -16.2054101,-6.423519 -17.9483151,-8.351449 -5.03144,-5.565573 -6.108311,-9.850227 -6.108311,-9.850227 z"
       transform="translate(59.520957,21.278524)" />
  </g>
</svg>
