<?xml version="1.0" encoding="UTF-8" standalone="no"?>
<!-- Created with Inkscape (http://www.inkscape.org/) -->

<svg
   width="400"
   height="300"
   viewBox="0 0 105.83333 79.375"
   version="1.1"
   id="svg1"
   inkscape:version="1.3.2 (091e20e, 2023-11-25, custom)"
   sodipodi:docname="Mou_IE_i.svg"
   xmlns:inkscape="http://www.inkscape.org/namespaces/inkscape"
   xmlns:sodipodi="http://sodipodi.sourceforge.net/DTD/sodipodi-0.dtd"
   xmlns="http://www.w3.org/2000/svg"
   xmlns:svg="http://www.w3.org/2000/svg">
  <sodipodi:namedview
     id="namedview1"
     pagecolor="#ffffff"
     bordercolor="#000000"
     borderopacity="0.25"
     inkscape:showpageshadow="2"
     inkscape:pageopacity="0.0"
     inkscape:pagecheckerboard="0"
     inkscape:deskcolor="#d1d1d1"
     inkscape:document-units="mm"
     inkscape:zoom="5.0956793"
     inkscape:cx="177.4052"
     inkscape:cy="139.82434"
     inkscape:window-width="1536"
     inkscape:window-height="953"
     inkscape:window-x="-8"
     inkscape:window-y="-8"
     inkscape:window-maximized="1"
     inkscape:current-layer="layer1" />
  <defs
     id="defs1">
    <rect
       x="503.93228"
       y="352.21072"
       width="93.659676"
       height="32.47094"
       id="rect2-7-77-5-8-3" />
    <rect
       x="503.93228"
       y="352.21072"
       width="93.659676"
       height="32.47094"
       id="rect2-7-7-0-7-9-0-8" />
    <rect
       x="503.93228"
       y="352.21072"
       width="93.659676"
       height="32.47094"
       id="rect2-7-7-0-7-9-0-8-3" />
    <rect
       x="503.93228"
       y="352.21072"
       width="93.659676"
       height="32.47094"
       id="rect2-7-7-0-7-9-0-8-3-0" />
    <rect
       x="503.93228"
       y="352.21072"
       width="93.659676"
       height="32.47094"
       id="rect2-7-7-0-7-9-0-8-9" />
    <rect
       x="503.93228"
       y="352.21072"
       width="120.85421"
       height="37.807226"
       id="rect2-7-7-0-7-9-0-8-3-0-3" />
    <clipPath
       clipPathUnits="userSpaceOnUse"
       id="clipPath1">
      <path
         style="display:block;fill:#755946;fill-opacity:1;stroke-width:0.554387"
         d="m 87.892501,-53.926875 c 9.020297,-8.611809 13.304949,-12.335835 15.109009,-12.335835 1.80406,0 2.92657,2.219859 6.53973,2.094764 3.89286,-0.134776 7.6667,-2.11968 7.6667,-2.11968 0,0 4.58391,1.23386 6.65877,3.564895 l 8.45077,9.49411 c 0,0 -10.14783,12.801341 -20.97219,13.034092 -10.82437,0.232751 -23.452789,-13.732346 -23.452789,-13.732346 z"
         id="path1"
         sodipodi:nodetypes="csscscsc" />
    </clipPath>
    <inkscape:path-effect
       effect="powerclip"
       id="path-effect1"
       is_visible="true"
       lpeversion="1"
       inverse="true"
       flatten="false"
       hide_clip="false"
       message="Use fill-rule evenodd on &lt;b&gt;fill and stroke&lt;/b&gt; dialog if no flatten result after convert clip to paths." />
    <rect
       x="503.93228"
       y="352.21072"
       width="120.85421"
       height="37.807224"
       id="rect2-7-7-0-7-9-0-8-3-0-3-7" />
    <rect
       x="503.93228"
       y="352.21072"
       width="93.659676"
       height="32.47094"
       id="rect2-7-7-0-7-9-0-8-3-0-3-5" />
  </defs>
  <g
     inkscape:label="Layer 1"
     inkscape:groupmode="layer"
     id="layer1">
    <g
       id="g1">
      <path
         id="path13"
         d="M 77.29685,8.6830237 C 74.443527,6.7171013 70.975509,5.3717593 67.771298,4.4529746 62.661624,2.9889166 57.545667,2.8943295 52.324266,2.8943295 c -1.96588,0 -3.867799,0.33876 -5.790261,0.4458861 -0.84024,0.047266 -2.098952,-0.3985834 -3.076373,-0.3985834 l 0.217009,-0.047327 C 41.638598,2.7254149 39.236608,4.0311993 37.26348,4.5475374 35.552632,4.996301 33.716523,5.5029777 32.042321,6.0550164 29.571303,6.869565 25.407379,9.3682095 26.802075,13.174573 c 0.953657,2.602886 2.469408,4.740583 3.961479,6.949705 3.012013,4.460697 6.988316,7.792227 11.722858,8.908856 7.047763,1.662862 14.186148,1.575047 21.181311,-0.06466 1.566984,-0.367708 3.287178,-0.68521 4.636589,-1.765165 0.92595,-0.742168 1.565375,-1.897398 2.375972,-2.803632 1.090114,-1.21795 2.274555,-2.234193 3.159906,-3.691511 1.433105,-2.358702 3.260194,-4.339085 4.641826,-6.735435 1.169137,-2.027693 0.505305,-4.124857 -1.185166,-5.2897251"
         style="fill:#755946;fill-opacity:1;fill-rule:nonzero;stroke:none;stroke-width:0.0088171" />
      <path
         id="path14"
         d="m 33.960612,20.129418 c 4.482875,3.923775 8.437575,5.379274 19.184845,5.379274 7.771387,0 14.457731,-2.406099 18.942707,-6.298791 -0.600396,-3.873426 -9.43852,-7.305631 -14.237853,-5.802742 -5.253063,1.643534 -11.522656,-0.401281 -14.801893,0.493054 -3.596192,0.983167 -7.886889,2.714087 -9.087806,6.229205"
         style="fill:#ed7d77;fill-opacity:1;fill-rule:nonzero;stroke:none;stroke-width:0.0135317" />
      <path
         id="path15"
         d="m 74.680834,6.9825134 c 0,0 -3.74681,-1.6078704 -4.141195,-1.7256067 C 70.145256,5.1381968 52.719535,2.421443 52.719535,2.421443 c 0,0 -17.425718,2.7167538 -17.820101,2.8354637 -0.394384,0.1177363 -4.141118,1.7256067 -4.141118,1.7256067 0,0 -0.69017,5.3621006 0,6.0704906 0.690176,0.70935 1.698369,-0.253823 8.9724,-0.944837 8.085038,-0.767257 12.988819,-0.649522 12.988819,-0.649522 0,0 4.903784,-0.117735 12.988819,0.649522 7.274116,0.691014 8.282228,1.654187 8.97248,0.944837 0.690172,-0.70839 0,-6.0704906 0,-6.0704906"
         style="fill:#ffffff;fill-opacity:1;fill-rule:nonzero;stroke:none;stroke-width:0.0088171" />
      <path
         id="path16"
         d="m 74.680834,6.0193401 c 0,0 -3.74681,-1.1021486 -4.141195,-1.1822497 -0.394383,-0.081062 -17.820104,-1.9427609 -17.820104,-1.9427609 0,0 -17.425718,1.8616985 -17.820101,1.9427609 -0.394384,0.080101 -4.141118,1.1822497 -4.141118,1.1822497 0,0 -0.69017,3.6731672 0,4.1595849 0.690176,0.485444 1.624987,0.248998 8.824507,-1.0828383 9.021698,-1.6696342 18.342084,-1.6696342 26.572112,0 7.182689,1.4563443 7.835647,1.5682823 8.525899,1.0828383 0.690172,-0.4864177 0,-4.1595849 0,-4.1595849"
         style="fill:#dbdbdb;fill-opacity:1;fill-rule:nonzero;stroke:none;stroke-width:0.0088171" />
      <path
         id="path17"
         d="M 79.478126,10.624805 C 79.27288,8.7505737 74.260431,4.3748082 67.535199,2.1878865 60.809969,3.7858304e-6 52.854461,3.7858304e-6 52.854461,3.7858304e-6 c 0,0 -7.955508,0 -14.68074,2.1878827141696 -6.725229,2.1869217 -11.737678,6.5626872 -11.942923,8.4369185 -0.205169,1.875192 1.175173,0 1.175173,0 0.0986,-1.3540425 6.113115,-3.2292286 12.620533,-4.2705804 6.507501,-1.0413335 12.827957,-1.0413335 12.827957,-1.0413335 0,0 6.320537,0 12.828036,1.0413335 6.507418,1.0413518 12.521856,2.9165379 12.620452,4.2705804 0,0 1.380424,1.875192 1.175177,0"
         style="fill:#ef615b;fill-opacity:1;fill-rule:nonzero;stroke:none;stroke-width:0.0088171" />
      <path
         id="path18"
         d="m 74.987496,17.296553 c 0,0 -4.135314,2.494793 -8.115887,3.132719 -3.980573,0.637938 -14.130485,0.876313 -14.130485,0.876313 0,0 -10.091109,-0.124496 -13.432095,-0.617661 -4.002406,-0.590641 -8.181379,-3.036203 -8.181379,-3.036203 l 8.710124,10.478106 12.787676,1.08959 -7.9e-5,0.0031 0.02022,-0.0018 1.062565,0.09073 -0.005,-0.193032 12.726862,-1.240144 8.557474,-10.58138"
         style="fill:#ffffff;fill-opacity:1;fill-rule:nonzero;stroke:none;stroke-width:0.0088171" />
      <path
         id="path19"
         d="m 79.60846,11.114106 c -0.246007,-2.1376964 -1.305511,-0.489301 -1.305511,-0.489301 0.181806,2.796861 -8.256692,13.453518 -12.97585,15.259226 -4.719318,1.80474 -20.441033,1.720776 -24.870844,0.0031 -4.712395,-1.82793 -13.24256,-12.466244 -13.050284,-15.26215 0,0 -0.990711,-2.155078 -1.175173,0.42562 -0.184631,2.579707 6.339384,15.804506 11.896527,19.674562 5.557062,3.871029 14.787872,4.300483 14.787872,4.300483 l 1.35e-4,-0.06563 c 0.922728,-0.04923 9.457003,-0.594492 14.722305,-4.227134 5.571722,-3.844011 12.266102,-17.05335 11.970798,-19.618595"
         style="fill:#ef615b;fill-opacity:1;fill-rule:nonzero;stroke:none;stroke-width:0.0088171" />
    </g>
    <path
       d="m 516.92388,375.32263 q -1.20798,0.57829 -2.30031,0.89956 -1.07947,0.32128 -2.30031,0.32128 -1.55495,0 -2.85289,-0.44978 -1.29794,-0.46264 -2.2232,-1.3879 -0.93812,-0.92526 -1.45215,-2.33886 -0.51404,-1.4136 -0.51404,-3.30268 0,-3.52114 1.92763,-5.52587 1.94049,-2.00474 5.11465,-2.00474 1.23369,0 2.41597,0.34697 1.19513,0.34698 2.18465,0.84816 v 2.68583 h -0.12851 q -1.10518,-0.861 -2.28746,-1.32364 -1.16943,-0.46263 -2.28745,-0.46263 -2.05614,0 -3.25127,1.3879 -1.18229,1.37504 -1.18229,4.04802 0,2.59588 1.15658,3.99663 1.16943,1.38789 3.27698,1.38789 0.7325,0 1.4907,-0.19276 0.7582,-0.19276 1.36219,-0.50118 0.52689,-0.26987 0.98952,-0.56544 0.46263,-0.30842 0.7325,-0.52689 h 0.12851 z m 15.09978,0.89956 h -2.41596 v -8.17315 q 0,-0.98952 -0.11566,-1.85053 -0.11566,-0.87386 -0.42408,-1.36219 -0.32127,-0.53974 -0.92526,-0.79676 -0.604,-0.26987 -1.56781,-0.26987 -0.98952,0 -2.06899,0.48834 -1.07948,0.48833 -2.06899,1.24653 v 10.71763 h -2.41597 v -19.99596 h 2.41597 v 7.23504 q 1.13087,-0.93811 2.33886,-1.465 1.20798,-0.52688 2.48022,-0.52688 2.326,0 3.54684,1.40074 1.22083,1.40075 1.22083,4.03518 z m 7.2479,-16.75754 h -2.72439 v -2.50592 h 2.72439 z m -0.15421,16.75754 h -2.41597 v -14.35443 h 2.41597 z m 7.22219,0 h -2.41596 v -19.99596 h 2.41596 z m 16.42342,0 H 560.347 v -1.50355 q -1.04092,0.89956 -2.1718,1.40075 -1.13088,0.50118 -2.45452,0.50118 -2.57018,0 -4.08658,-1.97903 -1.50355,-1.97904 -1.50355,-5.48733 0,-1.82482 0.51403,-3.25127 0.52689,-1.42645 1.4136,-2.42882 0.87386,-0.97666 2.03044,-1.4907 1.16943,-0.51403 2.41596,-0.51403 1.13088,0 2.00474,0.24416 0.87386,0.23132 1.83768,0.7325 v -6.21982 h 2.41596 z M 560.347,372.6882 v -8.23741 q -0.97667,-0.43693 -1.74772,-0.60399 -0.77106,-0.16706 -1.68347,-0.16706 -2.03044,0 -3.16131,1.41359 -1.13088,1.4136 -1.13088,4.00948 0,2.55732 0.87386,3.89381 0.87386,1.32364 2.80149,1.32364 1.02807,0 2.08184,-0.44978 1.05377,-0.46263 1.96619,-1.18228 z"
       id="text2-6-3-9-6-8-4-8"
       style="font-size:26.3186px;white-space:pre;fill:#0f0f0f;stroke:#000000;stroke-width:0"
       transform="matrix(0.35777471,0,0,0.35777471,-138.14289,-90.880362)"
       aria-label="child" />
    <rect
       style="font-variation-settings:normal;opacity:1;vector-effect:none;fill:#000000;fill-opacity:1;stroke:#ea75b3;stroke-width:0;stroke-linecap:butt;stroke-linejoin:miter;stroke-miterlimit:4;stroke-dasharray:none;stroke-dashoffset:0;stroke-opacity:1;-inkscape-stroke:none;stop-color:#000000;stop-opacity:1"
       id="rect1"
       width="3.5960553"
       height="0.72323298"
       x="52.558666"
       y="44.698383"
       ry="0.36161649" />
  </g>
</svg>
