<?xml version="1.0" encoding="UTF-8" standalone="no"?>
<!-- Created with Inkscape (http://www.inkscape.org/) -->

<svg
   width="400"
   height="300"
   viewBox="0 0 105.83333 79.375"
   version="1.1"
   id="svg1"
   inkscape:version="1.3.2 (091e20e, 2023-11-25, custom)"
   sodipodi:docname="Mou_I_y.svg"
   xmlns:inkscape="http://www.inkscape.org/namespaces/inkscape"
   xmlns:sodipodi="http://sodipodi.sourceforge.net/DTD/sodipodi-0.dtd"
   xmlns="http://www.w3.org/2000/svg"
   xmlns:svg="http://www.w3.org/2000/svg">
  <sodipodi:namedview
     id="namedview1"
     pagecolor="#ffffff"
     bordercolor="#000000"
     borderopacity="0.25"
     inkscape:showpageshadow="2"
     inkscape:pageopacity="0.0"
     inkscape:pagecheckerboard="0"
     inkscape:deskcolor="#d1d1d1"
     inkscape:document-units="mm"
     inkscape:zoom="3.6031894"
     inkscape:cx="177.34288"
     inkscape:cy="175.81646"
     inkscape:window-width="1536"
     inkscape:window-height="953"
     inkscape:window-x="-8"
     inkscape:window-y="-8"
     inkscape:window-maximized="1"
     inkscape:current-layer="g43" />
  <defs
     id="defs1">
    <rect
       x="503.93228"
       y="352.21072"
       width="93.659676"
       height="32.47094"
       id="rect2-7-77-5-8-3" />
    <rect
       x="503.93228"
       y="352.21072"
       width="93.659676"
       height="32.47094"
       id="rect2-7-7-0-7-9-0-8" />
    <rect
       x="503.93228"
       y="352.21072"
       width="93.659676"
       height="32.47094"
       id="rect2-7-7-0-7-9-0-8-3" />
    <rect
       x="503.93228"
       y="352.21072"
       width="93.659676"
       height="32.47094"
       id="rect2-7-7-0-7-9-0-8-3-0" />
    <rect
       x="503.93228"
       y="352.21072"
       width="93.659676"
       height="32.47094"
       id="rect2-7-7-0-7-9-0-8-9" />
    <rect
       x="503.93228"
       y="352.21072"
       width="93.659676"
       height="32.47094"
       id="rect2-7-7-0-7-9-0-8-3-0-3" />
  </defs>
  <g
     inkscape:label="Layer 1"
     inkscape:groupmode="layer"
     id="layer1">
    <g
       id="g43"
       transform="matrix(0.94047631,0,0,0.94047631,-180.78112,-64.721903)">
      <text
         xml:space="preserve"
         transform="matrix(0.38041863,0,0,0.38041863,43.8409,-27.81405)"
         id="text2-6-3-9-6-8-4-8"
         style="font-size:26.3186px;white-space:pre;shape-inside:url(#rect2-7-7-0-7-9-0-8-3-0-3);display:inline;fill:#0f0f0f;fill-opacity:1;stroke:#000000;stroke-width:0"
         x="20.554981"
         y="0"><tspan
           x="503.93164"
           y="376.22219"
           id="tspan2">myth</tspan></text>
      <rect
         style="fill:#000000;fill-opacity:1;stroke:#ea75b3;stroke-width:0"
         id="rect1"
         width="5.8634276"
         height="0.76900715"
         x="244.62987"
         y="-119.36774"
         ry="0.38450357"
         transform="scale(1,-1)" />
    </g>
    <path
       id="path13"
       d="M 81.027605,8.6830237 C 77.737744,6.7171013 73.739144,5.3717593 70.044713,4.4529746 64.153296,2.9889166 58.254633,2.8943295 52.234397,2.8943295 c -2.266645,0 -4.459545,0.33876 -6.676129,0.4458861 -0.968791,0.047266 -2.420076,-0.3985834 -3.547035,-0.3985834 l 0.25021,-0.047327 c -2.347544,-0.1688903 -5.117021,1.1368941 -7.392023,1.6532322 -1.972595,0.4487636 -4.089615,0.9554403 -6.019958,1.507479 -2.849066,0.8145486 -7.65004,3.3131931 -6.041965,7.1195566 1.099559,2.602886 2.847209,4.740583 4.567556,6.949705 3.472828,4.460697 8.057477,7.792227 13.51637,8.908856 8.126019,1.662862 16.356525,1.575047 24.421897,-0.06466 1.806721,-0.367708 3.790092,-0.68521 5.345954,-1.765165 1.067613,-0.742168 1.804865,-1.897398 2.739478,-2.803632 1.256893,-1.21795 2.622546,-2.234193 3.64335,-3.691511 1.652359,-2.358702 3.758978,-4.339085 5.351991,-6.735435 1.348006,-2.027693 0.582612,-4.124857 -1.366488,-5.2897251"
       style="fill:#755946;fill-opacity:1;fill-rule:nonzero;stroke:none;stroke-width:0.00946757" />
    <path
       id="path14"
       d="m 39.944454,21.521777 c 3.366766,2.557513 6.336856,3.506206 14.408356,3.506206 5.836528,0 10.85816,-1.568293 14.226503,-4.105547 -0.450915,-2.524695 -7.088593,-4.761804 -10.693027,-3.782222 -3.945196,1.071254 -8.653835,-0.261555 -11.116633,0.321372 -2.700842,0.640827 -5.923274,1.76904 -6.825199,4.060191"
       style="fill:#ed7d77;fill-opacity:1;fill-rule:nonzero;stroke:none;stroke-width:0.00946757" />
    <path
       id="path15"
       d="m 78.011357,6.9825134 c 0,0 -4.320044,-1.6078704 -4.774767,-1.7256067 C 72.781869,5.1381968 52.69014,2.421443 52.69014,2.421443 c 0,0 -20.091727,2.7167538 -20.546448,2.8354637 -0.454721,0.1177363 -4.774678,1.7256067 -4.774678,1.7256067 0,0 -0.795762,5.3621006 0,6.0704906 0.795768,0.70935 1.958207,-0.253823 10.345112,-0.944837 9.321989,-0.767257 14.976014,-0.649522 14.976014,-0.649522 0,0 5.654026,-0.117735 14.976013,0.649522 8.387002,0.691014 9.549348,1.654187 10.345204,0.944837 0.795763,-0.70839 0,-6.0704906 0,-6.0704906"
       style="fill:#ffffff;fill-opacity:1;fill-rule:nonzero;stroke:none;stroke-width:0.00946757" />
    <path
       id="path16"
       d="m 78.011357,6.0193401 c 0,0 -4.320044,-1.1021486 -4.774767,-1.1822497 -0.454721,-0.081062 -20.54645,-1.9427609 -20.54645,-1.9427609 0,0 -20.091727,1.8616985 -20.546448,1.9427609 -0.454721,0.080101 -4.774678,1.1822497 -4.774678,1.1822497 0,0 -0.795762,3.6731672 0,4.1595849 0.795768,0.485444 1.873597,0.248998 10.174591,-1.0828383 10.401953,-1.6696342 21.14829,-1.6696342 30.637453,0 8.281588,1.4563443 9.034443,1.5682823 9.830299,1.0828383 0.795763,-0.4864177 0,-4.1595849 0,-4.1595849"
       style="fill:#dbdbdb;fill-opacity:1;fill-rule:nonzero;stroke:none;stroke-width:0.00946757" />
    <path
       id="path17"
       d="M 83.5426,10.624805 C 83.305952,8.7505737 77.526636,4.3748082 69.772492,2.1878865 62.01835,3.7858304e-6 52.845708,3.7858304e-6 52.845708,3.7858304e-6 c 0,0 -9.172642,0 -16.926787,2.1878827141696 -7.754139,2.1869217 -13.533456,6.5626872 -13.770103,8.4369185 -0.236558,1.875192 1.354966,0 1.354966,0 0.11368,-1.3540425 7.048378,-3.2292286 14.551382,-4.2705804 7.503102,-1.0413335 14.790542,-1.0413335 14.790542,-1.0413335 0,0 7.287534,0 14.790632,1.0413335 7.503006,1.0413518 14.437609,2.9165379 14.551289,4.2705804 0,0 1.591619,1.875192 1.354971,0"
       style="fill:#ef615b;fill-opacity:1;fill-rule:nonzero;stroke:none;stroke-width:0.00946757" />
    <path
       id="path18"
       d="m 78.364937,17.296553 c 0,0 -4.767987,2.494793 -9.357559,3.132719 -4.589572,0.637938 -16.292347,0.876313 -16.292347,0.876313 0,0 -11.634976,-0.124496 -15.487107,-0.617661 -4.614746,-0.590641 -9.433072,-3.036203 -9.433072,-3.036203 l 10.042711,10.478106 14.744097,1.08959 -9.2e-5,0.0031 0.02332,-0.0018 1.22513,0.09073 -0.0058,-0.193032 14.673979,-1.240144 9.866706,-10.58138"
       style="fill:#ffffff;fill-opacity:1;fill-rule:nonzero;stroke:none;stroke-width:0.00946757" />
    <path
       id="path19"
       d="M 83.692875,11.114106 C 83.40923,8.9764096 82.187629,10.624805 82.187629,10.624805 82.39725,13.421666 72.667724,24.078323 67.226569,25.884031 61.78523,27.688771 43.658206,27.604807 38.550666,25.88712 33.11731,24.05919 23.282092,13.420876 23.503784,10.62497 c 0,0 -1.142282,-2.155078 -1.354966,0.42562 -0.212878,2.579707 7.309264,15.804506 13.71661,19.674562 6.407251,3.871029 17.050308,4.300483 17.050308,4.300483 l 1.56e-4,-0.06563 c 1.063899,-0.04923 10.903856,-0.594492 16.974709,-4.227134 6.424156,-3.844011 14.142727,-17.05335 13.802244,-19.618595"
       style="fill:#ef615b;fill-opacity:1;fill-rule:nonzero;stroke:none;stroke-width:0.00946757" />
  </g>
</svg>
