<?xml version="1.0" encoding="UTF-8" standalone="no"?>
<!-- Created with Inkscape (http://www.inkscape.org/) -->

<svg
   width="400"
   height="300"
   viewBox="0 0 105.83333 79.375"
   version="1.1"
   id="svg1"
   inkscape:version="1.3.2 (091e20e, 2023-11-25, custom)"
   sodipodi:docname="Mou_U_u.svg"
   xmlns:inkscape="http://www.inkscape.org/namespaces/inkscape"
   xmlns:sodipodi="http://sodipodi.sourceforge.net/DTD/sodipodi-0.dtd"
   xmlns="http://www.w3.org/2000/svg"
   xmlns:svg="http://www.w3.org/2000/svg">
  <sodipodi:namedview
     id="namedview1"
     pagecolor="#ffffff"
     bordercolor="#000000"
     borderopacity="0.25"
     inkscape:showpageshadow="2"
     inkscape:pageopacity="0.0"
     inkscape:pagecheckerboard="0"
     inkscape:deskcolor="#d1d1d1"
     inkscape:document-units="mm"
     inkscape:zoom="2.5478397"
     inkscape:cx="200.16958"
     inkscape:cy="109.30829"
     inkscape:window-width="1536"
     inkscape:window-height="953"
     inkscape:window-x="-8"
     inkscape:window-y="-8"
     inkscape:window-maximized="1"
     inkscape:current-layer="layer1" />
  <defs
     id="defs1">
    <rect
       x="503.93228"
       y="352.21072"
       width="93.659676"
       height="32.47094"
       id="rect2-7-77-5-8-3" />
    <rect
       x="503.93228"
       y="352.21072"
       width="93.659676"
       height="32.47094"
       id="rect2-7-7-0-7-9-0-8" />
    <rect
       x="503.93228"
       y="352.21072"
       width="93.659676"
       height="32.47094"
       id="rect2-7-7-0-7-9-0-8-3" />
    <rect
       x="503.93228"
       y="352.21072"
       width="93.659676"
       height="32.47094"
       id="rect2-7-7-0-7-9-0-8-3-0" />
    <rect
       x="503.93228"
       y="352.21072"
       width="93.659676"
       height="32.47094"
       id="rect2-7-7-0-7-9-0-8-9" />
    <rect
       x="503.93228"
       y="352.21072"
       width="120.85421"
       height="37.807226"
       id="rect2-7-7-0-7-9-0-8-3-0-3" />
    <clipPath
       clipPathUnits="userSpaceOnUse"
       id="clipPath1">
      <path
         style="display:block;fill:#755946;fill-opacity:1;stroke-width:0.554387"
         d="m 87.892501,-53.926875 c 9.020297,-8.611809 13.304949,-12.335835 15.109009,-12.335835 1.80406,0 2.92657,2.219859 6.53973,2.094764 3.89286,-0.134776 7.6667,-2.11968 7.6667,-2.11968 0,0 4.58391,1.23386 6.65877,3.564895 l 8.45077,9.49411 c 0,0 -10.14783,12.801341 -20.97219,13.034092 -10.82437,0.232751 -23.452789,-13.732346 -23.452789,-13.732346 z"
         id="path1"
         sodipodi:nodetypes="csscscsc" />
    </clipPath>
    <inkscape:path-effect
       effect="powerclip"
       id="path-effect1"
       is_visible="true"
       lpeversion="1"
       inverse="true"
       flatten="false"
       hide_clip="false"
       message="Use fill-rule evenodd on &lt;b&gt;fill and stroke&lt;/b&gt; dialog if no flatten result after convert clip to paths." />
    <rect
       x="503.93228"
       y="352.21072"
       width="120.85421"
       height="37.807224"
       id="rect2-7-7-0-7-9-0-8-3-0-3-7" />
  </defs>
  <g
     inkscape:label="Layer 1"
     inkscape:groupmode="layer"
     id="layer1">
    <path
       d="m 518.94147,368.93575 q 0,1.79912 -0.51404,3.23842 -0.50118,1.4393 -1.36219,2.41596 -0.91241,1.01522 -2.00474,1.52926 -1.09232,0.50118 -2.40311,0.50118 -1.22084,0 -2.13325,-0.29557 -0.91241,-0.28272 -1.79912,-0.77105 l -0.15421,0.66824 h -2.26176 v -19.99596 h 2.41597 v 7.14509 q 1.01522,-0.83531 2.15895,-1.3622 1.14372,-0.53973 2.57017,-0.53973 2.54448,0 4.00948,1.95333 1.47785,1.95333 1.47785,5.51303 z M 516.4484,369 q 0,-2.57018 -0.84816,-3.89382 -0.84816,-1.33649 -2.73724,-1.33649 -1.05377,0 -2.13324,0.46263 -1.07948,0.44978 -2.00474,1.16943 v 8.22457 q 1.02807,0.46263 1.76057,0.64254 0.74535,0.17991 1.68346,0.17991 2.00474,0 3.13562,-1.31079 1.14373,-1.32364 1.14373,-4.13798 z m 18.15829,7.22219 h -2.41597 v -1.59351 q -1.22083,0.96382 -2.33886,1.47786 -1.11802,0.51403 -2.46736,0.51403 -2.26176,0 -3.52115,-1.37504 -1.25938,-1.3879 -1.25938,-4.06088 v -9.31689 h 2.41596 v 8.17316 q 0,1.09233 0.10281,1.87623 0.10281,0.77105 0.43693,1.32364 0.34697,0.56544 0.89956,0.82246 0.55259,0.25701 1.60636,0.25701 0.93812,0 2.04329,-0.48833 1.11803,-0.48833 2.08184,-1.24653 v -10.71764 h 2.41597 z m 12.20833,-0.1285 q -0.68109,0.17991 -1.4907,0.29557 -0.79675,0.11565 -1.42645,0.11565 -2.1975,0 -3.34123,-1.18228 -1.14372,-1.18228 -1.14372,-3.79101 v -7.63342 h -1.63207 v -2.03044 h 1.63207 v -4.12513 h 2.41596 v 4.12513 h 4.98614 v 2.03044 h -4.98614 v 6.5411 q 0,1.13088 0.0514,1.77342 0.0514,0.62969 0.35982,1.18228 0.28272,0.51404 0.77105,0.7582 0.50119,0.23132 1.51641,0.23132 0.59114,0 1.23368,-0.16706 0.64254,-0.17992 0.92526,-0.29557 h 0.12851 z"
       id="text2-6-3-9-6-8-4-8"
       style="font-size:26.3186px;white-space:pre;fill:#0f0f0f;stroke:#000000;stroke-width:0"
       transform="matrix(0.35777471,0,0,0.35777471,-135.47391,-81.884528)"
       aria-label="but" />
    <rect
       style="fill:#000000;fill-opacity:1;stroke:#ea75b3;stroke-width:0"
       id="rect1"
       width="5.0738316"
       height="0.72323298"
       x="50.984051"
       y="-54.41745"
       ry="0.36161649"
       transform="scale(1,-1)" />
    <path
       id="path45-6"
       d="M 76.823124,13.506363 C 73.699469,10.698113 72.825522,6.2673783 69.317995,4.9561225 63.724476,2.8637787 58.124138,2.7296986 52.407851,2.7296986 c -2.15224,0 -4.234355,0.4834028 -6.338858,0.63718 -0.919753,0.067639 -2.297429,-0.5695412 -3.367212,-0.5695412 l 0.236753,-0.067639 C 40.710282,2.488606 38.080626,4.352163 35.920568,5.0914412 c -1.873604,0.6408552 -2.68714,4.5832528 -4.519827,5.3704938 -2.704687,1.163652 -5.614958,5.687876 -7.231333,11.213365 -0.744375,2.542567 3.001852,2.50565 4.635775,5.660807 3.29707,6.368084 7.650284,11.126008 12.832637,12.721426 7.715569,2.375266 15.530522,2.249796 23.187626,-0.09227 1.715774,-0.525233 3.599108,-0.977893 5.076167,-2.521652 1.01328,-1.059076 1.713811,-2.708608 2.601412,-4.002645 1.192551,-1.739325 4.746834,-4.238844 5.715306,-6.320121 1.56962,-3.367942 2.457206,-3.285541 3.679979,-6.887185 0.760924,-2.242425 -3.224984,-5.065458 -5.075186,-6.727296"
       style="display:inline;fill:#755946;fill-opacity:1;fill-rule:nonzero;stroke:none;stroke-width:0.0109474" />
    <path
       id="path46-0"
       d="m 75.426935,10.302026 c 0,0 -1.934996,-2.8353181 -2.378297,-2.9743122 C 72.605318,7.187481 53.015836,3.968381 53.015836,3.968381 c 0,0 -19.589498,3.2191 -20.032816,3.3593328 -0.443302,0.1389941 -2.21656,5.2991592 -2.21656,5.2991592 0,0 -3.21522,3.096086 -2.438693,3.936245 0.775545,0.840138 2.237018,0.396067 10.418311,-0.350582 9.975957,-0.909016 19.286479,-1.188243 28.375831,-0.279227 8.177385,0.818004 9.805454,1.469947 10.581981,0.629809 0.775561,-0.840159 -2.276955,-6.261092 -2.276955,-6.261092"
       style="display:inline;fill:#ffffff;fill-opacity:1;fill-rule:nonzero;stroke:none;stroke-width:0.0109474" />
    <path
       id="path47-5"
       d="m 75.426935,10.302026 c 0,0 -1.934996,-3.3765525 -2.378297,-3.4724981 C 72.605318,6.7335824 53.015836,4.528053 53.015836,4.528053 c 0,0 -19.589498,2.2055294 -20.032816,2.3014749 -0.443302,0.095946 -1.962258,2.8316427 -1.962258,2.8316427 0,0 -3.469522,2.9214144 -2.692995,3.4958704 0.775545,0.575673 1.826832,0.296446 9.919455,-1.281752 10.142586,-1.9767218 20.620326,-1.9767218 29.871402,0 8.075092,1.725802 8.808739,1.857425 9.585266,1.281752 0.775561,-0.574456 -2.276955,-2.855015 -2.276955,-2.855015"
       style="display:inline;fill:#dbdbdb;fill-opacity:1;fill-rule:nonzero;stroke:none;stroke-width:0.0109474" />
    <path
       id="path48-9"
       d="M 81.983071,21.986508 C 79.393351,17.167077 72.290623,8.8050316 67.814641,7.0989063 62.277624,4.9868862 43.057394,5.8393294 37.872115,7.8996913 33.390278,9.6796082 26.386932,17.561926 23.881009,22.407186 c 0,0 -0.9217,-1.949654 -0.80186,-2.190767 2.963863,-5.922794 8.423902,-13.449616 13.143458,-16.8027961 6.498651,-4.6164735 27.185227,-4.4331921 33.368201,-0.1599093 4.785805,3.307654 12.027867,13.4299404 13.265244,16.7302234 0.03508,0.09349 -0.872981,2.002571 -0.872981,2.002571"
       style="display:inline;fill:#ef615b;fill-opacity:1;fill-rule:nonzero;stroke:none;stroke-width:0.0109474" />
    <path
       id="path50-8"
       d="m 73.524107,31.340658 c 0,0 0.294238,-0.46129 -5.025502,-0.321057 -4.513989,0.118079 -26.58699,0.0984 -30.370243,0 -5.32072,-0.140233 -6.473319,0 -6.473319,0 l 3.299104,3.524525 18.002243,9.257168 v 0.005 l 0.02243,-0.0025 1.194497,0.107032 -0.0058,-0.230025 16.628117,-8.54919 2.72852,-3.790931"
       style="display:inline;fill:#ffffff;fill-opacity:1;fill-rule:nonzero;stroke:none;stroke-width:0.0109474"
       sodipodi:nodetypes="cccccccccccc" />
    <path
       id="path51-3"
       d="M 82.142847,18.687443 C 79.567747,23.51918 71.799568,31.95256 67.328459,33.682058 61.798262,35.819927 43.374052,35.721525 38.181954,33.685758 33.695243,31.926756 26.347961,23.663113 23.827417,18.82892 c 0,0 -1.08733,1.773764 -0.966509,2.013617 2.982359,5.909292 7.862688,15.244317 12.591991,18.574125 6.512291,4.58573 17.330076,5.094983 17.330076,5.094983 v -0.07873 c 1.081476,-0.05781 11.083746,-0.7036 17.254063,-5.006408 4.775093,-3.331047 11.716098,-15.989727 12.943728,-19.296183 0.03507,-0.09349 -0.837919,-1.442879 -0.837919,-1.442879"
       style="display:inline;fill:#ef615b;fill-opacity:1;fill-rule:nonzero;stroke:none;stroke-width:0.0109474" />
  </g>
</svg>
