<?xml version="1.0" encoding="UTF-8" standalone="no"?>
<!-- Created with Inkscape (http://www.inkscape.org/) -->

<svg
   width="400"
   height="300"
   viewBox="0 0 105.83333 79.375"
   version="1.1"
   id="svg1"
   inkscape:version="1.3.2 (091e20e, 2023-11-25, custom)"
   sodipodi:docname="Mou_AE_ey.svg"
   xmlns:inkscape="http://www.inkscape.org/namespaces/inkscape"
   xmlns:sodipodi="http://sodipodi.sourceforge.net/DTD/sodipodi-0.dtd"
   xmlns="http://www.w3.org/2000/svg"
   xmlns:svg="http://www.w3.org/2000/svg">
  <sodipodi:namedview
     id="namedview1"
     pagecolor="#ffffff"
     bordercolor="#000000"
     borderopacity="0.25"
     inkscape:showpageshadow="2"
     inkscape:pageopacity="0.0"
     inkscape:pagecheckerboard="0"
     inkscape:deskcolor="#d1d1d1"
     inkscape:document-units="mm"
     inkscape:zoom="5.0956793"
     inkscape:cx="223.5227"
     inkscape:cy="133.54451"
     inkscape:window-width="1536"
     inkscape:window-height="953"
     inkscape:window-x="-8"
     inkscape:window-y="-8"
     inkscape:window-maximized="1"
     inkscape:current-layer="layer1" />
  <defs
     id="defs1">
    <rect
       x="503.93228"
       y="352.21072"
       width="93.659676"
       height="32.47094"
       id="rect2-7-77-5-8-3" />
    <rect
       x="503.93228"
       y="352.21072"
       width="93.659676"
       height="32.47094"
       id="rect2-7-7-0-7-9-0-8" />
    <rect
       x="503.93228"
       y="352.21072"
       width="93.659676"
       height="32.47094"
       id="rect2-7-7-0-7-9-0-8-3" />
    <rect
       x="503.93228"
       y="352.21072"
       width="93.659676"
       height="32.47094"
       id="rect2-7-7-0-7-9-0-8-3-0" />
    <rect
       x="503.93228"
       y="352.21072"
       width="93.659676"
       height="32.47094"
       id="rect2-7-7-0-7-9-0-8-9" />
    <rect
       x="503.93228"
       y="352.21072"
       width="120.85421"
       height="37.807226"
       id="rect2-7-7-0-7-9-0-8-3-0-3" />
    <clipPath
       clipPathUnits="userSpaceOnUse"
       id="clipPath1">
      <path
         style="display:block;fill:#755946;fill-opacity:1;stroke-width:0.554387"
         d="m 87.892501,-53.926875 c 9.020297,-8.611809 13.304949,-12.335835 15.109009,-12.335835 1.80406,0 2.92657,2.219859 6.53973,2.094764 3.89286,-0.134776 7.6667,-2.11968 7.6667,-2.11968 0,0 4.58391,1.23386 6.65877,3.564895 l 8.45077,9.49411 c 0,0 -10.14783,12.801341 -20.97219,13.034092 -10.82437,0.232751 -23.452789,-13.732346 -23.452789,-13.732346 z"
         id="path1"
         sodipodi:nodetypes="csscscsc" />
    </clipPath>
    <inkscape:path-effect
       effect="powerclip"
       id="path-effect1"
       is_visible="true"
       lpeversion="1"
       inverse="true"
       flatten="false"
       hide_clip="false"
       message="Use fill-rule evenodd on &lt;b&gt;fill and stroke&lt;/b&gt; dialog if no flatten result after convert clip to paths." />
    <rect
       x="503.93228"
       y="352.21072"
       width="120.85421"
       height="37.807224"
       id="rect2-7-7-0-7-9-0-8-3-0-3-7" />
  </defs>
  <g
     inkscape:label="Layer 1"
     inkscape:groupmode="layer"
     id="layer1">
    <path
       d="m 513.76256,376.09369 q -0.68109,0.17991 -1.4907,0.29557 -0.79675,0.11565 -1.42645,0.11565 -2.1975,0 -3.34123,-1.18228 -1.14372,-1.18228 -1.14372,-3.79101 v -7.63342 h -1.63206 v -2.03044 h 1.63206 v -4.12513 h 2.41596 v 4.12513 h 4.98614 v 2.03044 h -4.98614 v 6.5411 q 0,1.13088 0.0514,1.77342 0.0514,0.62969 0.35982,1.18228 0.28272,0.51404 0.77105,0.7582 0.50119,0.23132 1.51641,0.23132 0.59114,0 1.23368,-0.16706 0.64254,-0.17992 0.92526,-0.29557 h 0.12851 z m 14.91987,0.1285 h -2.41596 v -8.17315 q 0,-0.98952 -0.11566,-1.85053 -0.11566,-0.87386 -0.42408,-1.36219 -0.32127,-0.53974 -0.92526,-0.79676 -0.60399,-0.26987 -1.56781,-0.26987 -0.98952,0 -2.06899,0.48834 -1.07948,0.48833 -2.06899,1.24653 v 10.71763 h -2.41597 v -19.99596 h 2.41597 v 7.23504 q 1.13087,-0.93811 2.33886,-1.465 1.20798,-0.52688 2.48022,-0.52688 2.32601,0 3.54684,1.40074 1.22083,1.40075 1.22083,4.03518 z m 16.66759,-6.92662 h -10.57627 q 0,1.32364 0.39838,2.31316 0.39837,0.97667 1.09232,1.60636 0.66825,0.61684 1.58066,0.92526 0.92526,0.30842 2.03044,0.30842 1.465,0 2.94285,-0.57829 1.4907,-0.59114 2.12039,-1.15658 h 0.12851 v 2.63443 q -1.22083,0.51404 -2.49307,0.86101 -1.27223,0.34698 -2.67298,0.34698 -3.57254,0 -5.57728,-1.92764 -2.00474,-1.94048 -2.00474,-5.50017 0,-3.52114 1.91478,-5.59013 1.92763,-2.06899 5.06325,-2.06899 2.9043,0 4.47211,1.69631 1.58065,1.69632 1.58065,4.81908 z m -2.35171,-1.85053 q -0.0128,-1.90193 -0.96381,-2.94285 -0.93812,-1.04092 -2.86575,-1.04092 -1.94048,0 -3.09706,1.14373 -1.14373,1.14373 -1.29794,2.84004 z m 18.42816,-5.57728 -8.37877,19.649 h -2.58303 l 2.67298,-5.98851 -5.71864,-13.66049 h 2.62158 l 4.40785,10.64053 4.44641,-10.64053 z"
       id="text2-6-3-9-6-8-4-8"
       style="font-size:26.3186px;white-space:pre;fill:#0f0f0f;stroke:#000000;stroke-width:0"
       transform="matrix(0.35777471,0,0,0.35777471,-137.80496,-87.705365)"
       aria-label="they" />
    <rect
       style="font-variation-settings:normal;opacity:1;vector-effect:none;fill:#000000;fill-opacity:1;stroke:#ea75b3;stroke-width:0;stroke-linecap:butt;stroke-linejoin:miter;stroke-miterlimit:4;stroke-dasharray:none;stroke-dashoffset:0;stroke-opacity:1;-inkscape-stroke:none;stop-color:#000000;stop-opacity:1"
       id="rect1"
       width="9.497468"
       height="0.72323298"
       x="52.868446"
       y="49.990047"
       ry="0.36161649" />
    <g
       id="g140"
       transform="matrix(0.67397221,0,0,0.67397221,108.88747,311.20651)">
      <path
         id="path13"
         d="m -35.335827,-447.5677 c -5.583605,-3.21096 -12.370093,-5.40832 -18.64034,-6.90898 -9.999008,-2.39126 -20.010313,-2.54575 -30.227955,-2.54575 -3.846986,0 -7.568811,0.5533 -11.330834,0.72827 -1.644247,0.0772 -4.107391,-0.65101 -6.020084,-0.65101 l 0.42466,-0.0773 c -3.98429,-0.27585 -8.68469,1.8569 -12.54586,2.70024 -3.34792,0.73297 -6.94096,1.56053 -10.21717,2.46218 -4.83548,1.33041 -12.98377,5.41147 -10.25452,11.62844 1.86619,4.25132 4.83233,7.74284 7.75213,11.35102 5.89414,7.2857 13.67528,12.72712 22.9402,14.55092 13.791611,2.71597 27.760558,2.57254 41.449237,-0.10562 3.066396,-0.60058 6.432605,-1.11916 9.073239,-2.88306 1.81197,-1.21219 3.063246,-3.09904 4.649486,-4.5792 2.133219,-1.98929 4.451027,-3.64913 6.183551,-6.02938 2.804411,-3.85249 6.379799,-7.08707 9.083486,-11.00105 2.287857,-3.31185 0.988819,-6.73717 -2.319226,-8.63976"
         style="fill:#755946;fill-opacity:1;fill-rule:nonzero;stroke:none;stroke-width:0.0157631" />
      <path
         id="path14"
         d="m -105.06281,-426.59804 c 5.714129,4.17721 10.755013,5.72672 24.454093,5.72672 9.905849,0 18.428644,-2.56151 24.145449,-6.70563 -0.7653,-4.12361 -12.030874,-7.7775 -18.148377,-6.17754 -6.69585,1.74969 -14.687428,-0.4272 -18.867329,0.5249 -4.583911,1.04667 -10.053076,2.88939 -11.583836,6.63155"
         style="fill:#ed7d77;fill-opacity:1;fill-rule:nonzero;stroke:none;stroke-width:0.0157631" />
      <path
         id="path15"
         d="m -40.455051,-450.34516 c 0,0 -7.332049,-2.62615 -8.103812,-2.81845 -0.77176,-0.19389 -34.871765,-4.63119 -34.871765,-4.63119 0,0 -34.100002,4.4373 -34.871762,4.63119 -0.77176,0.1923 -8.10366,2.81845 -8.10366,2.81845 0,0 -1.35058,8.75797 0,9.91499 1.35059,1.15859 3.3235,-0.41457 17.55789,-1.54321 15.821431,-1.25317 25.417532,-1.06087 25.417532,-1.06087 0,0 9.596104,-0.1923 25.417531,1.06087 14.234554,1.12864 16.207306,2.7018 17.558046,1.54321 1.350582,-1.15702 0,-9.91499 0,-9.91499"
         style="fill:#ffffff;fill-opacity:1;fill-rule:nonzero;stroke:none;stroke-width:0.0157631" />
      <path
         id="path16"
         d="m -40.455051,-451.91832 c 0,0 -7.332049,-1.80015 -8.103812,-1.93098 -0.77176,-0.1324 -34.871765,-3.17313 -34.871765,-3.17313 0,0 -34.100002,3.04073 -34.871762,3.17313 -0.77176,0.13083 -8.10366,1.93098 -8.10366,1.93098 0,0 -1.35058,5.99942 0,6.79389 1.35059,0.79288 3.1799,0.40669 17.26848,-1.76861 17.654362,-2.72703 35.893218,-2.72703 51.998378,0 14.055643,2.37866 15.333401,2.56149 16.684141,1.76861 1.350582,-0.79447 0,-6.79389 0,-6.79389"
         style="fill:#dbdbdb;fill-opacity:1;fill-rule:nonzero;stroke:none;stroke-width:0.0157631" />
      <path
         id="path17"
         d="m -31.067336,-444.39617 c -0.401643,-3.0612 -10.210392,-10.20818 -23.370849,-13.7801 -13.160454,-3.57349 -28.72841,-3.57349 -28.72841,-3.57349 0,0 -15.567956,0 -28.728415,3.57349 -13.16045,3.57192 -22.9692,10.7189 -23.37084,13.7801 -0.40149,3.06277 2.29967,0 2.29967,0 0.19294,-2.21157 11.96262,-5.27433 24.69684,-6.97518 12.734384,-1.70082 25.102745,-1.70082 25.102745,-1.70082 0,0 12.368519,0 25.102899,1.70082 12.734221,1.70085 24.503741,4.76361 24.696681,6.97518 0,0 2.701322,3.06277 2.299679,0"
         style="fill:#ef615b;fill-opacity:1;fill-rule:nonzero;stroke:none;stroke-width:0.0157631" />
      <path
         id="path18"
         d="m -39.85495,-433.49914 c 0,0 -8.092304,4.07477 -15.881799,5.1167 -7.789495,1.04195 -27.651633,1.43129 -27.651633,1.43129 0,0 -19.747068,-0.20334 -26.284968,-1.00883 -7.83222,-0.9647 -16.00996,-4.95906 -16.00996,-4.95906 l 17.04465,17.11399 25.023919,1.77964 -1.56e-4,0.005 0.03957,-0.003 2.07931,0.1482 -0.0098,-0.31528 24.904914,-2.02554 16.745931,-17.28267"
         style="fill:#ffffff;fill-opacity:1;fill-rule:nonzero;stroke:none;stroke-width:0.0157631" />
      <path
         id="path19"
         d="m -30.812288,-443.59699 c -0.481407,-3.49152 -2.554727,-0.79918 -2.554727,-0.79918 0.355772,4.56814 -16.157336,21.97376 -25.392152,24.92304 -9.235127,2.9477 -40.000604,2.81056 -48.669203,0.005 -9.22158,-2.98553 -25.91407,-20.36119 -25.53781,-24.92777 0,0 -1.9387,-3.51991 -2.29967,0.69517 -0.3613,4.21346 12.4054,25.81365 23.28005,32.13465 10.87449,6.32259 28.938058,7.02402 28.938058,7.02402 l 2.65e-4,-0.10718 c 1.805665,-0.0804 18.506199,-0.97099 28.809749,-6.90422 10.90318,-6.27846 24.003263,-27.8534 23.425389,-32.04324"
         style="fill:#ef615b;fill-opacity:1;fill-rule:nonzero;stroke:none;stroke-width:0.0157631" />
      <path
         id="path20"
         d="m -136.97525,-445.57525 c 0.0735,-3.43951 2.86057,-4.72104 2.2537,-5.83076 -0.9729,-1.77967 -3.18749,0.60529 -3.67091,1.61885 -0.86236,1.80962 -2.30019,9.43264 1.45643,9.24663 1.2906,-0.40036 -0.12649,-0.94734 -0.0392,-5.03472"
         style="fill:#755946;fill-opacity:1;fill-rule:nonzero;stroke:none;stroke-width:0.0157631" />
      <path
         id="path21"
         d="m -27.089834,-447.44319 c -0.285626,-1.51796 -0.776647,-2.74751 -1.754275,-3.71377 -0.465169,-0.45871 -1.122489,-1.08609 -1.73804,-1.21219 l -0.008,-0.0347 c -0.02207,0.006 -0.0424,0.0143 -0.06368,0.022 -0.333705,-0.0473 -0.652121,0.0615 -0.917572,0.43505 -0.508516,0.71565 -0.292878,1.44865 0.16914,2.16114 0.103878,0.35939 0.248899,0.70462 0.41315,0.99621 0.814006,1.44865 1.757902,2.45433 2.102797,4.28758 0.358926,1.90733 0.119171,3.60502 -0.09679,5.42724 -0.06242,0.52805 -0.291618,1.65039 0.219896,1.99403 0.520813,0.34835 1.038,-0.52964 1.236773,-1.02145 1.065901,-2.6356 0.983459,-6.43451 0.436637,-9.34122"
         style="fill:#755946;fill-opacity:1;fill-rule:nonzero;stroke:none;stroke-width:0.0157631" />
    </g>
  </g>
</svg>
