<?xml version="1.0" encoding="UTF-8" standalone="no"?>
<!-- Created with Inkscape (http://www.inkscape.org/) -->

<svg
   width="400"
   height="300"
   viewBox="0 0 105.83333 79.375"
   version="1.1"
   id="svg1"
   inkscape:version="1.3.2 (091e20e, 2023-11-25, custom)"
   sodipodi:docname="Mou_0_0.svg"
   xmlns:inkscape="http://www.inkscape.org/namespaces/inkscape"
   xmlns:sodipodi="http://sodipodi.sourceforge.net/DTD/sodipodi-0.dtd"
   xmlns="http://www.w3.org/2000/svg"
   xmlns:svg="http://www.w3.org/2000/svg">
  <sodipodi:namedview
     id="namedview1"
     pagecolor="#ffffff"
     bordercolor="#000000"
     borderopacity="0.25"
     inkscape:showpageshadow="2"
     inkscape:pageopacity="0.0"
     inkscape:pagecheckerboard="0"
     inkscape:deskcolor="#d1d1d1"
     inkscape:document-units="mm"
     inkscape:zoom="0.9007973"
     inkscape:cx="263.65532"
     inkscape:cy="102.68681"
     inkscape:window-width="1536"
     inkscape:window-height="953"
     inkscape:window-x="-8"
     inkscape:window-y="-8"
     inkscape:window-maximized="1"
     inkscape:current-layer="layer1" />
  <defs
     id="defs1">
    <rect
       x="503.93228"
       y="352.21072"
       width="93.659676"
       height="32.47094"
       id="rect2-7-77-5-8-3" />
    <rect
       x="503.93228"
       y="352.21072"
       width="93.659676"
       height="32.47094"
       id="rect2-7-7-0-7-9-0-8" />
    <rect
       x="503.93228"
       y="352.21072"
       width="93.659676"
       height="32.47094"
       id="rect2-7-7-0-7-9-0-8-3" />
    <rect
       x="503.93228"
       y="352.21072"
       width="93.659676"
       height="32.47094"
       id="rect2-7-7-0-7-9-0-8-3-0" />
    <rect
       x="503.93228"
       y="352.21072"
       width="93.659676"
       height="32.47094"
       id="rect2-7-7-0-7-9-0-8-9" />
  </defs>
  <g
     inkscape:label="Layer 1"
     inkscape:groupmode="layer"
     id="layer1">
    <g
       id="g1"
       transform="matrix(1.5468257,0,0,1.5468257,-80.12082,-9.0038141)">
      <path
         style="fill:#ef615b;stroke-width:0.26275"
         d="m 61.431982,14.176813 c 0,0 7.593685,-3.42439 9.587785,-4.38726 1.994099,-0.96287 7.769509,-3.96872 10.143437,-3.96872 2.373925,0 2.583695,2.09734 5.147541,2.09734 2.56384,0 2.360433,-1.92912 5.867822,-1.95594 4.554248,-0.0348 18.915983,8.7923 18.915983,8.7923 0,0 0.28487,0 0.28487,0.86658 0,0.86658 -11.461007,11.882183 -17.851935,12.32471 -4.939414,0.342019 -6.771855,0.311115 -8.386003,0.331041 -1.922838,0.02373 -2.248928,0.408508 -8.350029,-0.639397 -6.744261,-1.158373 -15.600189,-10.738129 -15.695146,-11.893569 -0.09496,-1.15544 0.335675,-1.567085 0.335675,-1.567085 z"
         id="path1"
         sodipodi:nodetypes="csssscsssssc" />
      <path
         style="fill:#755946;fill-opacity:1;stroke-width:0.26275"
         d="m 61.164141,14.807094 c 0,0 11.895282,0.625259 13.284254,0.625259 1.388981,0 6.159449,-0.139619 7.214714,0.01358 1.034708,0.08237 2.891938,1.256298 4.771143,1.173448 1.879206,-0.0828 4.053963,-1.348785 5.634739,-1.425575 2.013031,-0.0978 7.658111,0.67525 10.109249,0.5924 2.45113,-0.0829 9.0703,-0.7435 9.0703,-0.7435 0,0 0.38939,-0.0955 -0.0191,0.56732 -0.40852,0.66279 -11.443747,1.524297 -11.443747,1.524297 0,0 -6.520758,0.558673 -7.607381,0.700643 -0.726665,0.0949 -5.229083,0.82849 -6.291249,0.82849 -1.062157,0 -10.866701,-2.07122 -12.255673,-1.98837 -1.388981,0.0828 -11.797231,-1.018036 -12.532572,-1.100886 -0.09909,9.1e-4 -0.01398,0.02093 0.01195,-0.500076 z"
         id="path2"
         sodipodi:nodetypes="csccsccscsscccc" />
    </g>
  </g>
</svg>
