<?xml version="1.0" encoding="UTF-8" standalone="no"?>
<!-- Created with Inkscape (http://www.inkscape.org/) -->

<svg
   width="400"
   height="300"
   viewBox="0 0 105.83333 79.375"
   version="1.1"
   id="svg1"
   inkscape:version="1.3.2 (091e20e, 2023-11-25, custom)"
   sodipodi:docname="Mou_OW_ou.svg"
   xmlns:inkscape="http://www.inkscape.org/namespaces/inkscape"
   xmlns:sodipodi="http://sodipodi.sourceforge.net/DTD/sodipodi-0.dtd"
   xmlns="http://www.w3.org/2000/svg"
   xmlns:svg="http://www.w3.org/2000/svg">
  <sodipodi:namedview
     id="namedview1"
     pagecolor="#ffffff"
     bordercolor="#000000"
     borderopacity="0.25"
     inkscape:showpageshadow="2"
     inkscape:pageopacity="0.0"
     inkscape:pagecheckerboard="0"
     inkscape:deskcolor="#d1d1d1"
     inkscape:document-units="mm"
     inkscape:zoom="3.6031894"
     inkscape:cx="208.70399"
     inkscape:cy="177.75918"
     inkscape:window-width="1536"
     inkscape:window-height="953"
     inkscape:window-x="-8"
     inkscape:window-y="-8"
     inkscape:window-maximized="1"
     inkscape:current-layer="layer1" />
  <defs
     id="defs1">
    <rect
       x="503.93228"
       y="352.21072"
       width="93.659676"
       height="32.47094"
       id="rect2-7-77-5-8-3" />
    <rect
       x="503.93228"
       y="352.21072"
       width="93.659676"
       height="32.47094"
       id="rect2-7-7-0-7-9-0-8" />
    <rect
       x="503.93228"
       y="352.21072"
       width="93.659676"
       height="32.47094"
       id="rect2-7-7-0-7-9-0-8-3" />
    <rect
       x="503.93228"
       y="352.21072"
       width="93.659676"
       height="32.47094"
       id="rect2-7-7-0-7-9-0-8-3-0" />
    <rect
       x="503.93228"
       y="352.21072"
       width="93.659676"
       height="32.47094"
       id="rect2-7-7-0-7-9-0-8-9" />
    <rect
       x="503.93228"
       y="352.21072"
       width="120.85421"
       height="37.807226"
       id="rect2-7-7-0-7-9-0-8-3-0-3" />
    <clipPath
       clipPathUnits="userSpaceOnUse"
       id="clipPath1">
      <path
         style="display:none;fill:#755946;fill-opacity:1;stroke-width:0.554387"
         d="m 87.892501,-53.926875 c 9.020297,-8.611809 13.304949,-12.335835 15.109009,-12.335835 1.80406,0 2.92657,2.219859 6.53973,2.094764 3.89286,-0.134776 7.6667,-2.11968 7.6667,-2.11968 0,0 4.58391,1.23386 6.65877,3.564895 l 8.45077,9.49411 c 0,0 -10.14783,12.801341 -20.97219,13.034092 -10.82437,0.232751 -23.452789,-13.732346 -23.452789,-13.732346 z"
         id="path1"
         sodipodi:nodetypes="csscscsc" />
      <path
         id="lpe_path-effect1"
         style="fill:#755946;fill-opacity:1;stroke-width:0.554387"
         class="powerclip"
         d="m 77.764743,-81.401118 h 64.655197 v 55.814889 H 77.764743 Z m 10.127758,27.474243 c 0,0 12.628419,13.965097 23.452789,13.732346 10.82436,-0.232751 20.97219,-13.034092 20.97219,-13.034092 l -8.45077,-9.49411 c -2.07486,-2.331035 -6.65877,-3.564895 -6.65877,-3.564895 0,0 -3.77384,1.984904 -7.6667,2.11968 -3.61316,0.125095 -4.73567,-2.094764 -6.53973,-2.094764 -1.80406,0 -6.088712,3.724026 -15.109009,12.335835 z" />
    </clipPath>
    <inkscape:path-effect
       effect="powerclip"
       id="path-effect1"
       is_visible="true"
       lpeversion="1"
       inverse="true"
       flatten="false"
       hide_clip="false"
       message="Use fill-rule evenodd on &lt;b&gt;fill and stroke&lt;/b&gt; dialog if no flatten result after convert clip to paths." />
  </defs>
  <g
     inkscape:label="Layer 1"
     inkscape:groupmode="layer"
     id="layer1">
    <path
       d="m 518.54309,369.0514 q 0,3.50829 -1.79912,5.53873 -1.79913,2.03044 -4.81908,2.03044 -3.04566,0 -4.84478,-2.03044 -1.78628,-2.03044 -1.78628,-5.53873 0,-3.50829 1.78628,-5.53873 1.79912,-2.04328 4.84478,-2.04328 3.01995,0 4.81908,2.04328 1.79912,2.03044 1.79912,5.53873 z m -2.49307,0 q 0,-2.78864 -1.09233,-4.13798 -1.09232,-1.36219 -3.0328,-1.36219 -1.96619,0 -3.05851,1.36219 -1.07948,1.34934 -1.07948,4.13798 0,2.69869 1.09233,4.09943 1.09232,1.3879 3.04566,1.3879 1.92763,0 3.01995,-1.37505 1.10518,-1.38789 1.10518,-4.11228 z m 18.13259,7.17079 h -2.41597 v -1.59351 q -1.22083,0.96382 -2.33886,1.47786 -1.11802,0.51403 -2.46736,0.51403 -2.26176,0 -3.52115,-1.37504 -1.25938,-1.3879 -1.25938,-4.06088 v -9.31689 h 2.41596 v 8.17316 q 0,1.09233 0.10281,1.87623 0.10281,0.77105 0.43693,1.32364 0.34697,0.56544 0.89956,0.82246 0.55259,0.25701 1.60636,0.25701 0.93812,0 2.04329,-0.48833 1.11803,-0.48833 2.08184,-1.24653 v -10.71764 h 2.41597 z m 12.20833,-0.1285 q -0.68109,0.17991 -1.4907,0.29557 -0.79675,0.11565 -1.42645,0.11565 -2.1975,0 -3.34123,-1.18228 -1.14372,-1.18228 -1.14372,-3.79101 v -7.63342 h -1.63207 v -2.03044 h 1.63207 v -4.12513 h 2.41596 v 4.12513 h 4.98614 v 2.03044 h -4.98614 v 6.5411 q 0,1.13088 0.0514,1.77342 0.0514,0.62969 0.35982,1.18228 0.28272,0.51404 0.77105,0.7582 0.50119,0.23132 1.51641,0.23132 0.59114,0 1.23368,-0.16706 0.64254,-0.17992 0.92526,-0.29557 h 0.12851 z"
       id="text2-6-3-9-6-8-4-8"
       style="font-size:26.3186px;white-space:pre;fill:#0f0f0f;stroke:#000000;stroke-width:0"
       transform="matrix(0.35777471,0,0,0.35777471,-137.29461,-79.238693)"
       aria-label="out" />
    <rect
       style="fill:#000000;fill-opacity:1;stroke:#ea75b3;stroke-width:0"
       id="rect1"
       width="8.4516258"
       height="0.72323298"
       x="44.463905"
       y="-57.063286"
       ry="0.36161649"
       transform="scale(1,-1)" />
    <g
       id="g2"
       transform="matrix(0.88148586,0,0,0.88148586,6.271374,5.492336)">
      <path
         style="fill:#755946;fill-opacity:1;stroke-width:0.637913"
         d="M 28.936326,18.989362 C 38.67453,8.4277501 43.300183,3.8605624 45.247824,3.8605624 c 1.947642,0 3.159501,2.7224597 7.060219,2.5690408 4.20269,-0.1652889 8.27688,-2.5995946 8.27688,-2.5995946 0,0 4.94874,1.5132186 7.18874,4.3720231 l 9.12335,11.6436763 c 0,0 -10.95548,15.699697 -22.64133,15.985148 C 42.569809,36.116304 28.936326,18.989362 28.936326,18.989362 Z"
         id="path67-71"
         sodipodi:nodetypes="csscscsc" />
      <path
         id="path33-5"
         d="m 74.689751,6.0854955 c 0,0 -3.656242,-1.991352 -4.041204,-2.137074 -0.384949,-0.146909 -17.391558,-3.51157694 -17.391558,-3.51157694 0,0 -17.005817,3.36466794 -17.390768,3.51157694 -0.384951,0.145722 -4.041207,2.137074 -4.041207,2.137074 0,0 -0.674065,6.6406975 0,7.5185915 0.673262,0.877915 1.942329,0.414064 9.04479,-0.366696 8.660644,-0.950754 16.743058,-1.243386 24.633798,-0.292631 7.098467,0.856045 8.512892,1.537242 9.186149,0.659327 0.673276,-0.877894 0,-7.5185915 0,-7.5185915"
         style="display:inline;fill:#ffffff;fill-opacity:1;fill-rule:nonzero;stroke:none;stroke-width:0.00984763" />
      <path
         id="path34-0"
         d="m 74.689751,6.4794006 c 0,0 -3.656242,-1.363594 -4.041204,-1.46438 -0.384949,-0.09956 -17.391558,-2.405413 -17.391558,-2.405413 0,0 -17.005817,2.305852 -17.390768,2.405413 -0.384951,0.100786 -4.041207,1.46438 -4.041207,1.46438 0,0 -0.674065,4.5497654 0,5.1508234 0.673262,0.602259 1.586133,0.309628 8.611928,-1.339323 8.80439,-2.0678394 17.90031,-2.0678394 25.932398,0 7.009817,1.803153 7.647154,1.941582 8.320411,1.339323 0.673276,-0.601058 0,-5.1508234 0,-5.1508234"
         style="display:inline;fill:#dbdbdb;fill-opacity:1;fill-rule:nonzero;stroke:none;stroke-width:0.00984763" />
      <path
         id="path36-2-2"
         d="m 70.31218,29.759292 c 0,0 -3.296694,0.73219 -6.736751,0.877894 -2.918967,0.125079 -17.191381,0.104433 -19.637435,0 -3.440056,-0.145704 -6.737353,-0.292631 -6.737353,-0.292631 l 7.030024,12.30757 9.295246,1.349044 v 0.0037 l 0.01427,-0.0024 0.772723,0.112913 -0.0036,-0.240415 9.250624,-1.534796 6.752218,-12.580799"
         style="display:inline;fill:#ffffff;fill-opacity:1;fill-rule:nonzero;stroke:none;stroke-width:0.00849881" />
      <path
         style="fill:#ef615b;fill-opacity:1;stroke-width:0.461993"
         d="m 82.813987,-54.42903 c -0.287384,-2.540522 0.587906,-10.184026 5.171263,-14.422943 2.65693,-2.457274 9.964557,-7.480482 14.75437,-7.41182 4.7898,0.06867 5.07721,1.647908 7.28052,1.647908 2.20331,0 6.03517,-1.785233 9.10065,-1.785233 3.06549,0 11.41288,3.78084 14.46523,7.690231 2.47062,3.164343 3.73607,10.024765 3.83185,14.625171 0.0957,4.600406 -3.13154,14.227409 -7.84741,17.301766 -6.36599,4.150089 -11.50342,5.837589 -20.50827,6.180903 -9.00487,0.343314 -16.290534,-4.660791 -18.967677,-6.660289 -4.579871,-3.420603 -7.280526,-17.165694 -7.280526,-17.165694 z"
         id="path68-9-7"
         sodipodi:nodetypes="csssssssssc"
         clip-path="url(#clipPath1)"
         inkscape:path-effect="#path-effect1"
         inkscape:original-d="m 82.813987,-54.42903 c -0.287384,-2.540522 0.587906,-10.184026 5.171263,-14.422943 2.65693,-2.457274 9.964557,-7.480482 14.75437,-7.41182 4.7898,0.06867 5.07721,1.647908 7.28052,1.647908 2.20331,0 6.03517,-1.785233 9.10065,-1.785233 3.06549,0 11.41288,3.78084 14.46523,7.690231 2.47062,3.164343 3.73607,10.024765 3.83185,14.625171 0.0957,4.600406 -3.13154,14.227409 -7.84741,17.301766 -6.36599,4.150089 -11.50342,5.837589 -20.50827,6.180903 -9.00487,0.343314 -16.290534,-4.660791 -18.967677,-6.660289 -4.579871,-3.420603 -7.280526,-17.165694 -7.280526,-17.165694 z"
         transform="matrix(0.92684066,0,0,1.1359988,-49.121394,80.560808)" />
    </g>
  </g>
</svg>
