<?xml version="1.0" encoding="UTF-8" standalone="no"?>
<!-- Created with Inkscape (http://www.inkscape.org/) -->

<svg
   width="400"
   height="300"
   viewBox="0 0 105.83333 79.375"
   version="1.1"
   id="svg1"
   inkscape:version="1.3.2 (091e20e, 2023-11-25, custom)"
   sodipodi:docname="Mou_V_ve.svg"
   xmlns:inkscape="http://www.inkscape.org/namespaces/inkscape"
   xmlns:sodipodi="http://sodipodi.sourceforge.net/DTD/sodipodi-0.dtd"
   xmlns="http://www.w3.org/2000/svg"
   xmlns:svg="http://www.w3.org/2000/svg">
  <sodipodi:namedview
     id="namedview1"
     pagecolor="#ffffff"
     bordercolor="#000000"
     borderopacity="0.25"
     inkscape:showpageshadow="2"
     inkscape:pageopacity="0.0"
     inkscape:pagecheckerboard="0"
     inkscape:deskcolor="#d1d1d1"
     inkscape:document-units="mm"
     inkscape:zoom="1.8015947"
     inkscape:cx="164.29889"
     inkscape:cy="126.27701"
     inkscape:window-width="1536"
     inkscape:window-height="953"
     inkscape:window-x="-8"
     inkscape:window-y="-8"
     inkscape:window-maximized="1"
     inkscape:current-layer="layer1" />
  <defs
     id="defs1">
    <rect
       x="503.93228"
       y="352.21072"
       width="93.659676"
       height="32.47094"
       id="rect2-7-77-5-8-3" />
    <rect
       x="503.93228"
       y="352.21072"
       width="93.659676"
       height="32.47094"
       id="rect2-7-7-0-7-9-0-8" />
    <rect
       x="503.93228"
       y="352.21072"
       width="93.659676"
       height="32.47094"
       id="rect2-7-7-0-7-9-0-8-3" />
    <rect
       x="503.93228"
       y="352.21072"
       width="93.659676"
       height="32.47094"
       id="rect2-7-7-0-7-9-0-8-3-0" />
    <rect
       x="503.93228"
       y="352.21072"
       width="93.659676"
       height="32.47094"
       id="rect2-7-7-0-7-9-0-8-9" />
    <rect
       x="503.93228"
       y="352.21072"
       width="93.659676"
       height="32.47094"
       id="rect2-7-7-0-7-9-0-8-3-0-3" />
    <rect
       x="503.93228"
       y="352.21072"
       width="93.659676"
       height="32.47094"
       id="rect2-7-7-0-7-9-0-8-3-0-3-3" />
    <rect
       x="503.93228"
       y="352.21072"
       width="93.659676"
       height="32.47094"
       id="rect2-7-7-0-7-9-0-8-3-0-3-9" />
    <rect
       x="503.93228"
       y="352.21072"
       width="93.659676"
       height="32.47094"
       id="rect2-7-7-0-7-9-0-8-3-0-3-4" />
    <rect
       x="503.93228"
       y="352.21072"
       width="93.659676"
       height="32.47094"
       id="rect2-7-7-0-7-9-0-8-3-0-3-6" />
    <rect
       x="503.93228"
       y="352.21072"
       width="93.659676"
       height="32.47094"
       id="rect2-7-7-0-7-9-0-8-3-0-3-2" />
    <rect
       x="503.93228"
       y="352.21072"
       width="93.659676"
       height="32.47094"
       id="rect2-7-7-0-7-9-0-8-3-0-3-0" />
    <rect
       x="503.93228"
       y="352.21072"
       width="93.659676"
       height="32.47094"
       id="rect2-7-7-0-7-9-0-8-3-0-3-8" />
    <rect
       x="503.93228"
       y="352.21072"
       width="93.659676"
       height="32.47094"
       id="rect2-7-7-0-7-9-0-8-3-0-3-5" />
    <rect
       x="503.93228"
       y="352.21072"
       width="118.69917"
       height="34.933841"
       id="rect2-7-7-0-7-9-0-8-3-0-3-98" />
    <rect
       x="503.93228"
       y="352.21072"
       width="93.659676"
       height="32.47094"
       id="rect2-7-7-0-7-9-0-8-3-0-3-24" />
    <rect
       x="503.93228"
       y="352.21072"
       width="93.659676"
       height="32.47094"
       id="rect2-7-7-0-7-9-0-8-3-0-3-24-0" />
    <rect
       x="503.93228"
       y="352.21072"
       width="93.659676"
       height="32.47094"
       id="rect2-7-7-0-7-9-0-8-3-0-3-24-7" />
    <rect
       x="503.93228"
       y="352.21072"
       width="93.659676"
       height="32.47094"
       id="rect2-7-7-0-7-9-0-8-3-0-3-24-8" />
    <rect
       x="503.93228"
       y="352.21072"
       width="93.659676"
       height="32.47094"
       id="rect2-7-7-0-7-9-0-8-3-0-3-24-9" />
    <rect
       x="503.93228"
       y="352.21072"
       width="93.659676"
       height="32.47094"
       id="rect2-7-7-0-7-9-0-8-3-0-3-24-79" />
  </defs>
  <g
     inkscape:label="Layer 1"
     inkscape:groupmode="layer"
     id="layer1">
    <g
       id="g61"
       transform="matrix(0.19626597,0,0,0.19626597,16.947562,-105.57186)">
      <path
         id="path40-2"
         d="m 278.54948,557.02159 c -35.4602,-8.95443 -72.6602,-13.1427 -110.6525,-13.1427 -41.835,0 -84.379,11.6771 -119.3924,35.29942 -23.0504,15.55557 -53.0713,53.48234 -53.0713,53.48234 1.1081,21.24519 75.1148,11.45072 89.0201,11.46263 69.7945,0.0774 141.3347,2.27585 211.302,0 18.88,-0.61364 58.4392,4.84958 72.684,-5.55854 13.5896,-9.9315 -58.4808,-73.60748 -89.8899,-81.54315"
         style="display:inline;fill:#755946;fill-opacity:1;fill-rule:nonzero;stroke:none;stroke-width:0.0595771" />
      <path
         id="path41-3"
         d="m 378.80588,638.46346 c 1.1498,9.00805 -33.0415,13.42867 -87.8286,11.31964 -71.2125,-2.74054 -125.9936,-4.92702 -208.7104,-0.54811 -53.0772,2.81204 -92.8628,-2.25797 -94.5548,-11.17666 -1.6979,-8.91273 388.9013,-16.75903 391.0938,0.40513"
         style="display:inline;fill:#ef615b;fill-opacity:1;fill-rule:nonzero;stroke:none;stroke-width:0.0595771" />
      <path
         id="path42-0"
         d="m 331.16798,601.01926 c 0,0 -22.8061,-20.31578 -25.6777,-21.03666 -2.8716,-0.71493 -123.7773,-18.79061 -123.7773,-18.79061 0,0 -126.2141,19.80342 -129.0857,20.5243 -2.8716,0.71493 -20.4588,19.15403 -20.4588,19.15403 0,0 -8.7399,25.64198 -3.7176,29.9494 5.0224,4.30742 7.7867,3.82485 60.7686,0 64.5995,-4.66489 122.2522,-5.85643 181.1144,-1.19154 52.9521,4.19422 58.7251,3.11588 63.7474,-1.19154 5.0224,-4.30743 -2.9133,-27.41738 -2.9133,-27.41738"
         style="display:inline;fill:#ffffff;fill-opacity:1;fill-rule:nonzero;stroke:none;stroke-width:0.0595771" />
      <path
         id="path43-4"
         d="m 329.31518,592.55932 c 0,0 -23.2649,-12.18351 -26.1365,-12.67205 -2.8716,-0.49449 -120.4887,-16.74711 -120.4887,-16.74711 0,0 -115.2518,12.03457 -117.7898,13.45846 -9.0438,5.07001 -30.7895,16.09177 -30.7895,16.09177 0,0 -8.6386,23.23506 -5.9577,24.4266 0,0 6.488,-8.19781 58.9039,-16.28837 65.6778,-10.14598 133.5301,-10.14598 193.4408,0 52.2908,8.84719 53.8696,11.2124 53.8696,11.2124 l -5.0521,-19.4817"
         style="display:inline;fill:#dbdbdb;fill-opacity:1;fill-rule:nonzero;stroke:none;stroke-width:0.0595771" />
      <path
         id="path44-4"
         d="m 371.61488,642.73514 c -16.7769,-24.71854 -64.2539,-53.89343 -93.2381,-62.65126 -35.8595,-10.83112 -161.9782,-8.92465 -195.5558,1.64433 -29.02,9.13316 -70.2652,30.43793 -86.494,55.29348 0,0 -8.9962,2.44862 -8.6149,1.03664 9.1272,-33.95893 54.6918,-64.60538 85.2489,-81.80528 42.0852,-23.67594 176.0502,-24.3849 216.0979,-2.46054 30.9861,16.9616 83.9203,60.11923 89.7648,84.58754 0.1251,0.51832 -7.2088,4.35509 -7.2088,4.35509"
         style="display:inline;fill:#ef615b;fill-opacity:1;fill-rule:nonzero;stroke:none;stroke-width:0.0595771" />
    </g>
    <g
       id="g43"
       transform="matrix(0.94047631,0,0,0.94047631,-180.78112,-75.305243)">
      <g
         id="g3"
         transform="translate(-0.60117365,-2.6458334)">
        <g
           id="g4"
           transform="translate(25.491911)">
          <g
             id="g5"
             transform="translate(-2.5191349)">
            <g
               id="g6"
               transform="translate(10.996074)">
              <g
                 id="g7"
                 transform="translate(-0.55361053)">
                <g
                   id="g60"
                   transform="translate(6.5118517)">
                  <g
                     id="g59"
                     transform="translate(-10.478233)">
                    <path
                       d="m 517.95195,374.59013 q 0,3.64965 -1.65776,5.35882 -1.65777,1.70917 -5.1018,1.70917 -1.14373,0 -2.23606,-0.16707 -1.07947,-0.15421 -2.13324,-0.44978 v -2.46737 h 0.12851 q 0.59114,0.23132 1.87623,0.56544 1.28508,0.34698 2.57017,0.34698 1.23369,0 2.04329,-0.29557 0.80961,-0.29557 1.25939,-0.82246 0.44978,-0.50118 0.64254,-1.20798 0.19276,-0.7068 0.19276,-1.58066 v -1.31079 q -1.09232,0.87386 -2.09469,1.31079 -0.98952,0.42408 -2.53162,0.42408 -2.57018,0 -4.08658,-1.85053 -1.50355,-1.86337 -1.50355,-5.24316 0,-1.85052 0.51403,-3.18701 0.52689,-1.34935 1.42645,-2.32601 0.83531,-0.91242 2.03044,-1.4136 1.19513,-0.51403 2.37741,-0.51403 1.24653,0 2.08184,0.25701 0.84816,0.24417 1.78627,0.7582 l 0.15421,-0.61684 h 2.26176 z m -2.41597,-2.31316 v -7.82618 q -0.96381,-0.43693 -1.79912,-0.61684 -0.82246,-0.19277 -1.64491,-0.19277 -1.99189,0 -3.13562,1.33649 -1.14372,1.3365 -1.14372,3.88097 0,2.41597 0.84815,3.6625 0.84816,1.24654 2.81435,1.24654 1.05377,0 2.10754,-0.39838 1.06662,-0.41123 1.95333,-1.09233 z m 9.76667,-12.81232 h -2.72438 v -2.50592 h 2.72438 z m -0.15421,16.75754 h -2.41596 v -14.35443 h 2.41596 z m 17.19448,-14.35443 -5.8086,14.35443 h -2.42882 l -5.77004,-14.35443 h 2.62158 l 4.4464,11.42443 4.40785,-11.42443 z m 14.94557,7.42781 h -10.57627 q 0,1.32364 0.39838,2.31316 0.39837,0.97667 1.09232,1.60636 0.66825,0.61684 1.58066,0.92526 0.92526,0.30842 2.03044,0.30842 1.465,0 2.94285,-0.57829 1.4907,-0.59114 2.12039,-1.15658 h 0.12851 v 2.63443 q -1.22083,0.51404 -2.49307,0.86101 -1.27223,0.34698 -2.67298,0.34698 -3.57254,0 -5.57728,-1.92764 -2.00474,-1.94048 -2.00474,-5.50017 0,-3.52114 1.91478,-5.59013 1.92763,-2.06899 5.06325,-2.06899 2.9043,0 4.4721,1.69631 1.58066,1.69632 1.58066,4.81908 z m -2.35171,-1.85053 q -0.0128,-1.90193 -0.96381,-2.94285 -0.93812,-1.04092 -2.86575,-1.04092 -1.94048,0 -3.09706,1.14373 -1.14373,1.14373 -1.29794,2.84004 z"
                       id="text2-6-3-9-6-8-4-8"
                       style="font-size:26.3186px;white-space:pre;fill:#0f0f0f;stroke:#000000;stroke-width:0"
                       transform="matrix(0.38041863,0,0,0.38041863,17.523125,-20.104295)"
                       aria-label="give" />
                    <path
                       id="rect1"
                       style="stroke:#ea75b3;stroke-width:0"
                       d="m 220.30481,124.05537 h 9.46677 c 0.21302,0 0.38451,0.17149 0.38451,0.3845 0,0.21302 -0.17149,0.3845 -0.38451,0.3845 h -9.46677 c -0.21302,0 -0.38451,-0.17148 -0.38451,-0.3845 0,-0.21301 0.17149,-0.3845 0.38451,-0.3845 z" />
                  </g>
                </g>
              </g>
            </g>
          </g>
        </g>
      </g>
    </g>
  </g>
</svg>
