<?xml version="1.0" encoding="UTF-8" standalone="no"?>
<!-- Created with Inkscape (http://www.inkscape.org/) -->

<svg
   width="400"
   height="300"
   viewBox="0 0 105.83333 79.375"
   version="1.1"
   id="svg1"
   inkscape:version="1.3.2 (091e20e, 2023-11-25, custom)"
   sodipodi:docname="Mou_P_pp.svg"
   xmlns:inkscape="http://www.inkscape.org/namespaces/inkscape"
   xmlns:sodipodi="http://sodipodi.sourceforge.net/DTD/sodipodi-0.dtd"
   xmlns="http://www.w3.org/2000/svg"
   xmlns:svg="http://www.w3.org/2000/svg">
  <sodipodi:namedview
     id="namedview1"
     pagecolor="#ffffff"
     bordercolor="#000000"
     borderopacity="0.25"
     inkscape:showpageshadow="2"
     inkscape:pageopacity="0.0"
     inkscape:pagecheckerboard="0"
     inkscape:deskcolor="#d1d1d1"
     inkscape:document-units="mm"
     inkscape:zoom="1.8015947"
     inkscape:cx="200.9331"
     inkscape:cy="126.27701"
     inkscape:window-width="1536"
     inkscape:window-height="953"
     inkscape:window-x="-8"
     inkscape:window-y="-8"
     inkscape:window-maximized="1"
     inkscape:current-layer="g6" />
  <defs
     id="defs1">
    <rect
       x="503.93228"
       y="352.21072"
       width="93.659676"
       height="32.47094"
       id="rect2-7-77-5-8-3" />
    <rect
       x="503.93228"
       y="352.21072"
       width="93.659676"
       height="32.47094"
       id="rect2-7-7-0-7-9-0-8" />
    <rect
       x="503.93228"
       y="352.21072"
       width="93.659676"
       height="32.47094"
       id="rect2-7-7-0-7-9-0-8-3" />
    <rect
       x="503.93228"
       y="352.21072"
       width="93.659676"
       height="32.47094"
       id="rect2-7-7-0-7-9-0-8-3-0" />
    <rect
       x="503.93228"
       y="352.21072"
       width="93.659676"
       height="32.47094"
       id="rect2-7-7-0-7-9-0-8-9" />
    <rect
       x="503.93228"
       y="352.21072"
       width="93.659676"
       height="32.47094"
       id="rect2-7-7-0-7-9-0-8-3-0-3" />
    <rect
       x="503.93228"
       y="352.21072"
       width="93.659676"
       height="32.47094"
       id="rect2-7-7-0-7-9-0-8-3-0-3-3" />
    <rect
       x="503.93228"
       y="352.21072"
       width="93.659676"
       height="32.47094"
       id="rect2-7-7-0-7-9-0-8-3-0-3-9" />
    <rect
       x="503.93228"
       y="352.21072"
       width="93.659676"
       height="32.47094"
       id="rect2-7-7-0-7-9-0-8-3-0-3-4" />
    <rect
       x="503.93228"
       y="352.21072"
       width="93.659676"
       height="32.47094"
       id="rect2-7-7-0-7-9-0-8-3-0-3-6" />
    <rect
       x="503.93228"
       y="352.21072"
       width="93.659676"
       height="32.47094"
       id="rect2-7-7-0-7-9-0-8-3-0-3-2" />
    <rect
       x="503.93228"
       y="352.21072"
       width="93.659676"
       height="32.47094"
       id="rect2-7-7-0-7-9-0-8-3-0-3-0" />
    <rect
       x="503.93228"
       y="352.21072"
       width="93.659676"
       height="32.47094"
       id="rect2-7-7-0-7-9-0-8-3-0-3-8" />
    <rect
       x="503.93228"
       y="352.21072"
       width="93.659676"
       height="32.47094"
       id="rect2-7-7-0-7-9-0-8-3-0-3-5" />
    <rect
       x="503.93228"
       y="352.21072"
       width="118.69917"
       height="34.933841"
       id="rect2-7-7-0-7-9-0-8-3-0-3-98" />
    <rect
       x="503.93228"
       y="352.21072"
       width="93.659676"
       height="32.47094"
       id="rect2-7-7-0-7-9-0-8-3-0-3-24" />
    <rect
       x="503.93228"
       y="352.21072"
       width="93.659676"
       height="32.47094"
       id="rect2-7-7-0-7-9-0-8-3-0-3-24-0" />
    <rect
       x="503.93228"
       y="352.21072"
       width="93.659676"
       height="32.47094"
       id="rect2-7-7-0-7-9-0-8-3-0-3-24-7" />
    <rect
       x="503.93228"
       y="352.21072"
       width="93.659676"
       height="32.47094"
       id="rect2-7-7-0-7-9-0-8-3-0-3-24-8" />
    <rect
       x="503.93228"
       y="352.21072"
       width="93.659676"
       height="32.47094"
       id="rect2-7-7-0-7-9-0-8-3-0-3-24-9" />
    <rect
       x="503.93228"
       y="352.21072"
       width="93.659676"
       height="32.47094"
       id="rect2-7-7-0-7-9-0-8-3-0-3-24-79" />
    <rect
       x="503.93228"
       y="352.21072"
       width="93.659676"
       height="32.47094"
       id="rect2-7-7-0-7-9-0-8-3-0-3-7" />
  </defs>
  <g
     inkscape:label="Layer 1"
     inkscape:groupmode="layer"
     id="layer1">
    <g
       id="g2"
       transform="matrix(0.7155334,0,0,0.7155334,11.093587,239.39926)">
      <path
         id="path75"
         d="m 111.54224,-328.25994 c -0.37359,2.3755 -10.00011,4.13151 -24.782753,5.65265 -19.035521,1.95935 -39.24697,0.7787 -57.174346,0.43506 -13.912514,-0.2664 -24.3249902,-3.94551 -24.7835396,-6.30524 -0.4585467,-2.35816 107.1142286,-2.15639 106.7406386,0.21753"
         style="fill:#ef615b;fill-opacity:1;fill-rule:nonzero;stroke:none;stroke-width:0.0157631"
         sodipodi:nodetypes="ccccc" />
      <path
         id="path76"
         d="m 112.80486,-329.00238 c -0.42088,-2.36604 -11.40146,-5.0174 -25.481053,-4.69741 -19.361817,0.43822 -43.123117,0.22699 -60.944881,0.0126 -14.081181,-0.16866 -22.4291612,2.3424 -22.8497217,4.70844 -0.4207166,2.36762 109.6981157,2.34398 109.2756557,-0.0237"
         style="fill:#ef615b;fill-opacity:1;fill-rule:nonzero;stroke:none;stroke-width:0.0157631" />
      <path
         id="path77"
         d="m 2.6277133,-329.34602 c 0.072353,-1.0845 111.7408567,3.04386 111.5233167,0.86855 -0.21754,-2.17373 -111.7406904,2.39126 -111.5233167,-0.86855"
         style="fill:#755946;fill-opacity:1;fill-rule:nonzero;stroke:none;stroke-width:0.0157631" />
      <path
         id="path78"
         d="m 2.1666425,-332.71144 c 1.2364587,-2.8878 -1.58907957,-2.15482 -2.36525328,0.39723 -0.76640266,2.52052 -0.77254893,5.85757 1.45745728,6.78917 1.658276,0.692 0.7158011,-0.75348 0.7158011,-0.75348 -1.21391627,-1.14125 -0.2096479,-5.49344 0.1919949,-6.43292"
         style="fill:#755946;fill-opacity:1;fill-rule:nonzero;stroke:none;stroke-width:0.0157631" />
      <path
         id="path79"
         d="m 114.10531,-332.59164 c -1.70082,-2.64032 1.20745,-2.38969 2.39916,-0.003 1.1775,2.35501 1.74025,5.64319 -0.30265,6.93577 -1.518,0.95997 -0.83072,-0.62422 -0.83072,-0.62422 1.00568,-1.32726 -0.71249,-5.45088 -1.26579,-6.3084"
         style="fill:#755946;fill-opacity:1;fill-rule:nonzero;stroke:none;stroke-width:0.0157631" />
    </g>
    <g
       id="g43"
       transform="matrix(0.94047631,0,0,0.94047631,-180.78112,-90.121919)">
      <g
         id="g3"
         transform="translate(-0.60117365,-2.6458334)">
        <g
           id="g4"
           transform="translate(25.491911)">
          <g
             id="g5"
             transform="translate(-2.5191349)">
            <g
               id="g6"
               transform="translate(10.996074)">
              <g
                 id="g7"
                 transform="translate(-0.55361053)">
                <g
                   id="g60"
                   transform="translate(6.5118517)">
                  <g
                     id="g59"
                     transform="translate(-10.478233)">
                    <path
                       d="m 518.94147,368.87149 q 0,1.74772 -0.50119,3.19987 -0.50118,1.4393 -1.41359,2.44167 -0.84816,0.95096 -2.00474,1.47785 -1.14373,0.51403 -2.42882,0.51403 -1.11802,0 -2.03044,-0.24416 -0.89956,-0.24417 -1.83767,-0.75821 v 6.01422 h -2.41597 v -19.649 h 2.41597 v 1.50356 q 0.96381,-0.80961 2.15895,-1.34935 1.20798,-0.55258 2.57017,-0.55258 2.59588,0 4.03518,1.96618 1.45215,1.95333 1.45215,5.43592 z m -2.49307,0.0643 q 0,-2.59588 -0.88671,-3.88097 -0.88671,-1.28509 -2.72439,-1.28509 -1.04092,0 -2.09469,0.44978 -1.05378,0.44978 -2.01759,1.18228 v 8.13461 q 1.02807,0.46263 1.76057,0.62969 0.74535,0.16706 1.68346,0.16706 2.01759,0 3.14847,-1.36219 1.13088,-1.36219 1.13088,-4.03517 z m 18.49241,0.11565 q 0,3.50829 -1.79912,5.53873 -1.79912,2.03044 -4.81908,2.03044 -3.04566,0 -4.84478,-2.03044 -1.78627,-2.03044 -1.78627,-5.53873 0,-3.50829 1.78627,-5.53873 1.79912,-2.04328 4.84478,-2.04328 3.01996,0 4.81908,2.04328 1.79912,2.03044 1.79912,5.53873 z m -2.49307,0 q 0,-2.78864 -1.09232,-4.13798 -1.09233,-1.36219 -3.03281,-1.36219 -1.96618,0 -3.05851,1.36219 -1.07947,1.34934 -1.07947,4.13798 0,2.69869 1.09232,4.09943 1.09233,1.3879 3.04566,1.3879 1.92763,0 3.01996,-1.37505 1.10517,-1.38789 1.10517,-4.11228 z m 18.86509,-0.17991 q 0,1.74772 -0.50118,3.19987 -0.50119,1.4393 -1.4136,2.44167 -0.84816,0.95096 -2.00474,1.47785 -1.14372,0.51403 -2.42881,0.51403 -1.11803,0 -2.03044,-0.24416 -0.89956,-0.24417 -1.83768,-0.75821 v 6.01422 h -2.41596 v -19.649 h 2.41596 v 1.50356 q 0.96382,-0.80961 2.15895,-1.34935 1.20798,-0.55258 2.57018,-0.55258 2.59587,0 4.03517,1.96618 1.45215,1.95333 1.45215,5.43592 z m -2.49307,0.0643 q 0,-2.59588 -0.88671,-3.88097 -0.88671,-1.28509 -2.72439,-1.28509 -1.04092,0 -2.09469,0.44978 -1.05377,0.44978 -2.01759,1.18228 v 8.13461 q 1.02807,0.46263 1.76057,0.62969 0.74535,0.16706 1.68347,0.16706 2.01759,0 3.14846,-1.36219 1.13088,-1.36219 1.13088,-4.03517 z m 18.8908,-0.0643 q 0,1.74772 -0.50119,3.19987 -0.50118,1.4393 -1.4136,2.44167 -0.84815,0.95096 -2.00473,1.47785 -1.14373,0.51403 -2.42882,0.51403 -1.11802,0 -2.03044,-0.24416 -0.89956,-0.24417 -1.83767,-0.75821 v 6.01422 h -2.41597 v -19.649 h 2.41597 v 1.50356 q 0.96381,-0.80961 2.15894,-1.34935 1.20799,-0.55258 2.57018,-0.55258 2.59588,0 4.03518,1.96618 1.45215,1.95333 1.45215,5.43592 z m -2.49307,0.0643 q 0,-2.59588 -0.88672,-3.88097 -0.88671,-1.28509 -2.72438,-1.28509 -1.04092,0 -2.09469,0.44978 -1.05378,0.44978 -2.01759,1.18228 v 8.13461 q 1.02807,0.46263 1.76057,0.62969 0.74535,0.16706 1.68346,0.16706 2.01759,0 3.14847,-1.36219 1.13088,-1.36219 1.13088,-4.03517 z m 18.60807,-7.06799 -8.37878,19.649 h -2.58302 l 2.67298,-5.98851 -5.71864,-13.66049 h 2.62158 l 4.40785,10.64053 4.4464,-10.64053 z"
                       id="text2-6-3-9-6-8-4-8"
                       style="font-size:26.3186px;white-space:pre;fill:#0f0f0f;stroke:#000000;stroke-width:0"
                       transform="matrix(0.38041863,0,0,0.38041863,12.287312,-20.104295)"
                       aria-label="poppy" />
                    <path
                       id="rect1"
                       style="stroke:#ea75b3;stroke-width:0"
                       d="m 216.58684,125.74335 h 9.93524 c 0.21301,0 0.3845,0.17149 0.3845,0.3845 0,0.21302 -0.17149,0.3845 -0.3845,0.3845 h -9.93524 c -0.21302,0 -0.38451,-0.17148 -0.38451,-0.3845 0,-0.21301 0.17149,-0.3845 0.38451,-0.3845 z" />
                  </g>
                </g>
              </g>
            </g>
          </g>
        </g>
      </g>
    </g>
  </g>
</svg>
