<?xml version="1.0" encoding="UTF-8" standalone="no"?>
<!-- Created with Inkscape (http://www.inkscape.org/) -->

<svg
   width="400"
   height="300"
   viewBox="0 0 105.83333 79.375"
   version="1.1"
   id="svg1"
   inkscape:version="1.3.2 (091e20e, 2023-11-25, custom)"
   sodipodi:docname="Mou_EE_e.svg"
   xmlns:inkscape="http://www.inkscape.org/namespaces/inkscape"
   xmlns:sodipodi="http://sodipodi.sourceforge.net/DTD/sodipodi-0.dtd"
   xmlns="http://www.w3.org/2000/svg"
   xmlns:svg="http://www.w3.org/2000/svg">
  <sodipodi:namedview
     id="namedview1"
     pagecolor="#ffffff"
     bordercolor="#000000"
     borderopacity="0.25"
     inkscape:showpageshadow="2"
     inkscape:pageopacity="0.0"
     inkscape:pagecheckerboard="0"
     inkscape:deskcolor="#d1d1d1"
     inkscape:document-units="mm"
     inkscape:zoom="7.2063788"
     inkscape:cx="186.91773"
     inkscape:cy="175.46954"
     inkscape:window-width="1536"
     inkscape:window-height="953"
     inkscape:window-x="-8"
     inkscape:window-y="-8"
     inkscape:window-maximized="1"
     inkscape:current-layer="layer1" />
  <defs
     id="defs1">
    <rect
       x="503.93228"
       y="352.21072"
       width="93.659676"
       height="32.47094"
       id="rect2-7-77-5-8-3" />
    <rect
       x="503.93228"
       y="352.21072"
       width="93.659676"
       height="32.47094"
       id="rect2-7-7-0-7-9-0-8" />
    <rect
       x="503.93228"
       y="352.21072"
       width="93.659676"
       height="32.47094"
       id="rect2-7-7-0-7-9-0-8-3" />
    <rect
       x="503.93228"
       y="352.21072"
       width="93.659676"
       height="32.47094"
       id="rect2-7-7-0-7-9-0-8-3-0" />
    <rect
       x="503.93228"
       y="352.21072"
       width="93.659676"
       height="32.47094"
       id="rect2-7-7-0-7-9-0-8-9" />
    <rect
       x="503.93228"
       y="352.21072"
       width="120.85421"
       height="37.807226"
       id="rect2-7-7-0-7-9-0-8-3-0-3" />
    <clipPath
       clipPathUnits="userSpaceOnUse"
       id="clipPath1">
      <path
         style="display:block;fill:#755946;fill-opacity:1;stroke-width:0.554387"
         d="m 87.892501,-53.926875 c 9.020297,-8.611809 13.304949,-12.335835 15.109009,-12.335835 1.80406,0 2.92657,2.219859 6.53973,2.094764 3.89286,-0.134776 7.6667,-2.11968 7.6667,-2.11968 0,0 4.58391,1.23386 6.65877,3.564895 l 8.45077,9.49411 c 0,0 -10.14783,12.801341 -20.97219,13.034092 -10.82437,0.232751 -23.452789,-13.732346 -23.452789,-13.732346 z"
         id="path1"
         sodipodi:nodetypes="csscscsc" />
    </clipPath>
    <inkscape:path-effect
       effect="powerclip"
       id="path-effect1"
       is_visible="true"
       lpeversion="1"
       inverse="true"
       flatten="false"
       hide_clip="false"
       message="Use fill-rule evenodd on &lt;b&gt;fill and stroke&lt;/b&gt; dialog if no flatten result after convert clip to paths." />
    <rect
       x="503.93228"
       y="352.21072"
       width="120.85421"
       height="37.807224"
       id="rect2-7-7-0-7-9-0-8-3-0-3-7" />
  </defs>
  <g
     inkscape:label="Layer 1"
     inkscape:groupmode="layer"
     id="layer1">
    <path
       d="m 527.25599,376.22219 h -2.41597 v -8.17315 q 0,-0.92527 -0.09,-1.78628 -0.0771,-0.86101 -0.34697,-1.37504 -0.29557,-0.55259 -0.84816,-0.83531 -0.55259,-0.28272 -1.59351,-0.28272 -1.01522,0 -2.03044,0.51404 -1.01521,0.50118 -2.03043,1.28509 0.0386,0.29557 0.0643,0.69394 0.0257,0.38553 0.0257,0.77106 v 9.18837 h -2.41596 v -8.17315 q 0,-0.95097 -0.09,-1.79913 -0.0771,-0.86101 -0.34697,-1.37504 -0.29557,-0.55259 -0.84816,-0.82246 -0.55259,-0.28272 -1.59351,-0.28272 -0.98952,0 -1.99189,0.48834 -0.98951,0.48833 -1.97903,1.24653 v 10.71763 h -2.41597 v -14.35443 h 2.41597 v 1.59351 q 1.13088,-0.93811 2.2489,-1.465 1.13088,-0.52688 2.40312,-0.52688 1.465,0 2.48022,0.61684 1.02807,0.61684 1.52925,1.70916 1.465,-1.23368 2.67298,-1.77342 1.20799,-0.55258 2.58303,-0.55258 2.36456,0 3.48259,1.43929 1.13088,1.42645 1.13088,3.99663 z m 16.66759,-6.92662 H 533.3473 q 0,1.32364 0.39838,2.31316 0.39838,0.97667 1.09232,1.60636 0.66825,0.61684 1.58066,0.92526 0.92527,0.30842 2.03044,0.30842 1.465,0 2.94285,-0.57829 1.4907,-0.59114 2.1204,-1.15658 h 0.12851 v 2.63443 q -1.22084,0.51404 -2.49307,0.86101 -1.27224,0.34698 -2.67299,0.34698 -3.57254,0 -5.57728,-1.92764 -2.00473,-1.94048 -2.00473,-5.50017 0,-3.52114 1.91478,-5.59013 1.92763,-2.06899 5.06324,-2.06899 2.9043,0 4.47211,1.69631 1.58066,1.69632 1.58066,4.81908 z m -2.35171,-1.85053 q -0.0129,-1.90193 -0.96382,-2.94285 -0.93811,-1.04092 -2.86575,-1.04092 -1.94048,0 -3.09706,1.14373 -1.14373,1.14373 -1.29794,2.84004 z"
       id="text2-6-3-9-6-8-4-8"
       style="font-size:26.3186px;white-space:pre;fill:#0f0f0f;stroke:#000000;stroke-width:0"
       transform="matrix(0.35777471,0,0,0.35777471,-134.95667,-85.05953)"
       aria-label="me" />
    <rect
       style="fill:#000000;fill-opacity:1;stroke:#ea75b3;stroke-width:0"
       id="rect1"
       width="4.8661389"
       height="0.72323298"
       x="54.811943"
       y="-51.242447"
       ry="0.36161649"
       transform="scale(1,-1)" />
    <g
       id="g1"
       transform="matrix(0.82453463,0,0,0.82453463,8.6994007,18.484778)">
      <path
         id="path80"
         d="m 103.86481,-15.925 c -0.70462,-2.79953 -2.18792,-6.33362 -5.00478,-6.1618 -2.95085,0.18128 0.12925,3.64916 0.93633,4.62016 1.09868,1.32253 1.94202,2.67185 2.1091,4.59022 0.2254,2.6088 -0.0268,2.5284 -0.38304,3.5230501 -0.35626,0.99938 -0.11035,2.43067 1.07503,2.0098 1.20745,-0.42876 1.40608,-2.36762 1.55739,-3.6113301 0.2081,-1.70556 0.12295,-3.32601 -0.29003,-4.9701"
         style="fill:#755946;fill-opacity:1;fill-rule:nonzero;stroke:none;stroke-width:0.0157631" />
      <path
         id="path81"
         d="m 3.1448904,-15.59871 c 0.44294,-2.94139 1.61414,-6.71508 4.52244,-6.81754 3.0454396,-0.10719 0.22855,3.75635 -0.50127,4.83139 -0.99621,1.46755 -1.72922,2.93352 -1.70871,4.91967 0.0268,2.6986401 0.27742,2.58987 0.74086,3.5766401 0.465,0.98993 0.35467,2.48269 -0.90324,2.16743 -1.28153,-0.31999 -1.67719,-2.2888 -1.95619,-3.5498501 -0.38304,-1.72921 -0.45556,-3.4001 -0.19389,-5.12774"
         style="fill:#755946;fill-opacity:1;fill-rule:nonzero;stroke:none;stroke-width:0.0157631" />
      <path
         id="path82"
         d="m 93.24205,-14.8941 c -3.64598,-1.56212 -6.59527,-0.20334 -10.19715,0.21754 -4.99059,0.58323 -10.16246,1.07346 -15.19877,1.07346 -8.72647,0 -17.47182,0.17813 -26.15415,0.17813 -4.40893,0 -8.4238,-0.38305 -12.69717,-1.25159 -3.70906,-0.75348 -7.39605,-1.58104 -11.22018,-1.21219 -1.2768,0.12453 -6.53854,0.78028 -6.79548,1.39188 h -0.1797 c -2.4164696,1.65355 -1.5763096,4.6863701 -0.31211,6.8002101 1.67246,2.79637 3.04388,5.74249 4.73366,8.57828001 C 21.263,11.02517 31.63985,19.99438 43.51578,21.7693 c 6.58268,0.98362 13.69026,0.46344 20.18623,-0.81495 4.01801,-0.79131 9.46258,-1.19327 12.86584,-3.6665 1.39504,-1.01357 2.59935,-2.19107 3.84305,-3.36542 1.93098,-1.82379 4.28283,-3.12898 5.72201,-5.4997499 1.70714,-2.80898 3.4332,-5.53127 5.26645,-8.29611999 C 94.02392,-3.8299699 99.98551,-12.0063 93.24205,-14.8941"
         style="fill:#755946;fill-opacity:1;fill-rule:nonzero;stroke:none;stroke-width:0.0157631" />
      <path
         id="path83"
         d="m 92.65409,-12.13713 c 0,0 -7.26522,-2.16585 -7.97139,-2.32979 -0.70776,-0.16393 -31.88245,1.23583 -31.88245,1.23583 0,0 -31.28505,-1.39976 -31.99122,-1.23583 -0.70776,0.16394 -7.42286,2.4023 -7.42286,2.4023 0,0 -0.46186,5.5123601 0.77555,6.4991301 0.6069,0.48235 19.43592,3.26138 38.33587,3.45685 19.67077,0.20491 38.30593,-2.59619 38.93643,-3.09903 1.2374,-0.98677 1.22007,-6.9294601 1.22007,-6.9294601"
         style="fill:#ffffff;fill-opacity:1;fill-rule:nonzero;stroke:none;stroke-width:0.0157631" />
      <path
         id="path84"
         d="m 93.24205,-14.8941 c 0,0 -7.85318,-0.0441 -8.55935,-0.15763 -0.70776,-0.11191 -31.88245,2.45117 -31.88245,2.45117 0,0 -31.28505,-2.56308 -31.99122,-2.45117 -0.70776,0.1135 -7.50639,0.5722 -7.50639,0.5722 0,0 -0.71879,4.6816401 0.51861,5.3578801 1.23741,0.67624 24.41546,3.67438 39.37466,3.67438 14.41849,0 38.08206,-2.99814 39.31946,-3.67438 1.23584,-0.67624 0.72668,-5.7724501 0.72668,-5.7724501"
         style="fill:#dbdbdb;fill-opacity:1;fill-rule:nonzero;stroke:none;stroke-width:0.0157631" />
      <path
         id="path85"
         d="m 35.34418,10.52075 c 4.87079,3.56089 9.16625,4.88184 20.84356,4.88184 8.44272,0 15.70791,-2.18319 20.58029,-5.7157099 -0.65259,-3.51517 -10.2539,-6.62838 -15.46833,-5.26487 -5.7078,1.49119 -12.51905,-0.3657 -16.0831,0.44767 -3.90609,0.89062 -8.56723,2.4622 -9.87242,5.6510699"
         style="fill:#ed7d77;fill-opacity:1;fill-rule:nonzero;stroke:none;stroke-width:0.0157631" />
      <path
         id="path86"
         d="m 90.92488,4.6395401 c 0,0 -6.89792,3.47419 -13.53735,4.36165 -6.63943,0.88746 -23.56898,1.2184899 -23.56898,1.2184899 0,0 -16.83186,-0.1734 -22.40412,-0.8590899 -6.67565,-0.82284 -13.6461,-4.22767 -13.6461,-4.22767 L 32.2956,19.72168 53.62467,21.23809 v 0.005 l 0.0347,-0.003 1.77178,0.1261 -0.008,-0.26955 21.22818,-1.72606 14.27348,-14.7306199"
         style="fill:#ffffff;fill-opacity:1;fill-rule:nonzero;stroke:none;stroke-width:0.0157631" />
      <path
         id="path87"
         d="m 97.71248,-11.70207 c -0.29163,-4.27337 -1.91207,-0.009 -1.91207,-0.009 0.30422,4.6296201 -12.93048,23.55165 -20.80257,26.54191 -7.8721,2.98868 -35.17064,2.84366 -42.56037,0 -7.85948,-3.02652 -22.16608,-22.0100199 -21.84609,-26.63807 0,0 -1.6031096,-4.2718 -1.9104796,0 -0.30895,4.2718001 10.5738896,26.1636 19.8425896,32.5713 9.26869,6.4077 24.65821,6.22642 24.65821,6.22642 0,0 16.78929,0.29162 25.57092,-5.722 9.29391,-6.36514 19.25148,-28.6967299 18.95986,-32.97011"
         style="fill:#ef615b;fill-opacity:1;fill-rule:nonzero;stroke:none;stroke-width:0.0157631" />
      <path
         id="path88"
         d="m 90.62223,-17.31531 c -14.42482,0.78343 -17.56641,1.96724 -37.42632,2.21156 -19.34607,0.23803 -23.22536,-2.41333 -36.19524,-2.06654 -10.1025796,0.26955 -9.4988596,4.70214 -7.3913196,7.3046201 1.4706896,1.81749 0.12451,-3.5861001 3.9896296,-3.8414601 3.49625,-0.23015 25.02077,3.8414601 39.2123,3.7263901 15.13729,-0.1245301 36.53256,-3.5908301 40.02567,-3.3181301 3.86037,0.30108 2.46692,5.6053601 3.96285,3.8067901 2.1422,-2.5772701 2.21313,-8.2772101 -6.17757,-7.8232301"
         style="fill:#ef615b;fill-opacity:1;fill-rule:nonzero;stroke:none;stroke-width:0.0157631" />
    </g>
  </g>
</svg>
