<?xml version="1.0" encoding="UTF-8" standalone="no"?>
<!-- Created with Inkscape (http://www.inkscape.org/) -->

<svg
   width="400"
   height="300"
   viewBox="0 0 105.83333 79.375"
   version="1.1"
   id="svg1"
   inkscape:version="1.3.2 (091e20e, 2023-11-25, custom)"
   sodipodi:docname="Mou_ER_ir.svg"
   xmlns:inkscape="http://www.inkscape.org/namespaces/inkscape"
   xmlns:sodipodi="http://sodipodi.sourceforge.net/DTD/sodipodi-0.dtd"
   xmlns="http://www.w3.org/2000/svg"
   xmlns:svg="http://www.w3.org/2000/svg">
  <sodipodi:namedview
     id="namedview1"
     pagecolor="#ffffff"
     bordercolor="#000000"
     borderopacity="0.25"
     inkscape:showpageshadow="2"
     inkscape:pageopacity="0.0"
     inkscape:pagecheckerboard="0"
     inkscape:deskcolor="#d1d1d1"
     inkscape:document-units="mm"
     inkscape:zoom="7.2063788"
     inkscape:cx="208.70399"
     inkscape:cy="147.30006"
     inkscape:window-width="1536"
     inkscape:window-height="953"
     inkscape:window-x="-8"
     inkscape:window-y="-8"
     inkscape:window-maximized="1"
     inkscape:current-layer="layer1" />
  <defs
     id="defs1">
    <inkscape:path-effect
       effect="powerclip"
       id="path-effect3"
       is_visible="true"
       lpeversion="1"
       inverse="true"
       flatten="false"
       hide_clip="false"
       message="Use fill-rule evenodd on &lt;b&gt;fill and stroke&lt;/b&gt; dialog if no flatten result after convert clip to paths." />
    <rect
       x="503.93228"
       y="352.21072"
       width="93.659676"
       height="32.47094"
       id="rect2-7-77-5-8-3" />
    <rect
       x="503.93228"
       y="352.21072"
       width="93.659676"
       height="32.47094"
       id="rect2-7-7-0-7-9-0-8" />
    <rect
       x="503.93228"
       y="352.21072"
       width="93.659676"
       height="32.47094"
       id="rect2-7-7-0-7-9-0-8-3" />
    <rect
       x="503.93228"
       y="352.21072"
       width="93.659676"
       height="32.47094"
       id="rect2-7-7-0-7-9-0-8-3-0" />
    <rect
       x="503.93228"
       y="352.21072"
       width="93.659676"
       height="32.47094"
       id="rect2-7-7-0-7-9-0-8-9" />
    <rect
       x="503.93228"
       y="352.21072"
       width="120.85421"
       height="37.807226"
       id="rect2-7-7-0-7-9-0-8-3-0-3" />
    <clipPath
       clipPathUnits="userSpaceOnUse"
       id="clipPath1">
      <path
         style="display:block;fill:#755946;fill-opacity:1;stroke-width:0.554387"
         d="m 87.892501,-53.926875 c 9.020297,-8.611809 13.304949,-12.335835 15.109009,-12.335835 1.80406,0 2.92657,2.219859 6.53973,2.094764 3.89286,-0.134776 7.6667,-2.11968 7.6667,-2.11968 0,0 4.58391,1.23386 6.65877,3.564895 l 8.45077,9.49411 c 0,0 -10.14783,12.801341 -20.97219,13.034092 -10.82437,0.232751 -23.452789,-13.732346 -23.452789,-13.732346 z"
         id="path1"
         sodipodi:nodetypes="csscscsc" />
    </clipPath>
    <inkscape:path-effect
       effect="powerclip"
       id="path-effect1"
       is_visible="true"
       lpeversion="1"
       inverse="true"
       flatten="false"
       hide_clip="false"
       message="Use fill-rule evenodd on &lt;b&gt;fill and stroke&lt;/b&gt; dialog if no flatten result after convert clip to paths." />
    <rect
       x="503.93228"
       y="352.21072"
       width="120.85421"
       height="37.807224"
       id="rect2-7-7-0-7-9-0-8-3-0-3-7" />
    <rect
       x="503.93228"
       y="352.21072"
       width="93.659676"
       height="32.47094"
       id="rect2-7-7-0-7-9-0-8-3-0-3-5" />
    <filter
       id="mask-powermask-path-effect3_inverse"
       inkscape:label="filtermask-powermask-path-effect3"
       style="color-interpolation-filters:sRGB"
       height="100"
       width="100"
       x="-50"
       y="-50">
      <feColorMatrix
         id="mask-powermask-path-effect3_primitive1"
         values="1"
         type="saturate"
         result="fbSourceGraphic" />
      <feColorMatrix
         id="mask-powermask-path-effect3_primitive2"
         values="-1 0 0 0 1 0 -1 0 0 1 0 0 -1 0 1 0 0 0 1 0 "
         in="fbSourceGraphic" />
    </filter>
    <clipPath
       clipPathUnits="userSpaceOnUse"
       id="clipPath3">
      <path
         style="display:none;fill:#755946;fill-opacity:1;stroke-width:0.513252"
         d="m -21.34837,-5.368372 c 4.47034,-5.044221 7.264354,-4.824811 8.739349,-4.824811 1.474995,0 3.5188391,1.7737871 6.4624562,1.6911889 2.9194808,-0.08192 5.76793592,-1.3875459 5.76793592,-1.3875459 0,0 3.70288988,-1.236675 5.94606198,1.396455 l 2.5723559,3.019539 c 0,0 -4.616424,7.805035 -15.008425,7.726497 -8.851432,-0.0669 -14.479734,-7.621323 -14.479734,-7.621323 z"
         id="path3"
         sodipodi:nodetypes="csscscsc" />
      <path
         id="lpe_path-effect3"
         style="display:block;fill:#755946;fill-opacity:1;stroke-width:0.513252"
         class="powerclip"
         d="m -37.30144,-26.278524 h 61.3943 v 42.590968 h -61.3943 z m 15.95307,20.910152 c 0,0 5.628302,7.554423 14.479734,7.621323 C 3.523365,2.331489 8.139789,-5.473546 8.139789,-5.473546 L 5.5674331,-8.493085 c -2.2431721,-2.63313 -5.94606198,-1.396455 -5.94606198,-1.396455 0,0 -2.84845512,1.3056259 -5.76793592,1.3875459 -2.9436171,0.082598 -4.9874612,-1.6911889 -6.4624562,-1.6911889 -1.474995,0 -4.269009,-0.21941 -8.739349,4.824811 z" />
    </clipPath>
  </defs>
  <g
     inkscape:label="Layer 1"
     inkscape:groupmode="layer"
     id="layer1">
    <path
       style="display:block;fill:#755946;fill-opacity:1;stroke-width:0.513252"
       d="m 38.172587,15.910152 c 4.47034,-5.044221 7.264354,-4.824811 8.739349,-4.824811 1.474995,0 3.518839,1.773787 6.462456,1.691189 2.919481,-0.08192 5.767936,-1.387546 5.767936,-1.387546 0,0 3.70289,-1.236675 5.946062,1.396455 l 2.572356,3.019539 c 0,0 -4.616424,7.805035 -15.008425,7.726497 -8.851432,-0.0669 -14.479734,-7.621323 -14.479734,-7.621323 z"
       id="path2"
       sodipodi:nodetypes="csscscsc" />
    <path
       id="path15"
       d="m 75.940702,9.8480231 c 0,0 -3.74681,-1.60787 -4.1412,-1.725606 -0.39438,-0.11871 -17.820101,-2.8354641 -17.820101,-2.8354641 0,0 -17.425719,2.7167541 -17.820102,2.8354641 -0.394384,0.117736 -4.141118,1.725606 -4.141118,1.725606 0,0 -0.69017,5.3621009 0,6.0704909 0.690176,0.70935 1.698369,-0.253823 8.9724,-0.944837 8.085039,-0.767258 12.98882,-0.649523 12.98882,-0.649523 0,0 4.903784,-0.117735 12.988821,0.649523 7.27411,0.691014 8.28223,1.654187 8.97248,0.944837 0.69017,-0.70839 0,-6.0704909 0,-6.0704909"
       style="fill:#ffffff;fill-opacity:1;fill-rule:nonzero;stroke:none;stroke-width:0.0088171" />
    <path
       id="path16"
       d="m 68.532597,9.4140168 c 0,0 -2.663476,-1.102148 -2.943834,-1.18225 -0.280351,-0.08106 -12.667684,-1.942761 -12.667684,-1.942761 0,0 -12.387332,1.861699 -12.667685,1.942761 -0.280354,0.0801 -2.943776,1.18225 -2.943776,1.18225 0,0 -0.490617,3.6731672 0,4.1595852 0.490622,0.485444 1.155146,0.248998 6.273033,-1.082838 6.413209,-1.669635 13.038744,-1.669635 18.889183,0 5.105922,1.456344 5.570088,1.568282 6.060763,1.082838 0.490617,-0.486418 0,-4.1595852 0,-4.1595852"
       style="fill:#dbdbdb;fill-opacity:1;fill-rule:nonzero;stroke:none;stroke-width:0.00743394" />
    <path
       id="path18"
       d="m 70.318195,16.987061 c 0,0 -3.117036,2.494793 -6.117442,3.132719 -3.000399,0.637938 -10.651008,0.876313 -10.651008,0.876313 0,0 -7.606287,-0.124496 -10.124592,-0.617661 -3.016858,-0.590641 -6.166805,-3.036203 -6.166805,-3.036203 l 6.565353,10.478106 9.638853,1.08959 -5.9e-5,0.0031 0.01524,-0.0018 0.80092,0.09073 -0.0038,-0.193032 9.593013,-1.240144 6.450295,-10.58138"
       style="fill:#ffffff;fill-opacity:1;fill-rule:nonzero;stroke:none;stroke-width:0.00765495" />
    <path
       d="m 516.56405,372.08421 q 0,1.96619 -1.63206,3.22557 -1.61921,1.25939 -4.43355,1.25939 -1.59351,0 -2.93,-0.37268 -1.32364,-0.38552 -2.2232,-0.8353 v -2.71154 h 0.12851 q 1.14372,0.86101 2.54447,1.37504 1.40075,0.50119 2.68583,0.50119 1.59351,0 2.49307,-0.51404 0.89957,-0.51403 0.89957,-1.61921 0,-0.84816 -0.48834,-1.28509 -0.48833,-0.43693 -1.87623,-0.74535 -0.51403,-0.11565 -1.34934,-0.26987 -0.82245,-0.15421 -1.50355,-0.33412 -1.88908,-0.50118 -2.68583,-1.465 -0.78391,-0.97667 -0.78391,-2.39026 0,-0.88671 0.35983,-1.67062 0.37267,-0.7839 1.11802,-1.40074 0.71965,-0.60399 1.82483,-0.95097 1.11802,-0.35982 2.49307,-0.35982 1.28509,0 2.59588,0.32127 1.32364,0.30842 2.1975,0.7582 v 2.58303 h -0.12851 q -0.92527,-0.6811 -2.24891,-1.14373 -1.32364,-0.47548 -2.59587,-0.47548 -1.32364,0 -2.23606,0.51403 -0.91241,0.50119 -0.91241,1.50356 0,0.88671 0.55259,1.33649 0.53974,0.44978 1.74772,0.7325 0.66824,0.15421 1.4907,0.30842 0.83531,0.15421 1.38789,0.28272 1.68347,0.38552 2.59588,1.32364 0.91241,0.95096 0.91241,2.51877 z m 10.9104,4.00948 q -0.6811,0.17991 -1.4907,0.29557 -0.79676,0.11565 -1.42645,0.11565 -2.1975,0 -3.34123,-1.18228 -1.14373,-1.18228 -1.14373,-3.79101 v -7.63342 h -1.63206 v -2.03044 h 1.63206 v -4.12513 h 2.41597 v 4.12513 h 4.98614 v 2.03044 h -4.98614 v 6.5411 q 0,1.13088 0.0514,1.77342 0.0514,0.62969 0.35983,1.18228 0.28272,0.51404 0.77105,0.7582 0.50118,0.23132 1.5164,0.23132 0.59114,0 1.23369,-0.16706 0.64254,-0.17992 0.92526,-0.29557 h 0.12851 z m 5.51303,-16.62904 h -2.72439 v -2.50592 h 2.72439 z m -0.15421,16.75754 h -2.41597 v -14.35443 h 2.41597 z m 13.73759,-11.72 h -0.12851 q -0.53974,-0.12851 -1.05377,-0.17991 -0.50119,-0.0642 -1.19514,-0.0642 -1.11802,0 -2.15894,0.50118 -1.04092,0.48833 -2.00474,1.27224 v 10.19074 h -2.41597 v -14.35443 h 2.41597 v 2.1204 q 1.4393,-1.15658 2.53162,-1.63206 1.10518,-0.48834 2.24891,-0.48834 0.62969,0 0.91241,0.0386 0.28272,0.0257 0.84816,0.11566 z"
       id="text2-6-3-9-6-8-4-8"
       style="font-size:26.3186px;white-space:pre;fill:#0f0f0f;stroke:#000000;stroke-width:0"
       transform="matrix(0.35777471,0,0,0.35777471,-135.61414,-92.467863)"
       aria-label="stir" />
    <rect
       style="font-variation-settings:normal;opacity:1;vector-effect:none;fill:#000000;fill-opacity:1;stroke:#ea75b3;stroke-width:0;stroke-linecap:butt;stroke-linejoin:miter;stroke-miterlimit:4;stroke-dasharray:none;stroke-dashoffset:0;stroke-opacity:1;-inkscape-stroke:none;stop-color:#000000;stop-opacity:1"
       id="rect1"
       width="6.0337224"
       height="0.72323298"
       x="53.295956"
       y="43.110882"
       ry="0.36161649" />
    <path
       style="fill:#ef615b;fill-opacity:1;stroke-width:0.353477"
       d="m -32.30144,-6.890791 c 1.601689,-1.953272 2.66144,-2.203286 5.889551,-4.82296 2.170609,-1.76149 9.704693,-9.613705 13.620833,-9.564543 3.9161301,0.04917 5.0857311,1.076053 6.8871521,1.076053 1.801421,0 4.93434201,-1.070532 7.440671,-1.070532 2.506338,0 9.6402999,7.298819 12.5536629,9.66004 2.539204,2.057973 4.961404,4.139294 5.002143,5.227371 0.0445,1.188433 -5.098719,9.38334 -10.5698709,13.27073 -4.793085,3.405604 -9.40122599,4.473883 -16.767516,4.425517 -10.0104381,-0.06573 -16.2054101,-6.423519 -17.9483151,-8.351449 -5.03144,-5.565573 -6.108311,-9.850227 -6.108311,-9.850227 z"
       id="path68-9-7-3"
       sodipodi:nodetypes="csssssssssc"
       clip-path="url(#clipPath3)"
       inkscape:path-effect="#path-effect3"
       inkscape:original-d="m -32.30144,-6.890791 c 1.601689,-1.953272 2.66144,-2.203286 5.889551,-4.82296 2.170609,-1.76149 9.704693,-9.613705 13.620833,-9.564543 3.9161301,0.04917 5.0857311,1.076053 6.8871521,1.076053 1.801421,0 4.93434201,-1.070532 7.440671,-1.070532 2.506338,0 9.6402999,7.298819 12.5536629,9.66004 2.539204,2.057973 4.961404,4.139294 5.002143,5.227371 0.0445,1.188433 -5.098719,9.38334 -10.5698709,13.27073 -4.793085,3.405604 -9.40122599,4.473883 -16.767516,4.425517 -10.0104381,-0.06573 -16.2054101,-6.423519 -17.9483151,-8.351449 -5.03144,-5.565573 -6.108311,-9.850227 -6.108311,-9.850227 z"
       transform="translate(59.520957,21.278524)" />
  </g>
</svg>
