<?xml version="1.0" encoding="UTF-8" standalone="no"?>
<!-- Created with Inkscape (http://www.inkscape.org/) -->

<svg
   width="400"
   height="300"
   viewBox="0 0 105.83333 79.375"
   version="1.1"
   id="svg1"
   inkscape:version="1.3.2 (091e20e, 2023-11-25, custom)"
   sodipodi:docname="Mou_OW_ow.svg"
   xmlns:inkscape="http://www.inkscape.org/namespaces/inkscape"
   xmlns:sodipodi="http://sodipodi.sourceforge.net/DTD/sodipodi-0.dtd"
   xmlns="http://www.w3.org/2000/svg"
   xmlns:svg="http://www.w3.org/2000/svg">
  <sodipodi:namedview
     id="namedview1"
     pagecolor="#ffffff"
     bordercolor="#000000"
     borderopacity="0.25"
     inkscape:showpageshadow="2"
     inkscape:pageopacity="0.0"
     inkscape:pagecheckerboard="0"
     inkscape:deskcolor="#d1d1d1"
     inkscape:document-units="mm"
     inkscape:zoom="3.6031894"
     inkscape:cx="208.70399"
     inkscape:cy="177.75918"
     inkscape:window-width="1536"
     inkscape:window-height="953"
     inkscape:window-x="-8"
     inkscape:window-y="-8"
     inkscape:window-maximized="1"
     inkscape:current-layer="layer1" />
  <defs
     id="defs1">
    <rect
       x="503.93228"
       y="352.21072"
       width="93.659676"
       height="32.47094"
       id="rect2-7-77-5-8-3" />
    <rect
       x="503.93228"
       y="352.21072"
       width="93.659676"
       height="32.47094"
       id="rect2-7-7-0-7-9-0-8" />
    <rect
       x="503.93228"
       y="352.21072"
       width="93.659676"
       height="32.47094"
       id="rect2-7-7-0-7-9-0-8-3" />
    <rect
       x="503.93228"
       y="352.21072"
       width="93.659676"
       height="32.47094"
       id="rect2-7-7-0-7-9-0-8-3-0" />
    <rect
       x="503.93228"
       y="352.21072"
       width="93.659676"
       height="32.47094"
       id="rect2-7-7-0-7-9-0-8-9" />
    <rect
       x="503.93228"
       y="352.21072"
       width="120.85421"
       height="37.807226"
       id="rect2-7-7-0-7-9-0-8-3-0-3" />
    <clipPath
       clipPathUnits="userSpaceOnUse"
       id="clipPath1">
      <path
         style="display:none;fill:#755946;fill-opacity:1;stroke-width:0.554387"
         d="m 87.892501,-53.926875 c 9.020297,-8.611809 13.304949,-12.335835 15.109009,-12.335835 1.80406,0 2.92657,2.219859 6.53973,2.094764 3.89286,-0.134776 7.6667,-2.11968 7.6667,-2.11968 0,0 4.58391,1.23386 6.65877,3.564895 l 8.45077,9.49411 c 0,0 -10.14783,12.801341 -20.97219,13.034092 -10.82437,0.232751 -23.452789,-13.732346 -23.452789,-13.732346 z"
         id="path1"
         sodipodi:nodetypes="csscscsc" />
      <path
         id="lpe_path-effect1"
         style="fill:#755946;fill-opacity:1;stroke-width:0.554387"
         class="powerclip"
         d="m 77.764743,-81.401118 h 64.655197 v 55.814889 H 77.764743 Z m 10.127758,27.474243 c 0,0 12.628419,13.965097 23.452789,13.732346 10.82436,-0.232751 20.97219,-13.034092 20.97219,-13.034092 l -8.45077,-9.49411 c -2.07486,-2.331035 -6.65877,-3.564895 -6.65877,-3.564895 0,0 -3.77384,1.984904 -7.6667,2.11968 -3.61316,0.125095 -4.73567,-2.094764 -6.53973,-2.094764 -1.80406,0 -6.088712,3.724026 -15.109009,12.335835 z" />
    </clipPath>
    <inkscape:path-effect
       effect="powerclip"
       id="path-effect1"
       is_visible="true"
       lpeversion="1"
       inverse="true"
       flatten="false"
       hide_clip="false"
       message="Use fill-rule evenodd on &lt;b&gt;fill and stroke&lt;/b&gt; dialog if no flatten result after convert clip to paths." />
  </defs>
  <g
     inkscape:label="Layer 1"
     inkscape:groupmode="layer"
     id="layer1">
    <path
       d="m 48.144233,55.364092 h -0.864369 v -2.924147 q 0,-0.354025 -0.04138,-0.662073 -0.04138,-0.312645 -0.151726,-0.487357 -0.114942,-0.193105 -0.331034,-0.28506 -0.216092,-0.09655 -0.560923,-0.09655 -0.354025,0 -0.740232,0.174716 -0.386207,0.174712 -0.740232,0.445977 v 3.834497 h -0.864373 v -5.135652 h 0.864373 v 0.570117 q 0.4046,-0.335632 0.836784,-0.52414 0.432185,-0.188504 0.88736,-0.188504 0.832188,0 1.26897,0.501149 0.436782,0.501153 0.436782,1.443686 z m 6.041405,-2.565528 q 0,1.255178 -0.643679,1.981618 -0.643683,0.72644 -1.724145,0.72644 -1.08966,0 -1.73334,-0.72644 -0.639086,-0.72644 -0.639086,-1.981618 0,-1.255177 0.639086,-1.981617 0.64368,-0.731034 1.73334,-0.731034 1.080462,0 1.724145,0.731034 0.643679,0.72644 0.643679,1.981617 z m -0.891957,0 q 0,-0.997705 -0.390808,-1.480464 -0.390804,-0.487357 -1.085059,-0.487357 -0.703453,0 -1.094258,0.487357 -0.38621,0.482759 -0.38621,1.480464 0,0.965523 0.390808,1.466673 0.390804,0.496555 1.08966,0.496555 0.689657,0 1.080462,-0.491958 0.395405,-0.496552 0.395405,-1.47127 z M 61.98337,50.22844 60.645433,55.364092 H 59.84543 l -1.319544,-3.958634 -1.31035,3.958634 H 56.420128 L 55.068401,50.22844 h 0.901152 l 0.942533,3.977027 1.282762,-3.977027 h 0.712647 l 1.314948,3.977027 0.891957,-3.977027 z"
       id="text2-6-3-9-6-8-4-8"
       style="font-size:26.3186px;white-space:pre;fill:#0f0f0f;stroke:#000000;stroke-width:0"
       aria-label="now" />
    <rect
       style="fill:#000000;fill-opacity:1;stroke:#ea75b3;stroke-width:0"
       id="rect1"
       width="11.021687"
       height="0.72323298"
       x="50.284744"
       y="-57.063286"
       ry="0.36161649"
       transform="scale(1,-1)" />
    <g
       id="g2"
       transform="matrix(0.88148586,0,0,0.88148586,6.271374,5.492336)">
      <path
         style="fill:#755946;fill-opacity:1;stroke-width:0.637913"
         d="M 28.936326,18.989362 C 38.67453,8.4277501 43.300183,3.8605624 45.247824,3.8605624 c 1.947642,0 3.159501,2.7224597 7.060219,2.5690408 4.20269,-0.1652889 8.27688,-2.5995946 8.27688,-2.5995946 0,0 4.94874,1.5132186 7.18874,4.3720231 l 9.12335,11.6436763 c 0,0 -10.95548,15.699697 -22.64133,15.985148 C 42.569809,36.116304 28.936326,18.989362 28.936326,18.989362 Z"
         id="path67-71"
         sodipodi:nodetypes="csscscsc" />
      <path
         id="path33-5"
         d="m 74.689751,6.0854955 c 0,0 -3.656242,-1.991352 -4.041204,-2.137074 -0.384949,-0.146909 -17.391558,-3.51157694 -17.391558,-3.51157694 0,0 -17.005817,3.36466794 -17.390768,3.51157694 -0.384951,0.145722 -4.041207,2.137074 -4.041207,2.137074 0,0 -0.674065,6.6406975 0,7.5185915 0.673262,0.877915 1.942329,0.414064 9.04479,-0.366696 8.660644,-0.950754 16.743058,-1.243386 24.633798,-0.292631 7.098467,0.856045 8.512892,1.537242 9.186149,0.659327 0.673276,-0.877894 0,-7.5185915 0,-7.5185915"
         style="display:inline;fill:#ffffff;fill-opacity:1;fill-rule:nonzero;stroke:none;stroke-width:0.00984763" />
      <path
         id="path34-0"
         d="m 74.689751,6.4794006 c 0,0 -3.656242,-1.363594 -4.041204,-1.46438 -0.384949,-0.09956 -17.391558,-2.405413 -17.391558,-2.405413 0,0 -17.005817,2.305852 -17.390768,2.405413 -0.384951,0.100786 -4.041207,1.46438 -4.041207,1.46438 0,0 -0.674065,4.5497654 0,5.1508234 0.673262,0.602259 1.586133,0.309628 8.611928,-1.339323 8.80439,-2.0678394 17.90031,-2.0678394 25.932398,0 7.009817,1.803153 7.647154,1.941582 8.320411,1.339323 0.673276,-0.601058 0,-5.1508234 0,-5.1508234"
         style="display:inline;fill:#dbdbdb;fill-opacity:1;fill-rule:nonzero;stroke:none;stroke-width:0.00984763" />
      <path
         id="path36-2-2"
         d="m 70.31218,29.759292 c 0,0 -3.296694,0.73219 -6.736751,0.877894 -2.918967,0.125079 -17.191381,0.104433 -19.637435,0 -3.440056,-0.145704 -6.737353,-0.292631 -6.737353,-0.292631 l 7.030024,12.30757 9.295246,1.349044 v 0.0037 l 0.01427,-0.0024 0.772723,0.112913 -0.0036,-0.240415 9.250624,-1.534796 6.752218,-12.580799"
         style="display:inline;fill:#ffffff;fill-opacity:1;fill-rule:nonzero;stroke:none;stroke-width:0.00849881" />
      <path
         style="fill:#ef615b;fill-opacity:1;stroke-width:0.461993"
         d="m 82.813987,-54.42903 c -0.287384,-2.540522 0.587906,-10.184026 5.171263,-14.422943 2.65693,-2.457274 9.964557,-7.480482 14.75437,-7.41182 4.7898,0.06867 5.07721,1.647908 7.28052,1.647908 2.20331,0 6.03517,-1.785233 9.10065,-1.785233 3.06549,0 11.41288,3.78084 14.46523,7.690231 2.47062,3.164343 3.73607,10.024765 3.83185,14.625171 0.0957,4.600406 -3.13154,14.227409 -7.84741,17.301766 -6.36599,4.150089 -11.50342,5.837589 -20.50827,6.180903 -9.00487,0.343314 -16.290534,-4.660791 -18.967677,-6.660289 -4.579871,-3.420603 -7.280526,-17.165694 -7.280526,-17.165694 z"
         id="path68-9-7"
         sodipodi:nodetypes="csssssssssc"
         clip-path="url(#clipPath1)"
         inkscape:path-effect="#path-effect1"
         inkscape:original-d="m 82.813987,-54.42903 c -0.287384,-2.540522 0.587906,-10.184026 5.171263,-14.422943 2.65693,-2.457274 9.964557,-7.480482 14.75437,-7.41182 4.7898,0.06867 5.07721,1.647908 7.28052,1.647908 2.20331,0 6.03517,-1.785233 9.10065,-1.785233 3.06549,0 11.41288,3.78084 14.46523,7.690231 2.47062,3.164343 3.73607,10.024765 3.83185,14.625171 0.0957,4.600406 -3.13154,14.227409 -7.84741,17.301766 -6.36599,4.150089 -11.50342,5.837589 -20.50827,6.180903 -9.00487,0.343314 -16.290534,-4.660791 -18.967677,-6.660289 -4.579871,-3.420603 -7.280526,-17.165694 -7.280526,-17.165694 z"
         transform="matrix(0.92684066,0,0,1.1359988,-49.121394,80.560808)" />
    </g>
  </g>
</svg>
