<?xml version="1.0" encoding="UTF-8" standalone="no"?>
<!-- Created with Inkscape (http://www.inkscape.org/) -->

<svg
   width="400"
   height="300"
   viewBox="0 0 105.83333 79.375"
   version="1.1"
   id="svg1"
   inkscape:version="1.3.2 (091e20e, 2023-11-25, custom)"
   sodipodi:docname="Mou_A_a.svg"
   xmlns:inkscape="http://www.inkscape.org/namespaces/inkscape"
   xmlns:sodipodi="http://sodipodi.sourceforge.net/DTD/sodipodi-0.dtd"
   xmlns="http://www.w3.org/2000/svg"
   xmlns:svg="http://www.w3.org/2000/svg">
  <sodipodi:namedview
     id="namedview1"
     pagecolor="#ffffff"
     bordercolor="#000000"
     borderopacity="0.25"
     inkscape:showpageshadow="2"
     inkscape:pageopacity="0.0"
     inkscape:pagecheckerboard="0"
     inkscape:deskcolor="#d1d1d1"
     inkscape:document-units="mm"
     inkscape:zoom="5.0956793"
     inkscape:cx="200.36583"
     inkscape:cy="193.2029"
     inkscape:window-width="1536"
     inkscape:window-height="953"
     inkscape:window-x="-8"
     inkscape:window-y="-8"
     inkscape:window-maximized="1"
     inkscape:current-layer="layer1" />
  <defs
     id="defs1">
    <rect
       x="503.93228"
       y="352.21072"
       width="93.659676"
       height="32.47094"
       id="rect2-7-77-5-8-3" />
    <rect
       x="503.93228"
       y="352.21072"
       width="93.659676"
       height="32.47094"
       id="rect2-7-7-0-7-9-0-8" />
    <rect
       x="503.93228"
       y="352.21072"
       width="93.659676"
       height="32.47094"
       id="rect2-7-7-0-7-9-0-8-3" />
    <rect
       x="503.93228"
       y="352.21072"
       width="93.659676"
       height="32.47094"
       id="rect2-7-7-0-7-9-0-8-3-0" />
    <rect
       x="503.93228"
       y="352.21072"
       width="93.659676"
       height="32.47094"
       id="rect2-7-7-0-7-9-0-8-9" />
    <rect
       x="503.93228"
       y="352.21072"
       width="120.85421"
       height="37.807226"
       id="rect2-7-7-0-7-9-0-8-3-0-3" />
    <clipPath
       clipPathUnits="userSpaceOnUse"
       id="clipPath1">
      <path
         style="display:none;fill:#755946;fill-opacity:1;stroke-width:0.554387"
         d="m 87.892501,-53.926875 c 9.020297,-8.611809 13.304949,-12.335835 15.109009,-12.335835 1.80406,0 2.92657,2.219859 6.53973,2.094764 3.89286,-0.134776 7.6667,-2.11968 7.6667,-2.11968 0,0 4.58391,1.23386 6.65877,3.564895 l 8.45077,9.49411 c 0,0 -10.14783,12.801341 -20.97219,13.034092 -10.82437,0.232751 -23.452789,-13.732346 -23.452789,-13.732346 z"
         id="path1"
         sodipodi:nodetypes="csscscsc" />
      <path
         id="lpe_path-effect1"
         style="fill:#755946;fill-opacity:1;stroke-width:0.554387"
         class="powerclip"
         d="m 77.764743,-81.401118 h 64.655197 v 55.814889 H 77.764743 Z m 10.127758,27.474243 c 0,0 12.628419,13.965097 23.452789,13.732346 10.82436,-0.232751 20.97219,-13.034092 20.97219,-13.034092 l -8.45077,-9.49411 c -2.07486,-2.331035 -6.65877,-3.564895 -6.65877,-3.564895 0,0 -3.77384,1.984904 -7.6667,2.11968 -3.61316,0.125095 -4.73567,-2.094764 -6.53973,-2.094764 -1.80406,0 -6.088712,3.724026 -15.109009,12.335835 z" />
    </clipPath>
    <inkscape:path-effect
       effect="powerclip"
       id="path-effect1"
       is_visible="true"
       lpeversion="1"
       inverse="true"
       flatten="false"
       hide_clip="false"
       message="Use fill-rule evenodd on &lt;b&gt;fill and stroke&lt;/b&gt; dialog if no flatten result after convert clip to paths." />
    <rect
       x="503.93228"
       y="352.21072"
       width="120.85421"
       height="37.807224"
       id="rect2-7-7-0-7-9-0-8-3-0-3-7" />
  </defs>
  <g
     inkscape:label="Layer 1"
     inkscape:groupmode="layer"
     id="layer1">
    <g
       id="g2"
       transform="matrix(0.88148586,0,0,0.88148586,6.271374,5.492336)">
      <path
         style="fill:#755946;fill-opacity:1;stroke-width:0.637913"
         d="M 28.936326,18.989362 C 38.67453,8.4277501 43.300183,3.8605624 45.247824,3.8605624 c 1.947642,0 3.159501,2.7224597 7.060219,2.5690408 4.20269,-0.1652889 8.27688,-2.5995946 8.27688,-2.5995946 0,0 4.94874,1.5132186 7.18874,4.3720231 l 9.12335,11.6436763 c 0,0 -10.95548,15.699697 -22.64133,15.985148 C 42.569809,36.116304 28.936326,18.989362 28.936326,18.989362 Z"
         id="path67-71"
         sodipodi:nodetypes="csscscsc" />
      <path
         id="path33-5"
         d="m 74.689751,6.0854955 c 0,0 -3.656242,-1.991352 -4.041204,-2.137074 -0.384949,-0.146909 -17.391558,-3.51157694 -17.391558,-3.51157694 0,0 -17.005817,3.36466794 -17.390768,3.51157694 -0.384951,0.145722 -4.041207,2.137074 -4.041207,2.137074 0,0 -0.674065,6.6406975 0,7.5185915 0.673262,0.877915 1.942329,0.414064 9.04479,-0.366696 8.660644,-0.950754 16.743058,-1.243386 24.633798,-0.292631 7.098467,0.856045 8.512892,1.537242 9.186149,0.659327 0.673276,-0.877894 0,-7.5185915 0,-7.5185915"
         style="display:inline;fill:#ffffff;fill-opacity:1;fill-rule:nonzero;stroke:none;stroke-width:0.00984763" />
      <path
         id="path34-0"
         d="m 74.689751,6.4794006 c 0,0 -3.656242,-1.363594 -4.041204,-1.46438 -0.384949,-0.09956 -17.391558,-2.405413 -17.391558,-2.405413 0,0 -17.005817,2.305852 -17.390768,2.405413 -0.384951,0.100786 -4.041207,1.46438 -4.041207,1.46438 0,0 -0.674065,4.5497654 0,5.1508234 0.673262,0.602259 1.586133,0.309628 8.611928,-1.339323 8.80439,-2.0678394 17.90031,-2.0678394 25.932398,0 7.009817,1.803153 7.647154,1.941582 8.320411,1.339323 0.673276,-0.601058 0,-5.1508234 0,-5.1508234"
         style="display:inline;fill:#dbdbdb;fill-opacity:1;fill-rule:nonzero;stroke:none;stroke-width:0.00984763" />
      <path
         id="path32-5"
         d="m 65.126598,22.029902 c -3.340846,-4.571886 -9.526512,-3.81787 -13.109453,-3.827489 -4.785281,-0.01611 -6.021536,0.866218 -9.774211,2.822286 -2.132739,1.82575 -2.5893,1.558576 -4.375956,5.982503 l -0.589496,12.937112 c 2.796444,3.45468 8.084254,2.334791 11.07054,2.334791 5.213176,0 10.497676,-0.06761 15.605383,-2.2409 1.582048,-0.672924 4.653712,0.0481 5.784719,-3.956941 1.646326,-5.821168 -2.201752,-10.875751 -4.010816,-13.34843"
         style="display:inline;fill:#ed7d77;fill-opacity:1;fill-rule:nonzero;stroke:none;stroke-width:0.0179834"
         sodipodi:nodetypes="cccccsccc" />
      <path
         style="fill:#ef615b;fill-opacity:1;stroke-width:0.461993"
         d="m 82.813987,-54.42903 c -0.287384,-2.540522 0.587906,-10.184026 5.171263,-14.422943 2.65693,-2.457274 9.964557,-7.480482 14.75437,-7.41182 4.7898,0.06867 5.07721,1.647908 7.28052,1.647908 2.20331,0 6.03517,-1.785233 9.10065,-1.785233 3.06549,0 11.41288,3.78084 14.46523,7.690231 2.47062,3.164343 3.73607,10.024765 3.83185,14.625171 0.0957,4.600406 -3.13154,14.227409 -7.84741,17.301766 -6.36599,4.150089 -11.50342,5.837589 -20.50827,6.180903 -9.00487,0.343314 -16.290534,-4.660791 -18.967677,-6.660289 -4.579871,-3.420603 -7.280526,-17.165694 -7.280526,-17.165694 z"
         id="path68-9-7"
         sodipodi:nodetypes="csssssssssc"
         clip-path="url(#clipPath1)"
         inkscape:path-effect="#path-effect1"
         inkscape:original-d="m 82.813987,-54.42903 c -0.287384,-2.540522 0.587906,-10.184026 5.171263,-14.422943 2.65693,-2.457274 9.964557,-7.480482 14.75437,-7.41182 4.7898,0.06867 5.07721,1.647908 7.28052,1.647908 2.20331,0 6.03517,-1.785233 9.10065,-1.785233 3.06549,0 11.41288,3.78084 14.46523,7.690231 2.47062,3.164343 3.73607,10.024765 3.83185,14.625171 0.0957,4.600406 -3.13154,14.227409 -7.84741,17.301766 -6.36599,4.150089 -11.50342,5.837589 -20.50827,6.180903 -9.00487,0.343314 -16.290534,-4.660791 -18.967677,-6.660289 -4.579871,-3.420603 -7.280526,-17.165694 -7.280526,-17.165694 z"
         transform="matrix(1,0,0,1.1359988,-57.175677,80.560808)" />
    </g>
    <path
       d="m 516.92388,375.32263 q -1.20798,0.57829 -2.30031,0.89956 -1.07947,0.32128 -2.30031,0.32128 -1.55495,0 -2.85289,-0.44978 -1.29794,-0.46264 -2.2232,-1.3879 -0.93812,-0.92526 -1.45215,-2.33886 -0.51404,-1.4136 -0.51404,-3.30268 0,-3.52114 1.92763,-5.52587 1.94049,-2.00474 5.11465,-2.00474 1.23369,0 2.41597,0.34697 1.19513,0.34698 2.18465,0.84816 v 2.68583 h -0.12851 q -1.10518,-0.861 -2.28746,-1.32364 -1.16943,-0.46263 -2.28745,-0.46263 -2.05614,0 -3.25127,1.3879 -1.18229,1.37504 -1.18229,4.04802 0,2.59588 1.15658,3.99663 1.16943,1.38789 3.27698,1.38789 0.7325,0 1.4907,-0.19276 0.7582,-0.19276 1.36219,-0.50118 0.52689,-0.26987 0.98952,-0.56544 0.46263,-0.30842 0.7325,-0.52689 h 0.12851 z m 14.25162,0.89956 h -2.40311 v -1.52925 q -0.32127,0.21846 -0.87386,0.61684 -0.53974,0.38553 -1.05377,0.61684 -0.60399,0.29557 -1.3879,0.48834 -0.7839,0.20561 -1.83767,0.20561 -1.94049,0 -3.28983,-1.28509 -1.34934,-1.28508 -1.34934,-3.27697 0,-1.63206 0.69395,-2.63443 0.7068,-1.01522 2.00473,-1.59351 1.31079,-0.57829 3.14847,-0.7839 1.83767,-0.20562 3.94522,-0.30842 v -0.37268 q 0,-0.82246 -0.29557,-1.36219 -0.28272,-0.53974 -0.82246,-0.84816 -0.51403,-0.29557 -1.23368,-0.39838 -0.71965,-0.10281 -1.50355,-0.10281 -0.95097,0 -2.1204,0.25702 -1.16943,0.24417 -2.41596,0.71965 h -0.12851 v -2.45452 q 0.70679,-0.19276 2.04329,-0.42408 1.33649,-0.23131 2.63443,-0.23131 1.5164,0 2.63443,0.25702 1.13087,0.24416 1.95333,0.84815 0.80961,0.59114 1.23368,1.52926 0.42408,0.93811 0.42408,2.32601 z m -2.40311,-3.53399 v -3.99662 q -1.10518,0.0643 -2.60873,0.19276 -1.4907,0.12851 -2.36456,0.37268 -1.04092,0.29557 -1.68347,0.92526 -0.64254,0.61684 -0.64254,1.70917 0,1.23368 0.74535,1.86338 0.74535,0.61684 2.27461,0.61684 1.27223,0 2.32601,-0.48834 1.05377,-0.50118 1.95333,-1.19513 z m 14.50864,3.40549 q -0.6811,0.17991 -1.4907,0.29557 -0.79676,0.11565 -1.42645,0.11565 -2.1975,0 -3.34123,-1.18228 -1.14373,-1.18228 -1.14373,-3.79101 v -7.63342 h -1.63206 v -2.03044 h 1.63206 v -4.12513 h 2.41597 v 4.12513 h 4.98614 v 2.03044 h -4.98614 v 6.5411 q 0,1.13088 0.0514,1.77342 0.0514,0.62969 0.35983,1.18228 0.28272,0.51404 0.77105,0.7582 0.50118,0.23132 1.5164,0.23132 0.59114,0 1.23369,-0.16706 0.64254,-0.17992 0.92526,-0.29557 h 0.12851 z"
       id="text2-6-3-9-6-8-4-8"
       style="font-size:26.3186px;white-space:pre;fill:#0f0f0f;stroke:#000000;stroke-width:0"
       transform="matrix(0.35777471,0,0,0.35777471,-134.65782,-79.238693)"
       aria-label="cat" />
    <rect
       style="fill:#000000;fill-opacity:1;stroke:#ea75b3;stroke-width:0"
       id="rect1"
       width="5.1434183"
       height="0.72323298"
       x="50.850445"
       y="-57.063286"
       ry="0.36161649"
       transform="scale(1,-1)" />
  </g>
</svg>
