<?xml version="1.0" encoding="UTF-8" standalone="no"?>
<!-- Created with Inkscape (http://www.inkscape.org/) -->

<svg
   width="400"
   height="300"
   viewBox="0 0 105.83333 79.375"
   version="1.1"
   id="svg1"
   inkscape:version="1.3.2 (091e20e, 2023-11-25, custom)"
   sodipodi:docname="Mou_OE_ough.svg"
   xmlns:inkscape="http://www.inkscape.org/namespaces/inkscape"
   xmlns:sodipodi="http://sodipodi.sourceforge.net/DTD/sodipodi-0.dtd"
   xmlns="http://www.w3.org/2000/svg"
   xmlns:svg="http://www.w3.org/2000/svg">
  <sodipodi:namedview
     id="namedview1"
     pagecolor="#ffffff"
     bordercolor="#000000"
     borderopacity="0.25"
     inkscape:showpageshadow="2"
     inkscape:pageopacity="0.0"
     inkscape:pagecheckerboard="0"
     inkscape:deskcolor="#d1d1d1"
     inkscape:document-units="mm"
     inkscape:zoom="3.6031894"
     inkscape:cx="240.89769"
     inkscape:cy="153.05884"
     inkscape:window-width="1536"
     inkscape:window-height="953"
     inkscape:window-x="-8"
     inkscape:window-y="-8"
     inkscape:window-maximized="1"
     inkscape:current-layer="layer1" />
  <defs
     id="defs1">
    <rect
       x="503.93228"
       y="352.21072"
       width="93.659676"
       height="32.47094"
       id="rect2-7-77-5-8-3" />
    <rect
       x="503.93228"
       y="352.21072"
       width="93.659676"
       height="32.47094"
       id="rect2-7-7-0-7-9-0-8" />
    <rect
       x="503.93228"
       y="352.21072"
       width="93.659676"
       height="32.47094"
       id="rect2-7-7-0-7-9-0-8-3" />
    <rect
       x="503.93228"
       y="352.21072"
       width="93.659676"
       height="32.47094"
       id="rect2-7-7-0-7-9-0-8-3-0" />
    <rect
       x="503.93228"
       y="352.21072"
       width="93.659676"
       height="32.47094"
       id="rect2-7-7-0-7-9-0-8-9" />
    <rect
       x="503.93228"
       y="352.21072"
       width="120.85421"
       height="37.807226"
       id="rect2-7-7-0-7-9-0-8-3-0-3" />
    <clipPath
       clipPathUnits="userSpaceOnUse"
       id="clipPath1">
      <path
         style="display:block;fill:#755946;fill-opacity:1;stroke-width:0.554387"
         d="m 87.892501,-53.926875 c 9.020297,-8.611809 13.304949,-12.335835 15.109009,-12.335835 1.80406,0 2.92657,2.219859 6.53973,2.094764 3.89286,-0.134776 7.6667,-2.11968 7.6667,-2.11968 0,0 4.58391,1.23386 6.65877,3.564895 l 8.45077,9.49411 c 0,0 -10.14783,12.801341 -20.97219,13.034092 -10.82437,0.232751 -23.452789,-13.732346 -23.452789,-13.732346 z"
         id="path1"
         sodipodi:nodetypes="csscscsc" />
    </clipPath>
    <inkscape:path-effect
       effect="powerclip"
       id="path-effect1"
       is_visible="true"
       lpeversion="1"
       inverse="true"
       flatten="false"
       hide_clip="false"
       message="Use fill-rule evenodd on &lt;b&gt;fill and stroke&lt;/b&gt; dialog if no flatten result after convert clip to paths." />
    <rect
       x="503.93228"
       y="352.21072"
       width="120.85421"
       height="37.807224"
       id="rect2-7-7-0-7-9-0-8-3-0-3-7" />
  </defs>
  <g
     inkscape:label="Layer 1"
     inkscape:groupmode="layer"
     id="layer1">
    <path
       d="m 513.76256,376.09369 q -0.68109,0.17991 -1.4907,0.29557 -0.79675,0.11565 -1.42645,0.11565 -2.1975,0 -3.34123,-1.18228 -1.14372,-1.18228 -1.14372,-3.79101 v -7.63342 h -1.63206 v -2.03044 h 1.63206 v -4.12513 h 2.41596 v 4.12513 h 4.98614 v 2.03044 h -4.98614 v 6.5411 q 0,1.13088 0.0514,1.77342 0.0514,0.62969 0.35982,1.18228 0.28272,0.51404 0.77105,0.7582 0.50119,0.23132 1.51641,0.23132 0.59114,0 1.23368,-0.16706 0.64254,-0.17992 0.92526,-0.29557 h 0.12851 z m 14.91987,0.1285 h -2.41596 v -8.17315 q 0,-0.98952 -0.11566,-1.85053 -0.11566,-0.87386 -0.42408,-1.36219 -0.32127,-0.53974 -0.92526,-0.79676 -0.60399,-0.26987 -1.56781,-0.26987 -0.98952,0 -2.06899,0.48834 -1.07948,0.48833 -2.06899,1.24653 v 10.71763 h -2.41597 v -19.99596 h 2.41597 v 7.23504 q 1.13087,-0.93811 2.33886,-1.465 1.20798,-0.52688 2.48022,-0.52688 2.32601,0 3.54684,1.40074 1.22083,1.40075 1.22083,4.03518 z m 16.88606,-7.17079 q 0,3.50829 -1.79912,5.53873 -1.79913,2.03044 -4.81908,2.03044 -3.04566,0 -4.84479,-2.03044 -1.78627,-2.03044 -1.78627,-5.53873 0,-3.50829 1.78627,-5.53873 1.79913,-2.04328 4.84479,-2.04328 3.01995,0 4.81908,2.04328 1.79912,2.03044 1.79912,5.53873 z m -2.49307,0 q 0,-2.78864 -1.09233,-4.13798 -1.09232,-1.36219 -3.0328,-1.36219 -1.96619,0 -3.05851,1.36219 -1.07948,1.34934 -1.07948,4.13798 0,2.69869 1.09233,4.09943 1.09232,1.3879 3.04566,1.3879 1.92763,0 3.01995,-1.37505 1.10518,-1.38789 1.10518,-4.11228 z m 18.13259,7.17079 h -2.41597 v -1.59351 q -1.22083,0.96382 -2.33886,1.47786 -1.11803,0.51403 -2.46737,0.51403 -2.26175,0 -3.52114,-1.37504 -1.25939,-1.3879 -1.25939,-4.06088 v -9.31689 h 2.41597 v 8.17316 q 0,1.09233 0.10281,1.87623 0.1028,0.77105 0.43693,1.32364 0.34697,0.56544 0.89956,0.82246 0.55259,0.25701 1.60636,0.25701 0.93811,0 2.04329,-0.48833 1.11802,-0.48833 2.08184,-1.24653 v -10.71764 h 2.41597 z m 16.39772,-1.63206 q 0,3.64965 -1.65777,5.35882 -1.65776,1.70917 -5.10179,1.70917 -1.14373,0 -2.23606,-0.16707 -1.07947,-0.15421 -2.13324,-0.44978 v -2.46737 h 0.12851 q 0.59114,0.23132 1.87622,0.56544 1.28509,0.34698 2.57018,0.34698 1.23368,0 2.04329,-0.29557 0.8096,-0.29557 1.25939,-0.82246 0.44978,-0.50118 0.64254,-1.20798 0.19276,-0.7068 0.19276,-1.58066 v -1.31079 q -1.09232,0.87386 -2.09469,1.31079 -0.98952,0.42408 -2.53162,0.42408 -2.57018,0 -4.08658,-1.85053 -1.50356,-1.86337 -1.50356,-5.24316 0,-1.85052 0.51404,-3.18701 0.52688,-1.34935 1.42645,-2.32601 0.8353,-0.91242 2.03044,-1.4136 1.19513,-0.51403 2.37741,-0.51403 1.24653,0 2.08184,0.25701 0.84816,0.24417 1.78627,0.7582 l 0.15421,-0.61684 h 2.26176 z m -2.41597,-2.31316 v -7.82618 q -0.96381,-0.43693 -1.79912,-0.61684 -0.82246,-0.19277 -1.64491,-0.19277 -1.99189,0 -3.13562,1.33649 -1.14373,1.3365 -1.14373,3.88097 0,2.41597 0.84816,3.6625 0.84816,1.24654 2.81434,1.24654 1.05378,0 2.10755,-0.39838 1.06662,-0.41123 1.95333,-1.09233 z m 19.17351,3.94522 h -2.41596 v -8.17315 q 0,-0.98952 -0.11566,-1.85053 -0.11566,-0.87386 -0.42408,-1.36219 -0.32127,-0.53974 -0.92526,-0.79676 -0.60399,-0.26987 -1.56781,-0.26987 -0.98952,0 -2.06899,0.48834 -1.07948,0.48833 -2.06899,1.24653 v 10.71763 h -2.41597 v -19.99596 h 2.41597 v 7.23504 q 1.13087,-0.93811 2.33886,-1.465 1.20798,-0.52688 2.48022,-0.52688 2.32601,0 3.54684,1.40074 1.22083,1.40075 1.22083,4.03518 z"
       id="text2-6-3-9-6-8-4-8"
       style="font-size:26.3186px;white-space:pre;fill:#0f0f0f;stroke:#000000;stroke-width:0"
       transform="matrix(0.35777471,0,0,0.35777471,-143.69693,-89.292866)"
       aria-label="though" />
    <rect
       style="font-variation-settings:normal;opacity:1;vector-effect:none;fill:#000000;fill-opacity:1;stroke:#ea75b3;stroke-width:0;stroke-linecap:butt;stroke-linejoin:miter;stroke-miterlimit:4;stroke-dasharray:none;stroke-dashoffset:0;stroke-opacity:1;-inkscape-stroke:none;stop-color:#000000;stop-opacity:1"
       id="rect1"
       width="21.836052"
       height="0.72323298"
       x="47.827084"
       y="47.759598"
       ry="0.36161649" />
    <g
       id="g8"
       transform="matrix(1,0,0,1.1044677,-0.001167,3.7430854e-8)">
      <path
         style="fill:#ef615b;fill-opacity:1;stroke-width:0.461993"
         d="m 82.813987,-54.42903 c -0.287384,-2.540522 0.587906,-10.184026 5.171263,-14.422943 2.65693,-2.457274 9.964557,-7.480482 14.75437,-7.41182 4.7898,0.06867 5.07721,1.647908 7.28052,1.647908 2.20331,0 6.03517,-1.785233 9.10065,-1.785233 3.06549,0 11.41288,3.78084 14.46523,7.690231 2.47062,3.164343 3.73607,10.024765 3.83185,14.625171 0.0957,4.600406 -1.15567,11.872439 -7.84741,17.301766 -5.8624,4.756441 -11.50342,5.837589 -20.50827,6.180903 -9.00487,0.343314 -16.39139,-4.547792 -18.967677,-6.660289 -7.453864,-6.111998 -7.280526,-17.165694 -7.280526,-17.165694 z"
         id="path68-9-7"
         sodipodi:nodetypes="csssssssssc"
         clip-path="none"
         transform="matrix(0.81759777,0,0,0.71599848,-37.094588,54.703084)" />
      <path
         style="display:block;fill:#755946;fill-opacity:1;stroke-width:0.424169"
         d="m 38.795251,14.380204 c 4.47034,-3.445164 7.264354,-3.295309 8.739349,-3.295309 1.474995,0 3.518839,1.211483 6.462456,1.155069 2.919481,-0.05595 5.767936,-0.947683 5.767936,-0.947683 0,0 3.70289,-0.844639 5.946062,0.953768 l 2.572356,2.062322 c 0,0 -4.616424,5.330778 -15.008425,5.277137 -8.851432,-0.04569 -14.479734,-5.205304 -14.479734,-5.205304 z"
         id="path2"
         sodipodi:nodetypes="csscscsc" />
    </g>
  </g>
</svg>
