<?xml version="1.0" encoding="UTF-8" standalone="no"?>
<!-- Created with Inkscape (http://www.inkscape.org/) -->

<svg
   width="400"
   height="300"
   viewBox="0 0 105.83333 79.375"
   version="1.1"
   id="svg1"
   inkscape:version="1.3.2 (091e20e, 2023-11-25, custom)"
   sodipodi:docname="Mou_M_mb.svg"
   xmlns:inkscape="http://www.inkscape.org/namespaces/inkscape"
   xmlns:sodipodi="http://sodipodi.sourceforge.net/DTD/sodipodi-0.dtd"
   xmlns="http://www.w3.org/2000/svg"
   xmlns:svg="http://www.w3.org/2000/svg">
  <sodipodi:namedview
     id="namedview1"
     pagecolor="#ffffff"
     bordercolor="#000000"
     borderopacity="0.25"
     inkscape:showpageshadow="2"
     inkscape:pageopacity="0.0"
     inkscape:pagecheckerboard="0"
     inkscape:deskcolor="#d1d1d1"
     inkscape:document-units="mm"
     inkscape:zoom="1.8015947"
     inkscape:cx="200.65556"
     inkscape:cy="126.27701"
     inkscape:window-width="1536"
     inkscape:window-height="953"
     inkscape:window-x="-8"
     inkscape:window-y="-8"
     inkscape:window-maximized="1"
     inkscape:current-layer="g6" />
  <defs
     id="defs1">
    <rect
       x="503.93228"
       y="352.21072"
       width="93.659676"
       height="32.47094"
       id="rect2-7-77-5-8-3" />
    <rect
       x="503.93228"
       y="352.21072"
       width="93.659676"
       height="32.47094"
       id="rect2-7-7-0-7-9-0-8" />
    <rect
       x="503.93228"
       y="352.21072"
       width="93.659676"
       height="32.47094"
       id="rect2-7-7-0-7-9-0-8-3" />
    <rect
       x="503.93228"
       y="352.21072"
       width="93.659676"
       height="32.47094"
       id="rect2-7-7-0-7-9-0-8-3-0" />
    <rect
       x="503.93228"
       y="352.21072"
       width="93.659676"
       height="32.47094"
       id="rect2-7-7-0-7-9-0-8-9" />
    <rect
       x="503.93228"
       y="352.21072"
       width="93.659676"
       height="32.47094"
       id="rect2-7-7-0-7-9-0-8-3-0-3" />
    <rect
       x="503.93228"
       y="352.21072"
       width="93.659676"
       height="32.47094"
       id="rect2-7-7-0-7-9-0-8-3-0-3-3" />
    <rect
       x="503.93228"
       y="352.21072"
       width="93.659676"
       height="32.47094"
       id="rect2-7-7-0-7-9-0-8-3-0-3-9" />
    <rect
       x="503.93228"
       y="352.21072"
       width="93.659676"
       height="32.47094"
       id="rect2-7-7-0-7-9-0-8-3-0-3-4" />
    <rect
       x="503.93228"
       y="352.21072"
       width="93.659676"
       height="32.47094"
       id="rect2-7-7-0-7-9-0-8-3-0-3-6" />
    <rect
       x="503.93228"
       y="352.21072"
       width="93.659676"
       height="32.47094"
       id="rect2-7-7-0-7-9-0-8-3-0-3-2" />
    <rect
       x="503.93228"
       y="352.21072"
       width="93.659676"
       height="32.47094"
       id="rect2-7-7-0-7-9-0-8-3-0-3-0" />
    <rect
       x="503.93228"
       y="352.21072"
       width="93.659676"
       height="32.47094"
       id="rect2-7-7-0-7-9-0-8-3-0-3-8" />
    <rect
       x="503.93228"
       y="352.21072"
       width="93.659676"
       height="32.47094"
       id="rect2-7-7-0-7-9-0-8-3-0-3-5" />
    <rect
       x="503.93228"
       y="352.21072"
       width="118.69917"
       height="34.933841"
       id="rect2-7-7-0-7-9-0-8-3-0-3-98" />
    <rect
       x="503.93228"
       y="352.21072"
       width="93.659676"
       height="32.47094"
       id="rect2-7-7-0-7-9-0-8-3-0-3-24" />
    <rect
       x="503.93228"
       y="352.21072"
       width="93.659676"
       height="32.47094"
       id="rect2-7-7-0-7-9-0-8-3-0-3-24-0" />
    <rect
       x="503.93228"
       y="352.21072"
       width="93.659676"
       height="32.47094"
       id="rect2-7-7-0-7-9-0-8-3-0-3-24-7" />
    <rect
       x="503.93228"
       y="352.21072"
       width="93.659676"
       height="32.47094"
       id="rect2-7-7-0-7-9-0-8-3-0-3-24-8" />
    <rect
       x="503.93228"
       y="352.21072"
       width="93.659676"
       height="32.47094"
       id="rect2-7-7-0-7-9-0-8-3-0-3-24-9" />
    <rect
       x="503.93228"
       y="352.21072"
       width="93.659676"
       height="32.47094"
       id="rect2-7-7-0-7-9-0-8-3-0-3-24-79" />
    <rect
       x="503.93228"
       y="352.21072"
       width="93.659676"
       height="32.47094"
       id="rect2-7-7-0-7-9-0-8-3-0-3-7" />
    <rect
       x="503.93228"
       y="352.21072"
       width="128.14029"
       height="44.785446"
       id="rect2-7-7-0-7-9-0-8-3-0-3-92" />
  </defs>
  <g
     inkscape:label="Layer 1"
     inkscape:groupmode="layer"
     id="layer1">
    <g
       id="g2"
       transform="matrix(0.7155334,0,0,0.7155334,11.093587,239.39926)">
      <path
         id="path75"
         d="m 111.54224,-328.25994 c -0.37359,2.3755 -10.00011,4.13151 -24.782753,5.65265 -19.035521,1.95935 -39.24697,0.7787 -57.174346,0.43506 -13.912514,-0.2664 -24.3249902,-3.94551 -24.7835396,-6.30524 -0.4585467,-2.35816 107.1142286,-2.15639 106.7406386,0.21753"
         style="fill:#ef615b;fill-opacity:1;fill-rule:nonzero;stroke:none;stroke-width:0.0157631"
         sodipodi:nodetypes="ccccc" />
      <path
         id="path76"
         d="m 112.80486,-329.00238 c -0.42088,-2.36604 -11.40146,-5.0174 -25.481053,-4.69741 -19.361817,0.43822 -43.123117,0.22699 -60.944881,0.0126 -14.081181,-0.16866 -22.4291612,2.3424 -22.8497217,4.70844 -0.4207166,2.36762 109.6981157,2.34398 109.2756557,-0.0237"
         style="fill:#ef615b;fill-opacity:1;fill-rule:nonzero;stroke:none;stroke-width:0.0157631" />
      <path
         id="path77"
         d="m 2.6277133,-329.34602 c 0.072353,-1.0845 111.7408567,3.04386 111.5233167,0.86855 -0.21754,-2.17373 -111.7406904,2.39126 -111.5233167,-0.86855"
         style="fill:#755946;fill-opacity:1;fill-rule:nonzero;stroke:none;stroke-width:0.0157631" />
      <path
         id="path78"
         d="m 2.1666425,-332.71144 c 1.2364587,-2.8878 -1.58907957,-2.15482 -2.36525328,0.39723 -0.76640266,2.52052 -0.77254893,5.85757 1.45745728,6.78917 1.658276,0.692 0.7158011,-0.75348 0.7158011,-0.75348 -1.21391627,-1.14125 -0.2096479,-5.49344 0.1919949,-6.43292"
         style="fill:#755946;fill-opacity:1;fill-rule:nonzero;stroke:none;stroke-width:0.0157631" />
      <path
         id="path79"
         d="m 114.10531,-332.59164 c -1.70082,-2.64032 1.20745,-2.38969 2.39916,-0.003 1.1775,2.35501 1.74025,5.64319 -0.30265,6.93577 -1.518,0.95997 -0.83072,-0.62422 -0.83072,-0.62422 1.00568,-1.32726 -0.71249,-5.45088 -1.26579,-6.3084"
         style="fill:#755946;fill-opacity:1;fill-rule:nonzero;stroke:none;stroke-width:0.0157631" />
    </g>
    <g
       id="g43"
       transform="matrix(0.94047631,0,0,0.94047631,-180.78112,-90.121919)">
      <g
         id="g3"
         transform="translate(-0.60117365,-2.6458334)">
        <g
           id="g4"
           transform="translate(25.491911)">
          <g
             id="g5"
             transform="translate(-2.5191349)">
            <g
               id="g6"
               transform="translate(10.996074)">
              <path
                 d="m 206.72716,122.67545 q -0.45954,0.21999 -0.87508,0.34221 -0.41066,0.12222 -0.87509,0.12222 -0.59153,0 -1.08529,-0.17111 -0.49376,-0.17599 -0.84574,-0.52798 -0.35688,-0.35199 -0.55243,-0.88975 -0.19555,-0.53776 -0.19555,-1.2564 0,-1.3395 0.73331,-2.10214 0.7382,-0.76264 1.9457,-0.76264 0.46932,0 0.91908,0.13199 0.45465,0.132 0.83109,0.32266 v 1.02174 h -0.0489 q -0.42043,-0.32754 -0.87019,-0.50354 -0.44488,-0.17599 -0.87019,-0.17599 -0.7822,0 -1.23685,0.52798 -0.44976,0.52309 -0.44976,1.53994 0,0.98752 0.43998,1.52039 0.44488,0.52798 1.24663,0.52798 0.27865,0 0.56709,-0.0733 0.28843,-0.0733 0.5182,-0.19065 0.20044,-0.10267 0.37643,-0.21511 0.176,-0.11733 0.27866,-0.20044 h 0.0489 z m 2.10703,0.34221 h -0.91908 v -7.60684 h 0.91908 z m 2.80612,-6.37488 h -1.0364 v -0.9533 h 1.0364 z m -0.0587,6.37488 h -0.91908 v -5.4607 h 0.91908 z m 9.7872,0 h -0.91907 v -3.10922 q 0,-0.35199 -0.0342,-0.67954 -0.0293,-0.32754 -0.13199,-0.52309 -0.11245,-0.21021 -0.32266,-0.31776 -0.21022,-0.10756 -0.6062,-0.10756 -0.38621,0 -0.77242,0.19555 -0.38621,0.19066 -0.77242,0.48888 0.0146,0.11244 0.0245,0.26398 0.01,0.14667 0.01,0.29333 v 3.49543 h -0.91908 v -3.10922 q 0,-0.36177 -0.0342,-0.68443 -0.0293,-0.32754 -0.13199,-0.52309 -0.11244,-0.21021 -0.32266,-0.31287 -0.21021,-0.10756 -0.6062,-0.10756 -0.37643,0 -0.75775,0.18578 -0.37643,0.18577 -0.75286,0.4742 v 4.07719 h -0.91908 v -5.4607 h 0.91908 v 0.6062 q 0.43021,-0.35687 0.85553,-0.55731 0.4302,-0.20043 0.91418,-0.20043 0.55732,0 0.94352,0.23465 0.3911,0.23466 0.58176,0.6502 0.55732,-0.46931 1.01686,-0.67464 0.45953,-0.21021 0.98262,-0.21021 0.89953,0 1.32485,0.54753 0.4302,0.54265 0.4302,1.52039 z m 6.57532,-2.7719 q 0,0.68442 -0.19554,1.23195 -0.19067,0.54754 -0.51821,0.91908 -0.3471,0.38621 -0.76264,0.58176 -0.41554,0.19066 -0.91419,0.19066 -0.46443,0 -0.81152,-0.11244 -0.3471,-0.10756 -0.68443,-0.29332 l -0.0587,0.25421 h -0.86041 v -7.60684 h 0.91907 v 2.71813 q 0.38621,-0.31777 0.82131,-0.51821 0.4351,-0.20532 0.97774,-0.20532 0.96797,0 1.52528,0.74308 0.5622,0.74308 0.5622,2.09726 z m -0.94841,0.0244 q 0,-0.97774 -0.32265,-1.48128 -0.32266,-0.50843 -1.0413,-0.50843 -0.40087,0 -0.81153,0.176 -0.41065,0.1711 -0.76264,0.44487 v 3.12878 q 0.3911,0.17599 0.66976,0.24443 0.28355,0.0684 0.64042,0.0684 0.76264,0 1.19285,-0.49864 0.43509,-0.50354 0.43509,-1.57417 z"
                 id="text2-6-3-9-6-8-4-8-9"
                 style="font-size:26.3186px;white-space:pre;fill:#0f0f0f;stroke:#000000;stroke-width:0"
                 aria-label="climb" />
              <path
                 id="rect1-5"
                 style="stroke:#ea75b3;stroke-width:0"
                 d="m 213.25827,124.05539 h 13.43932 c 0.32376,0 0.58441,0.17149 0.58441,0.3845 0,0.21302 -0.26065,0.3845 -0.58441,0.3845 h -13.43932 c -0.32376,0 -0.58441,-0.17148 -0.58441,-0.3845 0,-0.21301 0.26065,-0.3845 0.58441,-0.3845 z" />
            </g>
          </g>
        </g>
      </g>
    </g>
  </g>
</svg>
