<?xml version="1.0" encoding="UTF-8" standalone="no"?>
<!-- Created with Inkscape (http://www.inkscape.org/) -->

<svg
   width="400"
   height="300"
   viewBox="0 0 105.83333 79.375"
   version="1.1"
   id="svg1"
   inkscape:version="1.3.2 (091e20e, 2023-11-25, custom)"
   sodipodi:docname="Mou_E_ea.svg"
   xmlns:inkscape="http://www.inkscape.org/namespaces/inkscape"
   xmlns:sodipodi="http://sodipodi.sourceforge.net/DTD/sodipodi-0.dtd"
   xmlns="http://www.w3.org/2000/svg"
   xmlns:svg="http://www.w3.org/2000/svg">
  <sodipodi:namedview
     id="namedview1"
     pagecolor="#ffffff"
     bordercolor="#000000"
     borderopacity="0.25"
     inkscape:showpageshadow="2"
     inkscape:pageopacity="0.0"
     inkscape:pagecheckerboard="0"
     inkscape:deskcolor="#d1d1d1"
     inkscape:document-units="mm"
     inkscape:zoom="3.6031894"
     inkscape:cx="205.65114"
     inkscape:cy="129.1911"
     inkscape:window-width="1536"
     inkscape:window-height="953"
     inkscape:window-x="-8"
     inkscape:window-y="-8"
     inkscape:window-maximized="1"
     inkscape:current-layer="g3" />
  <defs
     id="defs1">
    <rect
       x="503.93228"
       y="352.21072"
       width="93.659676"
       height="32.47094"
       id="rect2-7-77-5-8-3" />
    <rect
       x="503.93228"
       y="352.21072"
       width="93.659676"
       height="32.47094"
       id="rect2-7-7-0-7-9-0-8" />
    <rect
       x="503.93228"
       y="352.21072"
       width="93.659676"
       height="32.47094"
       id="rect2-7-7-0-7-9-0-8-3" />
    <rect
       x="503.93228"
       y="352.21072"
       width="93.659676"
       height="32.47094"
       id="rect2-7-7-0-7-9-0-8-3-0" />
    <rect
       x="503.93228"
       y="352.21072"
       width="93.659676"
       height="32.47094"
       id="rect2-7-7-0-7-9-0-8-9" />
    <rect
       x="503.93228"
       y="352.21072"
       width="93.659676"
       height="32.47094"
       id="rect2-7-7-0-7-9-0-8-3-0-3" />
  </defs>
  <g
     inkscape:label="Layer 1"
     inkscape:groupmode="layer"
     id="layer1">
    <g
       id="g43"
       transform="matrix(0.94047631,0,0,0.94047631,-180.78112,-64.721903)">
      <g
         id="g3"
         transform="translate(-0.60117365,-2.6458334)">
        <path
           d="m 518.94147,368.93575 q 0,1.79912 -0.51404,3.23842 -0.50118,1.4393 -1.36219,2.41596 -0.91241,1.01522 -2.00474,1.52926 -1.09232,0.50118 -2.40311,0.50118 -1.22084,0 -2.13325,-0.29557 -0.91241,-0.28272 -1.79912,-0.77105 l -0.15421,0.66824 h -2.26176 v -19.99596 h 2.41597 v 7.14509 q 1.01522,-0.83531 2.15895,-1.3622 1.14372,-0.53973 2.57017,-0.53973 2.54448,0 4.00948,1.95333 1.47785,1.95333 1.47785,5.51303 z M 516.4484,369 q 0,-2.57018 -0.84816,-3.89382 -0.84816,-1.33649 -2.73724,-1.33649 -1.05377,0 -2.13324,0.46263 -1.07948,0.44978 -2.00474,1.16943 v 8.22457 q 1.02807,0.46263 1.76057,0.64254 0.74535,0.17991 1.68346,0.17991 2.00474,0 3.13562,-1.31079 1.14373,-1.32364 1.14373,-4.13798 z m 15.21544,-4.49781 h -0.12851 q -0.53974,-0.12851 -1.05377,-0.17991 -0.50119,-0.0642 -1.19513,-0.0642 -1.11803,0 -2.15895,0.50118 -1.04092,0.48833 -2.00474,1.27224 v 10.19074 h -2.41596 v -14.35443 h 2.41596 v 2.1204 q 1.4393,-1.15658 2.53162,-1.63206 1.10518,-0.48834 2.24891,-0.48834 0.62969,0 0.91241,0.0386 0.28272,0.0257 0.84816,0.11566 z m 14.29018,4.79338 h -10.57628 q 0,1.32364 0.39838,2.31316 0.39838,0.97667 1.09232,1.60636 0.66825,0.61684 1.58066,0.92526 0.92527,0.30842 2.03044,0.30842 1.465,0 2.94285,-0.57829 1.4907,-0.59114 2.1204,-1.15658 h 0.12851 v 2.63443 q -1.22084,0.51404 -2.49307,0.86101 -1.27224,0.34698 -2.67299,0.34698 -3.57254,0 -5.57728,-1.92764 -2.00474,-1.94048 -2.00474,-5.50017 0,-3.52114 1.91479,-5.59013 1.92763,-2.06899 5.06324,-2.06899 2.9043,0 4.47211,1.69631 1.58066,1.69632 1.58066,4.81908 z m -2.35172,-1.85053 q -0.0128,-1.90193 -0.96381,-2.94285 -0.93812,-1.04092 -2.86575,-1.04092 -1.94048,0 -3.09706,1.14373 -1.14373,1.14373 -1.29794,2.84004 z m 17.16878,8.77715 h -2.40311 v -1.52925 q -0.32128,0.21846 -0.87386,0.61684 -0.53974,0.38553 -1.05378,0.61684 -0.60399,0.29557 -1.38789,0.48834 -0.7839,0.20561 -1.83768,0.20561 -1.94048,0 -3.28982,-1.28509 -1.34934,-1.28508 -1.34934,-3.27697 0,-1.63206 0.69394,-2.63443 0.7068,-1.01522 2.00474,-1.59351 1.31079,-0.57829 3.14847,-0.7839 1.83767,-0.20562 3.94522,-0.30842 v -0.37268 q 0,-0.82246 -0.29557,-1.36219 -0.28272,-0.53974 -0.82246,-0.84816 -0.51404,-0.29557 -1.23368,-0.39838 -0.71965,-0.10281 -1.50356,-0.10281 -0.95096,0 -2.12039,0.25702 -1.16943,0.24417 -2.41597,0.71965 h -0.12851 v -2.45452 q 0.7068,-0.19276 2.04329,-0.42408 1.33649,-0.23131 2.63443,-0.23131 1.51641,0 2.63443,0.25702 1.13088,0.24416 1.95334,0.84815 0.8096,0.59114 1.23368,1.52926 0.42408,0.93811 0.42408,2.32601 z m -2.40311,-3.53399 v -3.99662 q -1.10518,0.0643 -2.60873,0.19276 -1.4907,0.12851 -2.36456,0.37268 -1.04093,0.29557 -1.68347,0.92526 -0.64254,0.61684 -0.64254,1.70917 0,1.23368 0.74535,1.86338 0.74535,0.61684 2.2746,0.61684 1.27224,0 2.32601,-0.48834 1.05377,-0.50118 1.95334,-1.19513 z m 18.69802,3.53399 h -2.41596 v -1.50355 q -1.04092,0.89956 -2.1718,1.40075 -1.13088,0.50118 -2.45452,0.50118 -2.57017,0 -4.08658,-1.97903 -1.50355,-1.97904 -1.50355,-5.48733 0,-1.82482 0.51403,-3.25127 0.52689,-1.42645 1.4136,-2.42882 0.87386,-0.97666 2.03044,-1.4907 1.16943,-0.51403 2.41597,-0.51403 1.13087,0 2.00473,0.24416 0.87386,0.23132 1.83768,0.7325 v -6.21982 h 2.41596 z m -2.41596,-3.53399 v -8.23741 q -0.97667,-0.43693 -1.74772,-0.60399 -0.77105,-0.16706 -1.68347,-0.16706 -2.03044,0 -3.16131,1.41359 -1.13088,1.4136 -1.13088,4.00948 0,2.55732 0.87386,3.89381 0.87386,1.32364 2.80149,1.32364 1.02807,0 2.08184,-0.44978 1.05378,-0.46263 1.96619,-1.18228 z"
           id="text2-6-3-9-6-8-4-8"
           style="font-size:26.3186px;white-space:pre;fill:#0f0f0f;stroke:#000000;stroke-width:0"
           transform="matrix(0.38041863,0,0,0.38041863,43.021902,-20.104295)"
           aria-label="bread" />
        <rect
           style="fill:#000000;fill-opacity:1;stroke:#ea75b3;stroke-width:0"
           id="rect1"
           width="9.9234734"
           height="0.76900715"
           x="246.40221"
           y="124.05537"
           ry="0.38450357" />
      </g>
    </g>
    <g
       id="g140"
       transform="matrix(0.67397221,0,0,0.67397221,108.88747,311.20651)">
      <path
         id="path13"
         d="m -35.335827,-447.5677 c -5.583605,-3.21096 -12.370093,-5.40832 -18.64034,-6.90898 -9.999008,-2.39126 -20.010313,-2.54575 -30.227955,-2.54575 -3.846986,0 -7.568811,0.5533 -11.330834,0.72827 -1.644247,0.0772 -4.107391,-0.65101 -6.020084,-0.65101 l 0.42466,-0.0773 c -3.98429,-0.27585 -8.68469,1.8569 -12.54586,2.70024 -3.34792,0.73297 -6.94096,1.56053 -10.21717,2.46218 -4.83548,1.33041 -12.98377,5.41147 -10.25452,11.62844 1.86619,4.25132 4.83233,7.74284 7.75213,11.35102 5.89414,7.2857 13.67528,12.72712 22.9402,14.55092 13.791611,2.71597 27.760558,2.57254 41.449237,-0.10562 3.066396,-0.60058 6.432605,-1.11916 9.073239,-2.88306 1.81197,-1.21219 3.063246,-3.09904 4.649486,-4.5792 2.133219,-1.98929 4.451027,-3.64913 6.183551,-6.02938 2.804411,-3.85249 6.379799,-7.08707 9.083486,-11.00105 2.287857,-3.31185 0.988819,-6.73717 -2.319226,-8.63976"
         style="fill:#755946;fill-opacity:1;fill-rule:nonzero;stroke:none;stroke-width:0.0157631" />
      <path
         id="path14"
         d="m -105.06281,-426.59804 c 5.714129,4.17721 10.755013,5.72672 24.454093,5.72672 9.905849,0 18.428644,-2.56151 24.145449,-6.70563 -0.7653,-4.12361 -12.030874,-7.7775 -18.148377,-6.17754 -6.69585,1.74969 -14.687428,-0.4272 -18.867329,0.5249 -4.583911,1.04667 -10.053076,2.88939 -11.583836,6.63155"
         style="fill:#ed7d77;fill-opacity:1;fill-rule:nonzero;stroke:none;stroke-width:0.0157631" />
      <path
         id="path15"
         d="m -40.455051,-450.34516 c 0,0 -7.332049,-2.62615 -8.103812,-2.81845 -0.77176,-0.19389 -34.871765,-4.63119 -34.871765,-4.63119 0,0 -34.100002,4.4373 -34.871762,4.63119 -0.77176,0.1923 -8.10366,2.81845 -8.10366,2.81845 0,0 -1.35058,8.75797 0,9.91499 1.35059,1.15859 3.3235,-0.41457 17.55789,-1.54321 15.821431,-1.25317 25.417532,-1.06087 25.417532,-1.06087 0,0 9.596104,-0.1923 25.417531,1.06087 14.234554,1.12864 16.207306,2.7018 17.558046,1.54321 1.350582,-1.15702 0,-9.91499 0,-9.91499"
         style="fill:#ffffff;fill-opacity:1;fill-rule:nonzero;stroke:none;stroke-width:0.0157631" />
      <path
         id="path16"
         d="m -40.455051,-451.91832 c 0,0 -7.332049,-1.80015 -8.103812,-1.93098 -0.77176,-0.1324 -34.871765,-3.17313 -34.871765,-3.17313 0,0 -34.100002,3.04073 -34.871762,3.17313 -0.77176,0.13083 -8.10366,1.93098 -8.10366,1.93098 0,0 -1.35058,5.99942 0,6.79389 1.35059,0.79288 3.1799,0.40669 17.26848,-1.76861 17.654362,-2.72703 35.893218,-2.72703 51.998378,0 14.055643,2.37866 15.333401,2.56149 16.684141,1.76861 1.350582,-0.79447 0,-6.79389 0,-6.79389"
         style="fill:#dbdbdb;fill-opacity:1;fill-rule:nonzero;stroke:none;stroke-width:0.0157631" />
      <path
         id="path17"
         d="m -31.067336,-444.39617 c -0.401643,-3.0612 -10.210392,-10.20818 -23.370849,-13.7801 -13.160454,-3.57349 -28.72841,-3.57349 -28.72841,-3.57349 0,0 -15.567956,0 -28.728415,3.57349 -13.16045,3.57192 -22.9692,10.7189 -23.37084,13.7801 -0.40149,3.06277 2.29967,0 2.29967,0 0.19294,-2.21157 11.96262,-5.27433 24.69684,-6.97518 12.734384,-1.70082 25.102745,-1.70082 25.102745,-1.70082 0,0 12.368519,0 25.102899,1.70082 12.734221,1.70085 24.503741,4.76361 24.696681,6.97518 0,0 2.701322,3.06277 2.299679,0"
         style="fill:#ef615b;fill-opacity:1;fill-rule:nonzero;stroke:none;stroke-width:0.0157631" />
      <path
         id="path18"
         d="m -39.85495,-433.49914 c 0,0 -8.092304,4.07477 -15.881799,5.1167 -7.789495,1.04195 -27.651633,1.43129 -27.651633,1.43129 0,0 -19.747068,-0.20334 -26.284968,-1.00883 -7.83222,-0.9647 -16.00996,-4.95906 -16.00996,-4.95906 l 17.04465,17.11399 25.023919,1.77964 -1.56e-4,0.005 0.03957,-0.003 2.07931,0.1482 -0.0098,-0.31528 24.904914,-2.02554 16.745931,-17.28267"
         style="fill:#ffffff;fill-opacity:1;fill-rule:nonzero;stroke:none;stroke-width:0.0157631" />
      <path
         id="path19"
         d="m -30.812288,-443.59699 c -0.481407,-3.49152 -2.554727,-0.79918 -2.554727,-0.79918 0.355772,4.56814 -16.157336,21.97376 -25.392152,24.92304 -9.235127,2.9477 -40.000604,2.81056 -48.669203,0.005 -9.22158,-2.98553 -25.91407,-20.36119 -25.53781,-24.92777 0,0 -1.9387,-3.51991 -2.29967,0.69517 -0.3613,4.21346 12.4054,25.81365 23.28005,32.13465 10.87449,6.32259 28.938058,7.02402 28.938058,7.02402 l 2.65e-4,-0.10718 c 1.805665,-0.0804 18.506199,-0.97099 28.809749,-6.90422 10.90318,-6.27846 24.003263,-27.8534 23.425389,-32.04324"
         style="fill:#ef615b;fill-opacity:1;fill-rule:nonzero;stroke:none;stroke-width:0.0157631" />
      <path
         id="path20"
         d="m -136.97525,-445.57525 c 0.0735,-3.43951 2.86057,-4.72104 2.2537,-5.83076 -0.9729,-1.77967 -3.18749,0.60529 -3.67091,1.61885 -0.86236,1.80962 -2.30019,9.43264 1.45643,9.24663 1.2906,-0.40036 -0.12649,-0.94734 -0.0392,-5.03472"
         style="fill:#755946;fill-opacity:1;fill-rule:nonzero;stroke:none;stroke-width:0.0157631" />
      <path
         id="path21"
         d="m -27.089834,-447.44319 c -0.285626,-1.51796 -0.776647,-2.74751 -1.754275,-3.71377 -0.465169,-0.45871 -1.122489,-1.08609 -1.73804,-1.21219 l -0.008,-0.0347 c -0.02207,0.006 -0.0424,0.0143 -0.06368,0.022 -0.333705,-0.0473 -0.652121,0.0615 -0.917572,0.43505 -0.508516,0.71565 -0.292878,1.44865 0.16914,2.16114 0.103878,0.35939 0.248899,0.70462 0.41315,0.99621 0.814006,1.44865 1.757902,2.45433 2.102797,4.28758 0.358926,1.90733 0.119171,3.60502 -0.09679,5.42724 -0.06242,0.52805 -0.291618,1.65039 0.219896,1.99403 0.520813,0.34835 1.038,-0.52964 1.236773,-1.02145 1.065901,-2.6356 0.983459,-6.43451 0.436637,-9.34122"
         style="fill:#755946;fill-opacity:1;fill-rule:nonzero;stroke:none;stroke-width:0.0157631" />
    </g>
  </g>
</svg>
